<svg data-name="add-svgrepo-com (1)" xmlns="http://www.w3.org/2000/svg" width="19" height="19" viewBox="0 0 19 19">
    <g data-name="Group 14923">
        <path data-name="Path 50485" d="M17 0H2a2 2 0 0 0-2 2v15a2 2 0 0 0 2 2h15a2 2 0 0 0 2-2V2a2.007 2.007 0 0 0-2-2zm1.05 17A1.055 1.055 0 0 1 17 18.05H2A1.055 1.055 0 0 1 .95 17V2A1.055 1.055 0 0 1 2 .95h15A1.055 1.055 0 0 1 18.05 2v15z" style="fill:#00b137"/>
        <path data-name="Path 50486" d="M147.884 143.843h-3.246V140.6a.5.5 0 0 0-.994 0v3.246H140.4a.5.5 0 1 0 0 .99h3.246v3.246a.5.5 0 1 0 .994 0v-3.246h3.246a.5.5 0 1 0 0-.99z" transform="translate(-134.644 -134.837)" style="fill:#00b137"/>
    </g>
</svg>
