<svg xmlns="http://www.w3.org/2000/svg" width="18" height="16.758" viewBox="0 0 18 16.758">
    <g data-name="Group 32416">
        <path data-name="Path 65404" d="M4.034 1.241h12.414v.621H4.034z"/>
        <path data-name="Path 65405" d="M5.586 8.379a.931.931 0 1 0-.273.658.931.931 0 0 0 .273-.658zm-.931.31a.31.31 0 1 1 .219-.091.31.31 0 0 1-.219.092z"/>
        <path data-name="Path 65406" d="M14.896 11.483h-.621v1.552h-1.551v.621h1.552v1.552h.621v-1.552h1.552v-.621h-1.552z"/>
        <path data-name="Path 65407" d="M16.449 0H2.793a.31.31 0 0 0-.31.31v2.172h-.934a.31.31 0 0 0-.31.31v3.414h-.31a.931.931 0 0 0-.931.931V9.62a.931.931 0 0 0 .931.931h.31v3.414a.31.31 0 0 0 .31.31h9.753a3.412 3.412 0 0 0 6.7-.931 3.489 3.489 0 0 0-.024-.388 1.545 1.545 0 0 0 .024-.233V1.551A1.553 1.553 0 0 0 16.45-.001zM.62 9.62V7.137a.31.31 0 0 1 .31-.31h4.345a.931.931 0 0 1 .931.931v1.241a.931.931 0 0 1-.931.931H.931a.31.31 0 0 1-.31-.31zm13.965 6.517a2.8 2.8 0 1 1 1.974-.819 2.793 2.793 0 0 1-1.973.819zm0-6.207a3.418 3.418 0 0 0-3.414 3.414c0 .1.007.208.016.31H1.861v-3.103h3.414a1.553 1.553 0 0 0 1.552-1.552V7.758a1.553 1.553 0 0 0-1.552-1.552H1.861v-3.1h14.588a1.544 1.544 0 0 0 .931-.31v8.6a3.411 3.411 0 0 0-2.793-1.459zm1.862-7.448H3.103V.62h13.346a.931.931 0 1 1 0 1.862z"/>
    </g>
</svg>
