<svg xmlns="http://www.w3.org/2000/svg" width="375" height="812" viewBox="0 0 375 812">
    <defs>
        <clipPath id="upghmarufa">
            <path data-name="Rectangle 11993" style="fill:#fff" d="M0 0h375v812H0z"/>
        </clipPath>
    </defs>
    <g data-name="Mask Group 119" style="clip-path:url(#upghmarufa)">
        <g data-name="Group 33862">
            <path data-name="Rectangle 10616" transform="translate(0 25)" style="fill:#e10413" d="M0 0h375v320H0z"/>
            <g data-name="Group 32400">
                <ellipse data-name="Ellipse 2791" cx="46.5" cy="46" rx="46.5" ry="46" transform="translate(-43 41)" style="opacity:.74;fill:#c50001"/>
                <circle data-name="Ellipse 2792" cx="8" cy="8" r="8" transform="translate(77 29)" style="fill:#d90708;opacity:.65"/>
                <g data-name="Group 27219" transform="translate(36.991 26.991)">
                    <circle data-name="Ellipse 2795" cx="59" cy="59" r="59" transform="translate(240.009 -33.991)" style="opacity:.54;fill:#c50001"/>
                </g>
                <g data-name="Group 27226" style="opacity:.17">
                    <g data-name="Group 27222">
                        <g data-name="Group 27220" transform="rotate(90 -21.905 68.905)">
                            <circle data-name="Ellipse 2796" cx="1.702" cy="1.702" r="1.702" style="fill:#fff"/>
                            <path data-name="Path 60722" d="M656.611 426.105a1.7 1.7 0 1 1-1.7-1.7 1.7 1.7 0 0 1 1.7 1.7z" transform="translate(-653.207 -415.509)" style="fill:#fff"/>
                            <circle data-name="Ellipse 2797" cx="1.702" cy="1.702" r="1.702" transform="translate(8.662)" style="fill:#fff"/>
                            <path data-name="Path 60723" d="M672.67 426.105a1.7 1.7 0 1 1-1.7-1.7 1.7 1.7 0 0 1 1.7 1.7z" transform="translate(-660.604 -415.509)" style="fill:#fff"/>
                        </g>
                        <g data-name="Group 27221" transform="rotate(90 -13.138 60.138)">
                            <circle data-name="Ellipse 2798" cx="1.702" cy="1.702" r="1.702" style="fill:#fff"/>
                            <path data-name="Path 60724" d="M624.1 426.105a1.7 1.7 0 1 1-1.7-1.7 1.7 1.7 0 0 1 1.7 1.7z" transform="translate(-620.7 -415.509)" style="fill:#fff"/>
                            <circle data-name="Ellipse 2799" cx="1.702" cy="1.702" r="1.702" transform="translate(8.662)" style="fill:#fff"/>
                            <path data-name="Path 60725" d="M640.164 426.105a1.7 1.7 0 1 1-1.7-1.7 1.7 1.7 0 0 1 1.7 1.7z" transform="translate(-628.097 -415.509)" style="fill:#fff"/>
                        </g>
                    </g>
                    <g data-name="Group 27225">
                        <g data-name="Group 27223" transform="rotate(90 -39.421 86.421)">
                            <circle data-name="Ellipse 2800" cx="1.702" cy="1.702" r="1.702" style="fill:#fff"/>
                            <path data-name="Path 60726" d="M721.563 426.105a1.7 1.7 0 1 1-1.7-1.7 1.7 1.7 0 0 1 1.7 1.7z" transform="translate(-718.158 -415.509)" style="fill:#fff"/>
                            <path data-name="Path 60727" d="M737.622 409.616a1.7 1.7 0 1 1-1.7-1.7 1.7 1.7 0 0 1 1.7 1.7z" transform="translate(-725.555 -407.914)" style="fill:#fff"/>
                            <path data-name="Path 60728" d="M737.622 426.105a1.7 1.7 0 1 1-1.7-1.7 1.7 1.7 0 0 1 1.7 1.7z" transform="translate(-725.555 -415.509)" style="fill:#fff"/>
                        </g>
                        <g data-name="Group 27224" transform="rotate(90 -30.654 77.655)">
                            <circle data-name="Ellipse 2801" cx="1.702" cy="1.702" r="1.702" style="fill:#fff"/>
                            <path data-name="Path 60729" d="M689.057 426.105a1.7 1.7 0 1 1-1.7-1.7 1.7 1.7 0 0 1 1.7 1.7z" transform="translate(-685.652 -415.509)" style="fill:#fff"/>
                            <circle data-name="Ellipse 2802" cx="1.702" cy="1.702" r="1.702" transform="translate(8.662)" style="fill:#fff"/>
                            <path data-name="Path 60730" d="M705.115 426.105a1.7 1.7 0 1 1-1.7-1.7 1.7 1.7 0 0 1 1.7 1.7z" transform="translate(-693.048 -415.509)" style="fill:#fff"/>
                        </g>
                    </g>
                </g>
                <g data-name="Group 27235" style="opacity:.25">
                    <g data-name="Group 27233">
                        <g data-name="Group 27229">
                            <g data-name="Group 27227" transform="translate(322.06 38.054)">
                                <circle data-name="Ellipse 2803" cx="1.48" cy="1.48" r="1.48" style="fill:#fff"/>
                                <path data-name="Path 60731" d="M656.167 425.883a1.48 1.48 0 1 1-1.48-1.48 1.48 1.48 0 0 1 1.48 1.48z" transform="translate(-653.207 -416.67)" style="fill:#fff"/>
                                <circle data-name="Ellipse 2804" cx="1.48" cy="1.48" r="1.48" transform="translate(7.532)" style="fill:#fff"/>
                                <path data-name="Path 60732" d="M672.226 425.883a1.48 1.48 0 1 1-1.48-1.48 1.48 1.48 0 0 1 1.48 1.48z" transform="translate(-661.734 -416.67)" style="fill:#fff"/>
                            </g>
                            <g data-name="Group 27228" transform="translate(306.814 38.054)">
                                <circle data-name="Ellipse 2805" cx="1.48" cy="1.48" r="1.48" style="fill:#fff"/>
                                <path data-name="Path 60733" d="M623.66 425.883a1.48 1.48 0 1 1-1.48-1.48 1.48 1.48 0 0 1 1.48 1.48z" transform="translate(-620.7 -416.67)" style="fill:#fff"/>
                                <circle data-name="Ellipse 2806" cx="1.48" cy="1.48" r="1.48" transform="translate(7.532)" style="fill:#fff"/>
                                <path data-name="Path 60734" d="M639.719 425.883a1.48 1.48 0 1 1-1.48-1.48 1.48 1.48 0 0 1 1.48 1.48z" transform="translate(-629.227 -416.67)" style="fill:#fff"/>
                            </g>
                        </g>
                        <g data-name="Group 27232">
                            <g data-name="Group 27230" transform="translate(352.523 38.054)">
                                <circle data-name="Ellipse 2807" cx="1.48" cy="1.48" r="1.48" style="fill:#fff"/>
                                <path data-name="Path 60735" d="M721.118 425.883a1.48 1.48 0 1 1-1.48-1.48 1.48 1.48 0 0 1 1.48 1.48z" transform="translate(-718.158 -416.67)" style="fill:#fff"/>
                                <path data-name="Path 60736" d="M737.177 409.394a1.48 1.48 0 1 1-1.48-1.48 1.48 1.48 0 0 1 1.48 1.48z" transform="translate(-726.685 -407.914)" style="fill:#fff"/>
                                <path data-name="Path 60737" d="M737.177 425.883a1.48 1.48 0 1 1-1.48-1.48 1.48 1.48 0 0 1 1.48 1.48z" transform="translate(-726.685 -416.67)" style="fill:#fff"/>
                            </g>
                            <g data-name="Group 27231" transform="translate(337.277 38.054)">
                                <circle data-name="Ellipse 2808" cx="1.48" cy="1.48" r="1.48" style="fill:#fff"/>
                                <path data-name="Path 60738" d="M688.612 425.883a1.48 1.48 0 1 1-1.48-1.48 1.48 1.48 0 0 1 1.48 1.48z" transform="translate(-685.652 -416.67)" style="fill:#fff"/>
                                <circle data-name="Ellipse 2809" cx="1.48" cy="1.48" r="1.48" transform="translate(7.532)" style="fill:#fff"/>
                                <path data-name="Path 60739" d="M704.67 425.883a1.48 1.48 0 1 1-1.48-1.48 1.48 1.48 0 0 1 1.48 1.48z" transform="translate(-694.179 -416.67)" style="fill:#fff"/>
                            </g>
                        </g>
                    </g>
                    <g data-name="Group 27234">
                        <g data-name="Group 27229">
                            <g data-name="Group 27227" transform="translate(322.06 54.054)">
                                <circle data-name="Ellipse 2803" cx="1.48" cy="1.48" r="1.48" style="fill:#fff"/>
                                <path data-name="Path 60731" d="M656.167 425.883a1.48 1.48 0 1 1-1.48-1.48 1.48 1.48 0 0 1 1.48 1.48z" transform="translate(-653.207 -416.67)" style="fill:#fff"/>
                                <circle data-name="Ellipse 2804" cx="1.48" cy="1.48" r="1.48" transform="translate(7.532)" style="fill:#fff"/>
                                <path data-name="Path 60732" d="M672.226 425.883a1.48 1.48 0 1 1-1.48-1.48 1.48 1.48 0 0 1 1.48 1.48z" transform="translate(-661.734 -416.67)" style="fill:#fff"/>
                            </g>
                            <g data-name="Group 27228" transform="translate(306.814 54.054)">
                                <circle data-name="Ellipse 2805" cx="1.48" cy="1.48" r="1.48" style="fill:#fff"/>
                                <path data-name="Path 60733" d="M623.66 425.883a1.48 1.48 0 1 1-1.48-1.48 1.48 1.48 0 0 1 1.48 1.48z" transform="translate(-620.7 -416.67)" style="fill:#fff"/>
                                <circle data-name="Ellipse 2806" cx="1.48" cy="1.48" r="1.48" transform="translate(7.532)" style="fill:#fff"/>
                                <path data-name="Path 60734" d="M639.719 425.883a1.48 1.48 0 1 1-1.48-1.48 1.48 1.48 0 0 1 1.48 1.48z" transform="translate(-629.227 -416.67)" style="fill:#fff"/>
                            </g>
                        </g>
                        <g data-name="Group 27232">
                            <g data-name="Group 27230" transform="translate(352.523 54.054)">
                                <circle data-name="Ellipse 2807" cx="1.48" cy="1.48" r="1.48" style="fill:#fff"/>
                                <path data-name="Path 60735" d="M721.118 425.883a1.48 1.48 0 1 1-1.48-1.48 1.48 1.48 0 0 1 1.48 1.48z" transform="translate(-718.158 -416.67)" style="fill:#fff"/>
                                <path data-name="Path 60736" d="M737.177 409.394a1.48 1.48 0 1 1-1.48-1.48 1.48 1.48 0 0 1 1.48 1.48z" transform="translate(-726.685 -407.914)" style="fill:#fff"/>
                                <path data-name="Path 60737" d="M737.177 425.883a1.48 1.48 0 1 1-1.48-1.48 1.48 1.48 0 0 1 1.48 1.48z" transform="translate(-726.685 -416.67)" style="fill:#fff"/>
                            </g>
                            <g data-name="Group 27231" transform="translate(337.277 54.054)">
                                <circle data-name="Ellipse 2808" cx="1.48" cy="1.48" r="1.48" style="fill:#fff"/>
                                <path data-name="Path 60738" d="M688.612 425.883a1.48 1.48 0 1 1-1.48-1.48 1.48 1.48 0 0 1 1.48 1.48z" transform="translate(-685.652 -416.67)" style="fill:#fff"/>
                                <circle data-name="Ellipse 2809" cx="1.48" cy="1.48" r="1.48" transform="translate(7.532)" style="fill:#fff"/>
                                <path data-name="Path 60739" d="M704.67 425.883a1.48 1.48 0 1 1-1.48-1.48 1.48 1.48 0 0 1 1.48 1.48z" transform="translate(-694.179 -416.67)" style="fill:#fff"/>
                            </g>
                        </g>
                    </g>
                </g>
            </g>
            <path data-name="Rectangle 8780" d="M40 0h305a30 30 0 0 1 30 30v632H0V40A40 40 0 0 1 40 0z" transform="translate(0 170)" style="fill:#f2f2f2"/>
        </g>
    </g>
</svg>
