<svg xmlns="http://www.w3.org/2000/svg" width="67" height="67" viewBox="0 0 67 67">
    <g data-name="Group 32574">
        <g data-name="Group 32568">
            <circle data-name="Ellipse 4031" cx="33.5" cy="33.5" r="33.5" style="fill:#f7d71d"/>
            <g data-name="Group 32567">
                <path data-name="Path 65745" d="M219.21 346.329a26.761 26.761 0 1 1 26.761-26.761 26.791 26.791 0 0 1-26.761 26.761zm0-50.9a24.144 24.144 0 1 0 24.144 24.144 24.172 24.172 0 0 0-24.144-24.149z" transform="translate(-185.71 -286.068)" style="stroke-miterlimit:10;stroke-width:1.085px;fill:#e3a51a;stroke:#e1a031"/>
            </g>
            <path data-name="Path 65750" d="m195.356 314.831.13-.13" transform="translate(-187.214 -297.4)" style="fill:none;stroke:#e3a51d;stroke-miterlimit:10;stroke-width:1.085px"/>
            <path data-name="Path 65751" d="m188.647 333.08.129-.129" transform="translate(-183.742 -306.846)" style="fill:none;stroke:#e3a51d;stroke-miterlimit:10;stroke-width:1.085px"/>
            <path data-name="Path 65752" d="M187.037 351.2h.129" transform="translate(-182.908 -316.292)" style="fill:none;stroke:#e3a51d;stroke-miterlimit:10;stroke-width:1.085px"/>
            <path data-name="Path 65753" d="M190.525 369.985h.13" transform="translate(-184.714 -326.015)" style="fill:none;stroke:#e3a51d;stroke-miterlimit:10;stroke-width:1.085px"/>
            <path data-name="Path 65754" d="M198.845 385.014h.129" transform="translate(-189.02 -333.794)" style="fill:none;stroke:#e3a51d;stroke-miterlimit:10;stroke-width:1.085px"/>
            <path data-name="Path 65755" d="M209.311 397.627h.13" transform="translate(-194.437 -340.323)" style="fill:none;stroke:#e3a51d;stroke-miterlimit:10;stroke-width:1.085px"/>
            <path data-name="Path 65760" d="M287.673 393.73q-.015-.145.129-.129" transform="translate(-234.997 -338.238)" style="fill:none;stroke:#e3a51d;stroke-miterlimit:10;stroke-width:1.085px"/>
            <path data-name="Path 65766" d="m283.113 297.526.129.129" transform="translate(-232.637 -288.51)" style="fill:none;stroke:#e3a51d;stroke-miterlimit:10;stroke-width:1.085px"/>
        </g>
    </g>
</svg>
