<svg xmlns="http://www.w3.org/2000/svg" width="20" height="20" viewBox="0 0 20 20">
    <g data-name="Group 30912" transform="translate(-63 -151)">
        <circle data-name="Ellipse 161" cx="10" cy="10" r="10" transform="translate(63 151)" style="fill:#76ba1b"/>
        <path data-name="Path 65503" d="M1.078.1a4.466 4.466 0 0 1-1.46-.218 2.655 2.655 0 0 1-1.1-.712 3.2 3.2 0 0 1-.69-1.284 6.874 6.874 0 0 1-.237-1.939 5.761 5.761 0 0 1 .429-2.41A2.823 2.823 0 0 1-.751-7.816a4.042 4.042 0 0 1 1.933-.429 6.225 6.225 0 0 1 .756.047 5.234 5.234 0 0 1 .729.14V-6.9a5.031 5.031 0 0 0-.7-.143 5.454 5.454 0 0 0-.7-.044 2.566 2.566 0 0 0-1.248.278 1.738 1.738 0 0 0-.765.938A5.064 5.064 0 0 0-1-4.076a5.182 5.182 0 0 0 .257 1.832 1.693 1.693 0 0 0 .759.927 2.594 2.594 0 0 0 1.232.267 3.514 3.514 0 0 0 .679-.069 5.846 5.846 0 0 0 .74-.2v1.154a3.963 3.963 0 0 1-.734.2A4.912 4.912 0 0 1 1.078.1z" transform="translate(72.409 165.245)" style="fill:#fff"/>
    </g>
</svg>
