<svg data-name="cancel-svgrepo-com (1)" xmlns="http://www.w3.org/2000/svg" width="15.49" height="15.49" viewBox="0 0 15.49 15.49">
    <g data-name="Group 15164">
        <path data-name="Path 50774" d="M7.745 0a7.745 7.745 0 1 0 7.745 7.745A7.738 7.738 0 0 0 7.745 0zm0 14.2A6.459 6.459 0 1 1 14.2 7.745 6.467 6.467 0 0 1 7.745 14.2z" style="fill:#fff"/>
        <path data-name="Path 50775" d="M135.147 128.172a.637.637 0 0 0-.922 0l-2.572 2.572-2.569-2.569a.652.652 0 0 0-.922.922l2.569 2.569-2.569 2.569a.629.629 0 0 0 0 .922.639.639 0 0 0 .922 0l2.569-2.569 2.569 2.569a.652.652 0 1 0 .922-.922l-2.569-2.569 2.569-2.569a.638.638 0 0 0 .003-.925z" transform="translate(-123.909 -123.921)" style="fill:#fff"/>
    </g>
</svg>
