<svg xmlns="http://www.w3.org/2000/svg" width="37" height="37" viewBox="0 0 37 37">
    <g data-name="Group 31032" transform="translate(-29.375 -331.375)">
        <rect data-name="Rectangle 10528" width="37" height="37" rx="6" transform="translate(29.375 331.375)" style="fill:#e9b423;opacity:.2"/>
        <g data-name="Group 7062">
            <g data-name="Group 7061">
                <path data-name="Path 7337" d="M21.008 13.48v8.28H5.123v-8.28h15.885m1.352-1.352H3.771v10.984H22.36V12.128z" transform="translate(36.055 336.253)" style="fill:#d29f11"/>
            </g>
        </g>
        <g data-name="Group 7063" transform="translate(39.826 348.381)">
            <path data-name="Path 7338" d="m19.771 12.128 1.9 1.9a1.024 1.024 0 0 0-.042.21 1.1 1.1 0 0 0 1.1 1.1 1.074 1.074 0 0 0 .209-.041l1.9 1.9v-5.07z" transform="translate(-6.252 -12.128)" style="fill:#d29f11"/>
            <circle data-name="Ellipse 700" cx="1.097" cy="1.097" r="1.097" transform="translate(13.69 4.395)" style="fill:#d29f11"/>
            <ellipse data-name="Ellipse 701" cx="3.317" cy="2.885" rx="3.317" ry="2.885" transform="translate(5.977 2.607)" style="fill:#d29f11"/>
            <circle data-name="Ellipse 702" cx="1.096" cy="1.096" r="1.096" transform="translate(2.706 4.396)" style="fill:#d29f11"/>
            <path data-name="Path 7339" d="m3.771 17.2 1.9-1.9a1.024 1.024 0 0 0 .21.042 1.1 1.1 0 0 0 1.1-1.1 1.016 1.016 0 0 0-.042-.209l1.9-1.9H3.771z" transform="translate(-3.771 -12.128)" style="fill:#d29f11"/>
            <path data-name="Path 7340" d="M6.98 22.085a1.1 1.1 0 0 0-1.1-1.1 1.074 1.074 0 0 0-.209.041l-1.9-1.9V24.2h5.07l-1.9-1.9a1.035 1.035 0 0 0 .039-.215z" transform="translate(-3.771 -13.213)" style="fill:#d29f11"/>
            <path data-name="Path 7341" d="M22.728 20.989a1.1 1.1 0 0 0-1.1 1.1 1.016 1.016 0 0 0 .042.209l-1.9 1.9h5.07v-5.07l-1.9 1.9a1.024 1.024 0 0 0-.212-.039z" transform="translate(-6.252 -13.213)" style="fill:#d29f11"/>
        </g>
        <g data-name="Group 7064" transform="translate(36.64 338.677)">
            <circle data-name="Ellipse 703" cx="1.096" cy="1.096" r="1.096" transform="translate(14.513 5.547)" style="fill:#d29f11"/>
            <path data-name="Path 7342" d="M1.919 10.347A1.268 1.268 0 0 1 3.186 9.08h.693l.031-.108 9.782-5.357.748.218a1 1 0 0 0 .065.2 1.1 1.1 0 0 0 1.489.435.967.967 0 0 0 .161-.137l.749.22 1.7 3.111-.219.749a1 1 0 0 0-.2.063 1.087 1.087 0 0 0-.5.6h3.237L18.74 5.089 16.3.643l-4.443 2.435-7.41 4.058L0 9.571l1.919 3.5z" transform="translate(0 -.643)" style="fill:#d29f11"/>
            <path data-name="Path 7343" d="M10.844 8.55a3.575 3.575 0 0 0-1.563 1.685h6.111a2.507 2.507 0 0 0-.253-.748 3.125 3.125 0 0 0-4.295-.937z" transform="translate(-1.439 -1.798)" style="fill:#d29f11"/>
        </g>
    </g>
</svg>
