<svg xmlns="http://www.w3.org/2000/svg" width="43" height="43" viewBox="0 0 43 43">
    <defs>
        <linearGradient id="nht8grlv4a" x1=".5" x2=".5" y2="1" gradientUnits="objectBoundingBox">
            <stop offset="0" stop-color="#65c3f3"/>
            <stop offset="1" stop-color="#2ba6e5"/>
        </linearGradient>
    </defs>
    <g data-name="Group 32793">
        <g data-name="Group 31107">
            <g data-name="Group 31105" transform="translate(-27 -348)">
                <rect data-name="Rectangle 10531" width="43" height="43" rx="7" transform="translate(27 348)" style="fill:url(#nht8grlv4a)"/>
            </g>
        </g>
        <g data-name="Group 32799">
            <path data-name="Path 66077" d="M238.543 197.68h10.482a1.105 1.105 0 0 1 0 2.21h-10.482a1.105 1.105 0 0 1 0-2.21z" transform="translate(-222.662 -181.152)" style="fill:#fff"/>
            <path data-name="Path 66078" d="M238.543 259.84h10.482a1.105 1.105 0 1 1 0 2.21h-10.482a1.105 1.105 0 0 1 0-2.21z" transform="translate(-222.662 -239.807)" style="fill:#fff"/>
            <path data-name="Path 66079" d="M238.543 328.72h10.482a1.105 1.105 0 1 1 0 2.21h-10.482a1.105 1.105 0 0 1 0-2.21z" transform="translate(-222.662 -304.804)" style="fill:#fff"/>
            <path data-name="Path 66080" d="M104.16 46.869a13.86 13.86 0 1 1 13.86 13.86 14.016 14.016 0 0 1-4.547-.758l-6.188.947h-.158a1.062 1.062 0 0 1-.821-.379 1.092 1.092 0 0 1-.253-1.01l1.042-4.136a13.189 13.189 0 0 1-1.989-3.473 13.8 13.8 0 0 1-.947-5.052zm4.988 7.546.063.095a1.083 1.083 0 0 1 .158.884l-.758 3.063 4.8-.726a1.175 1.175 0 0 1 .568.063 11.649 11.649 0 1 0-7.609-10.924 11.312 11.312 0 0 0 .789 4.231 11.878 11.878 0 0 0 1.989 3.315z" transform="translate(-96.898 -25.794)" style="fill:#fff"/>
        </g>
    </g>
</svg>
