<svg xmlns="http://www.w3.org/2000/svg" width="14.196" height="14.196" viewBox="0 0 14.196 14.196">
    <g data-name="Group 30855">
        <path data-name="Path 65498" d="M241.955 141.558a.656.656 0 0 1-.437-.177l-3.057-2.839a.655.655 0 0 1 .893-.959l2.551 2.381 5.61-6.333a.657.657 0 0 1 .981.874l-6.059 6.833a.655.655 0 0 1-.459.218z" transform="translate(-235.512 -132.029)" style="fill:#8e9193"/>
        <path data-name="Path 65499" d="M175.093 112.186a7.1 7.1 0 1 1 3.1-13.486.655.655 0 1 1-.572 1.179 5.783 5.783 0 1 0 2.741 2.806.656.656 0 0 1 1.193-.546 7.1 7.1 0 0 1-6.458 10.046z" transform="translate(-167.995 -97.989)" style="fill:#8e9193"/>
    </g>
</svg>
