<svg data-name="cancel-svgrepo-com (1)" xmlns="http://www.w3.org/2000/svg" width="19.245" height="19.245" viewBox="0 0 19.245 19.245">
    <g data-name="Group 15164">
        <path data-name="Path 50774" d="M9.623 0a9.623 9.623 0 1 0 9.623 9.623A9.614 9.614 0 0 0 9.623 0zm0 17.647a8.025 8.025 0 1 1 8.025-8.025 8.035 8.035 0 0 1-8.025 8.025z" style="fill:#8e9193"/>
        <path data-name="Path 50775" d="M136.889 128.22a.792.792 0 0 0-1.145 0l-3.2 3.2-3.192-3.192a.81.81 0 0 0-1.145 1.145l3.192 3.192-3.192 3.192a.782.782 0 0 0 0 1.145.794.794 0 0 0 1.145 0l3.192-3.192 3.192 3.192a.81.81 0 0 0 1.145-1.145l-3.192-3.192 3.192-3.192a.793.793 0 0 0 .008-1.153z" transform="translate(-122.926 -122.938)" style="fill:#8e9193"/>
    </g>
</svg>
