<svg xmlns="http://www.w3.org/2000/svg" width="14.262" height="14.513" viewBox="0 0 14.262 14.513">
    <g data-name="Group 33575">
        <path data-name="Path 73225" d="M-219.552 182.176a7.022 7.022 0 0 0-3.4 9.329 7.022 7.022 0 0 0 9.329 3.4 7.022 7.022 0 0 0 3.4-9.329 7.022 7.022 0 0 0-9.329-3.4z" transform="translate(223.827 -181.052)" style="fill:#ec8a14"/>
        <path data-name="Path 73226" d="M-212.123 181.632a7.025 7.025 0 0 0-7.645-2.953 7.054 7.054 0 0 0-1.195.431 7 7 0 0 0-3.76 4.343 6.991 6.991 0 0 0 .358 4.986 7.022 7.022 0 0 0 9.329 3.4 7.009 7.009 0 0 0 3.781-4.412 6.99 6.99 0 0 0-.379-4.915 6.985 6.985 0 0 0-.489-.88z" transform="translate(225.024 -178.452)" style="fill:#ffd62c"/>
        <path data-name="Path 73227" d="M-183.308 181.632c-1.348-.294-1.213 1.473-1.213 1.473-2.588.523-6.528-2.519-6.528-2.519 1.674-1.456.148-1.893.1-1.907a7.025 7.025 0 0 1 7.641 2.953z" transform="translate(196.209 -178.452)" style="fill:#ffef33"/>
        <path data-name="Path 73228" d="M-203.252 193.281a5.231 5.231 0 0 1-2.252 6.783c-.1.055-.207.108-.314.158a5.231 5.231 0 0 1-6.94-2.565 5.232 5.232 0 0 1 2.564-6.941c.107-.049.216-.095.324-.136a5.233 5.233 0 0 1 6.618 2.701z" transform="translate(215.029 -188.446)" style="fill:#d86c0b"/>
        <path data-name="Path 73229" d="M-199.688 193.281a5.231 5.231 0 0 1-2.252 6.783 5.231 5.231 0 0 1-6.616-2.7 5.232 5.232 0 0 1 2.25-6.783 5.233 5.233 0 0 1 6.618 2.7z" transform="translate(211.464 -188.446)" style="fill:#ffa81d"/>
        <path data-name="Path 73230" d="M-211.256 215.356a7.009 7.009 0 0 1-3.781 4.412 7.022 7.022 0 0 1-9.329-3.4 6.991 6.991 0 0 1-.358-4.986c-.145 3.02 1.243 7.091 5.648 7.886a7.3 7.3 0 0 0 7.82-3.912z" transform="translate(225.024 -206.378)" style="fill:#ffbf25"/>
    </g>
</svg>
