<svg xmlns="http://www.w3.org/2000/svg" width="26" height="26" viewBox="0 0 26 26">
    <g data-name="Group 30842">
        <g data-name="Rectangle 8792" style="stroke:#fff;fill:none">
            <rect width="26" height="26" rx="13" style="stroke:none"/>
            <rect x=".5" y=".5" width="25" height="25" rx="12.5" style="fill:none"/>
        </g>
        <g data-name="Group 25478">
            <path data-name="Path 61167" d="M-81.356 1067.043v3.548l.259 1.294.517 1.367.85 1.367.924.961.7.924-.333 1.441-.924.739h4.509l-1.109-1.035-.259-.665v-.48l.443-.628 1.072-1.072 1-1.257.554-1.922s.37-2.439.37-2.55v-2.033z" transform="translate(90.132 -1060.421)" style="fill:#fff"/>
            <g data-name="Group 25477">
                <path data-name="Path 61104" d="M106.8 36.837a8.346 8.346 0 0 0 1.294-1.675 3.684 3.684 0 0 0 3.3-3.664 1.971 1.971 0 0 0-1.971-1.971h-.172v-.986h.28v-.514H99.88v.514h.28v.986h-.172a1.971 1.971 0 0 0-1.972 1.973 3.683 3.683 0 0 0 3.3 3.663 8.348 8.348 0 0 0 1.293 1.675l.645.645a1.006 1.006 0 0 1 .295.711 1.006 1.006 0 0 1-.3.719l-.794.778a1.287 1.287 0 0 0-1.175 1.281v.428h6.858v-.428a1.287 1.287 0 0 0-1.175-1.281l-.795-.778a1.006 1.006 0 0 1-.008-1.431zm2.619-6.8a1.457 1.457 0 0 1 1.457 1.457 3.165 3.165 0 0 1-2.476 3.096 8.351 8.351 0 0 0 .846-3.659v-.889h.172zm-10.031 3.631a3.157 3.157 0 0 1-.858-2.168 1.457 1.457 0 0 1 1.457-1.457h.172v.89a8.35 8.35 0 0 0 .847 3.661 3.169 3.169 0 0 1-1.618-.925zm8.223 7.217h-5.819a.772.772 0 0 1 .767-.686h4.284a.772.772 0 0 1 .768.686zm-1.81-1.6.413.4h-3.026l.413-.405a1.521 1.521 0 0 0 .456-1.086 1.521 1.521 0 0 0-.445-1.075l-.645-.645a7.839 7.839 0 0 1-2.295-5.542v-2.391h8.056v2.39a7.839 7.839 0 0 1-2.3 5.543l-.645.645a1.521 1.521 0 0 0 .011 2.162z" transform="translate(-91.702 -21.713)" style="fill:#fff"/>
                <path data-name="Path 61059" d="M100.414 28a2.414 2.414 0 1 0 2.414 2.414A2.41 2.41 0 0 0 100.414 28zm1.212 2.639h-.987v.987a.228.228 0 0 1-.456 0v-.987H99.2a.228.228 0 0 1 0-.456h.987V29.2a.228.228 0 0 1 .456 0v.987h.987a.228.228 0 0 1-.004.452z" transform="translate(-87.414 -20.072)" style="fill:#c51b24"/>
            </g>
        </g>
    </g>
</svg>
