<svg xmlns="http://www.w3.org/2000/svg" width="9.528" height="12.783" viewBox="0 0 9.528 12.783">
    <g data-name="Group 1137">
        <path data-name="Path 1187" d="M74.472 108.522a.643.643 0 0 0 .643.616h6.005a.643.643 0 0 0 .643-.616l.429-9.054h-8.149zm5-6.805a.261.261 0 0 1 .261-.261h.418a.261.261 0 0 1 .261.261v5.173a.261.261 0 0 1-.261.261h-.418a.261.261 0 0 1-.261-.261zm-1.829 0a.261.261 0 0 1 .261-.261h.418a.261.261 0 0 1 .261.261v5.173a.261.261 0 0 1-.261.261h-.418a.261.261 0 0 1-.261-.261v-5.173zm-1.829 0a.261.261 0 0 1 .261-.261h.425a.261.261 0 0 1 .261.261v5.173a.261.261 0 0 1-.261.261h-.42a.261.261 0 0 1-.261-.261z" transform="translate(-73.354 -96.355)" style="fill:#fff"/>
        <path data-name="Path 1188" d="M61.14.659h-2.771V.135A.135.135 0 0 0 58.235 0h-2.91a.135.135 0 0 0-.135.135v.523h-2.77a.4.4 0 0 0-.4.4V2.33h9.528V1.062a.4.4 0 0 0-.408-.403z" transform="translate(-52.016)" style="fill:#fff"/>
    </g>
</svg>
