<svg xmlns="http://www.w3.org/2000/svg" width="37" height="37" viewBox="0 0 37 37">
    <g data-name="Group 32756" transform="translate(-30 -650)">
        <rect data-name="Rectangle 10645" width="37" height="37" rx="7" transform="translate(30 650)" style="fill:#ffdfdf"/>
        <g data-name="Group 32755">
            <path data-name="Path 66075" d="M203.554 13.711H192.76a1.739 1.739 0 0 0-1.737 1.733v20.428a1.74 1.74 0 0 0 1.737 1.737h10.794a1.74 1.74 0 0 0 1.737-1.737V15.444a1.739 1.739 0 0 0-1.737-1.733zm-6.425 1.255h2.055a.369.369 0 1 1 0 .739h-2.055a.369.369 0 1 1 0-.739zm1.03 21.3a.78.78 0 1 1 .78-.78.781.781 0 0 1-.781.777zm5.462-3.422h-10.928V16.959h10.927z" transform="translate(-149.704 642.823)" style="fill:#f51112"/>
            <g data-name="Group 32755">
                <path data-name="Path 66076" d="M122.608 16.532h.6v.6a.127.127 0 0 0 .255 0v-.6h.586a.127.127 0 0 0 0-.255h-.586v-.586a.127.127 0 0 0-.255 0v.586h-.6a.127.127 0 0 0 0 .255zm3.806 1.8h-.382v-.892a.638.638 0 0 0-.637-.637h-.535a1.572 1.572 0 1 0-3.042 0h-1.436a.892.892 0 0 0-.892.892v4.69a1.148 1.148 0 0 0 1.147 1.147h5.777a.638.638 0 0 0 .637-.637v-3.924a.638.638 0 0 0-.637-.637zm-3.076-3.246a1.319 1.319 0 0 1 1.23 1.789.128.128 0 0 0-.008.02 1.311 1.311 0 0 1-.607.672h-1.232a1.311 1.311 0 0 1-.607-.672.125.125 0 0 0-.008-.02 1.319 1.319 0 0 1 1.23-1.789zm-3.407 2.158a.633.633 0 0 1 .451-.187h1.526a1.558 1.558 0 0 0 .373.51h-.88a.127.127 0 0 0 0 .255h3.857a.127.127 0 0 0 0-.255h-.858a1.559 1.559 0 0 0 .373-.51h.626a.383.383 0 0 1 .382.382v.892h-5.4a.637.637 0 0 1-.451-1.088zm6.865 4.316H125.4a.629.629 0 1 1 0-1.257h1.4zm0-1.512H125.4a.884.884 0 1 0 0 1.767h1.4V22.9a.383.383 0 0 1-.382.382h-5.777a.893.893 0 0 1-.892-.892v-4.07a.89.89 0 0 0 .637.269h6.032a.383.383 0 0 1 .382.382zm-1.512.884a.127.127 0 1 0 .127-.127.127.127 0 0 0-.126.128z" transform="translate(-74.805 649.327)" style="fill:#f51112"/>
            </g>
        </g>
    </g>
</svg>
