<svg xmlns="http://www.w3.org/2000/svg" width="16.164" height="15.652" viewBox="0 0 16.164 15.652">
    <g data-name="Group 32591">
        <path data-name="Path 65806" d="M63.807 45.6h7.681l-1.048 1.048h-6.633a1.906 1.906 0 0 0-1.9 1.9v8.485a1.906 1.906 0 0 0 1.9 1.9h9.022a1.906 1.906 0 0 0 1.9-1.9v-6.148l1.048-1.048v7.194a2.954 2.954 0 0 1-2.947 2.947h-9.023a2.954 2.954 0 0 1-2.947-2.947v-8.485a2.954 2.954 0 0 1 2.947-2.946z" transform="translate(-60.86 -44.325)" style="fill:#e10413"/>
        <path data-name="Path 65807" d="M242.718 1.2 241.706.192a.609.609 0 0 0-.86 0l-1.223 1.223 1.872 1.873 1.223-1.223a.61.61 0 0 0 0-.865zm-3.737.853L232.238 8.8l-.737 2.61 2.609-.737 6.743-6.743z" transform="translate(-226.731 -.014)" style="fill-rule:evenodd;fill:#e10413"/>
    </g>
</svg>
