<svg xmlns="http://www.w3.org/2000/svg" xmlns:xlink="http://www.w3.org/1999/xlink" width="12.641" height="13.595" viewBox="0 0 12.641 13.595">
    <defs>
        <linearGradient id="1s783zqrsa" x1="-151.252" y1="-110.194" x2="-150.003" y2="-110.081" gradientUnits="objectBoundingBox">
            <stop offset="0" stop-color="#850000"/>
            <stop offset=".011" stop-color="#800"/>
            <stop offset=".02" stop-color="#910000"/>
            <stop offset=".028" stop-color="#a20000"/>
            <stop offset=".036" stop-color="#b90000"/>
            <stop offset=".043" stop-color="#d70000"/>
            <stop offset=".05" stop-color="#fc0000"/>
            <stop offset=".05" stop-color="red"/>
            <stop offset=".2" stop-color="#850000"/>
            <stop offset=".5" stop-color="#fc0000"/>
            <stop offset=".8" stop-color="#730000"/>
            <stop offset=".95" stop-color="#e30000"/>
            <stop offset="1" stop-color="#700000"/>
        </linearGradient>
        <linearGradient id="3uhqc22m8c" x1="-140.387" y1="-110.571" x2="-139.176" y2="-110.678" xlink:href="#1s783zqrsa"/>
        <linearGradient id="f9a4sezrvb" x1="-229.027" y1="-108.123" x2="-230.065" y2="-108.123" gradientUnits="objectBoundingBox">
            <stop offset="0" stop-color="#850000"/>
            <stop offset="1" stop-color="#120000"/>
        </linearGradient>
        <linearGradient id="8t659w956d" x1="-231.302" y1="-108.119" x2="-230.264" y2="-108.119" xlink:href="#f9a4sezrvb"/>
        <linearGradient id="mrcs6eg8je" x1="-39.921" y1="-117.222" x2="-38.917" y2="-117.286" xlink:href="#1s783zqrsa"/>
        <linearGradient id="c4vjy9rsbf" x1="-33.208" y1="-241.809" x2="-32.208" y2="-241.809" xlink:href="#f9a4sezrvb"/>
    </defs>
    <g data-name="Group 32809">
        <g data-name="Group 32800">
            <path data-name="Path 66926" d="m195.354 31.829.568.673.7-.541.416.777.793-.384.245.846.855-.211.064.879.881-.028-.12.873.867.155-.3.829.816.332-.465.748.729.495-.61.635.61.635-.729.495.465.748-.816.332.3.829-.867.155.12.873-.881-.028-.064.879-.855-.211-.245.846-.793-.384-.416.777-.7-.541-.568.673-.568-.673-.7.541-.416-.777-.793.384-.245-.846-.855.211-.064-.879-.881.028.12-.873-.867-.155.3-.829-.816-.332.465-.748-.729-.495.61-.635-.61-.635.729-.495-.465-.748.816-.332-.3-.829.867-.155-.12-.873.881.028.064-.879.855.211.245-.846.793.384.416-.777.7.541z" transform="translate(-189.034 -31.829)" style="fill:#e10413"/>
            <g data-name="Group 32799">
                <path data-name="Path 66928" d="M204.016 51.8a4.966 4.966 0 1 1 4.966-4.966 4.972 4.972 0 0 1-4.966 4.966zm0-9.726a4.76 4.76 0 1 0 4.76 4.76 4.765 4.765 0 0 0-4.76-4.758z" transform="translate(-197.696 -40.759)" style="fill:#fff"/>
            </g>
        </g>
        <g data-name="Group 32803">
            <g data-name="Group 32801">
                <path data-name="Path 66929" d="M222.589 84.652h.3l.077-.366h.181l-.076.366h.338l.076-.366h.181l-.076.366h.16v.182h-.2l-.06.289h.257v.177h-.295l-.075.363h-.182l.075-.363h-.338l-.076.363h-.183l.076-.363h-.161v-.181h.2l.061-.289h-.26zm.441.182-.06.289h.338l.06-.289z" transform="translate(-218.63 -78.297)" style="fill:#fff"/>
            </g>
            <g data-name="Group 32802">
                <path data-name="Path 66930" d="M225.511 57.763a.471.471 0 0 1 .276.32 8.49 8.49 0 0 1 .05 1.258v3.128h2.249V55.16h-1.325a4.087 4.087 0 0 1-2.477 1.443v1.051h.223a2.859 2.859 0 0 1 1.004.109z" transform="translate(-220.129 -52.541)" style="fill:#fff"/>
            </g>
        </g>
        <g data-name="Group 32808">
            <g data-name="Group 32805">
                <path data-name="Path 66931" d="M275.34 119.832v2.376a.055.055 0 0 0 0 .012c.065.291 2.358.238 2.8.445a.256.256 0 0 1 .037.021l-.519-1.5.521-.879c-.342-.234-2.846-.162-2.839-.475z" transform="translate(-265.541 -109.092)" style="fill:url(#1s783zqrsa)"/>
                <path data-name="Path 66932" d="M186.815 122.389c.373-.227 2.918-.144 2.918-.467v-2.376a.055.055 0 0 1 0 .02c-.113.3-2.472.22-2.9.436l-.018.01.47 1.061z" transform="translate(-186.815 -108.838)" style="fill:url(#3uhqc22m8c)"/>
                <path data-name="Path 66933" d="M274.968 115.625a.059.059 0 0 0 0 .018v2.376a.057.057 0 0 1 0-.018v-.006c.108-.245 1.748-.407 1.842-.479v-2.376a.021.021 0 0 1-.008.014 1.884 1.884 0 0 1-.443.1 8.841 8.841 0 0 0-1.142.235c-.05.011-.224.061-.249.136z" transform="translate(-265.208 -104.904)" style="fill:url(#f9a4sezrvb)"/>
                <path data-name="Path 66934" d="M197.513 117.2c0 .019.038.037.114.055.247.059 1.574.229 1.658.447a.059.059 0 0 1 0 .02v-2.376a.06.06 0 0 0 0-.02c-.052-.136-.587-.243-.717-.272a6.9 6.9 0 0 1-1.054-.231z" transform="translate(-196.329 -104.639)" style="fill:url(#8t659w956d)"/>
                <path data-name="Path 66935" d="M197.137 115.131a.019.019 0 0 1 0-.012.059.059 0 0 1 .013-.011 31.5 31.5 0 0 1 4.586-.252c1.156 0 5.9.052 5.905.309v-2.376c0-.394-7.938-.28-8.411-.261a9.814 9.814 0 0 0-2.1.227q.008 1.188.007 2.376z" transform="translate(-195.995 -102.569)" style="fill:url(#mrcs6eg8je)"/>
                <g data-name="Group 32804">
                    <path data-name="Path 66936" d="M193.038 133.8h.4a31.161 31.161 0 0 1 4.963.261c.112.037.091.073-.061.107a7.64 7.64 0 0 1-.332.058c-.537.087-1.436.234-1.4.414.036.165.779.22 1.5.273a4.645 4.645 0 0 1 1.343.193h-.04a4.618 4.618 0 0 0-1.32-.188c-.73-.054-1.485-.109-1.523-.279s.866-.331 1.408-.419c.148-.024.265-.043.328-.057.142-.032.161-.066.056-.1a31 31 0 0 0-4.918-.257h-.414a31.89 31.89 0 0 0-4.96.224c-.11.034-.1.068.04.1.061.014.174.034.318.059.528.092 1.411.245 1.34.429s-.829.22-1.567.268a4.94 4.94 0 0 0-1.35.179h-.039a4.97 4.97 0 0 1 1.373-.184c.726-.048 1.477-.1 1.541-.262.07-.181-.8-.333-1.328-.424a6.51 6.51 0 0 1-.323-.06c-.146-.035-.161-.071-.044-.108a31.976 31.976 0 0 1 5.009-.227z" transform="translate(-186.815 -121.512)" style="fill:url(#c4vjy9rsbf)"/>
                </g>
            </g>
            <g data-name="Group 32807">
                <g data-name="Group 32806">
                    <path data-name="Path 66937" d="m209.33 118.354-.116 1.232-.4.01q-.062-.282-.114-.642-.015.155-.072.647l-.4.011-.182-1.224.314-.01.046.428.045.414q.008-.322.065-.846l.335-.009q.008.054.045.4l.047.467q.016-.447.069-.875z" transform="translate(-205.701 -107.778)" style="fill:#f2f2f2"/>
                    <path data-name="Path 66938" d="m226.469 118.188.017 1.229h-.32l-.02-1.229z" transform="translate(-221.793 -107.63)" style="fill:#f2f2f2"/>
                    <path data-name="Path 66939" d="M236.914 118.083v1.23h-.28c-.067-.223-.1-.335-.169-.558v.559h-.267c0-.492-.006-.738-.009-1.229h.27l.183.553v-.554z" transform="translate(-230.728 -107.537)" style="fill:#f2f2f2"/>
                    <path data-name="Path 66940" d="M250.516 118.1c0 .492-.007.738-.012 1.23h-.28c-.065-.224-.1-.336-.163-.56v.559h-.267c0-.492 0-.738.005-1.23h.27l.177.555v-.554z" transform="translate(-242.821 -107.544)" style="fill:#f2f2f2"/>
                    <path data-name="Path 66941" d="m263.323 118.227.538.01v.246h-.215v.233h.2v.234h-.2v.27h.235v.246l-.554-.01c-.015-.491-.011-.737-.004-1.229z" transform="translate(-254.839 -107.665)" style="fill:#f2f2f2"/>
                    <path data-name="Path 66942" d="m275.078 118.474.228.006a1.734 1.734 0 0 1 .309.026.213.213 0 0 1 .129.093.4.4 0 0 1 .044.23.357.357 0 0 1-.042.192.189.189 0 0 1-.143.055.242.242 0 0 1 .126.067.189.189 0 0 1 .039.074 1.143 1.143 0 0 1 0 .182c0 .13-.006.195-.01.324l-.3-.009.012-.408a.282.282 0 0 0-.012-.123q-.015-.024-.081-.026l-.016.554-.32-.009c.018-.49.024-.736.037-1.228zm.317.219-.008.273a.143.143 0 0 0 .076-.013q.022-.014.024-.1v-.068a.1.1 0 0 0-.019-.077.121.121 0 0 0-.073-.015z" transform="translate(-265.282 -107.885)" style="fill:#f2f2f2"/>
                </g>
            </g>
        </g>
    </g>
</svg>
