<svg xmlns="http://www.w3.org/2000/svg" width="18" height="15.539" viewBox="0 0 18 15.539">
    <g data-name="Group 32418">
        <path data-name="Path 65410" d="M13.69 15.534h-.011a3.6 3.6 0 0 1-1.542-.354 5.007 5.007 0 0 1-2.531-3.24H8.389a5.343 5.343 0 0 1-1.625 2.649 3.764 3.764 0 0 1-2.448.95h-.011c-2.369 0-4.3-2.388-4.3-5.316s1.934-5.311 4.311-5.311h9.378c2.377 0 4.311 2.383 4.311 5.311s-1.934 5.312-4.311 5.312zM4.308 5.656c-2.04 0-3.7 2.053-3.7 4.567s1.662 4.567 3.7 4.567h.011a3.238 3.238 0 0 0 2.108-.815 4.654 4.654 0 0 0 1.455-2.509l.06-.27h2.116l.06.27a4.361 4.361 0 0 0 2.233 3.021 3.185 3.185 0 0 0 1.33.307h.011c2.044 0 3.7-2.053 3.7-4.567s-1.659-4.567-3.7-4.567H4.316z"/>
        <path data-name="Path 65411" d="M15.11 11.1a.9.9 0 1 1 .9-.9.9.9 0 0 1-.9.9zm0-1.194a.295.295 0 1 0 .295.295.3.3 0 0 0-.295-.294z"/>
        <path data-name="Path 65412" d="M12.011 11.1a.9.9 0 1 1 .9-.9.9.9 0 0 1-.9.9zm0-1.194a.295.295 0 1 0 .295.295.3.3 0 0 0-.295-.294z"/>
        <path data-name="Path 65413" d="M13.576 9.264a.9.9 0 1 1 .9-.9.9.9 0 0 1-.9.9zm0-1.19a.295.295 0 1 0 .295.295.3.3 0 0 0-.295-.295z"/>
        <path data-name="Path 65414" d="M13.576 12.978a.9.9 0 1 1 .9-.9.9.9 0 0 1-.9.9zm0-1.19a.295.295 0 1 0 .295.295.3.3 0 0 0-.295-.295z"/>
        <path data-name="Path 65415" d="M5.294 12.348H3.783a.3.3 0 0 1-.3-.3v-.809H2.61a.3.3 0 0 1-.3-.3V9.515a.3.3 0 0 1 .3-.3h.877v-.809a.3.3 0 0 1 .3-.3h1.511a.3.3 0 0 1 .3.3v.809h.877a.3.3 0 0 1 .3.3v1.424a.3.3 0 0 1-.3.3h-.877v.809a.306.306 0 0 1-.306.3zm-1.209-.6h.907v-.809a.3.3 0 0 1 .3-.3h.877v-.82h-.877a.3.3 0 0 1-.3-.3V8.71h-.907v.809a.3.3 0 0 1-.3.3h-.873v.82h.877a.3.3 0 0 1 .3.3v.809z"/>
        <path data-name="Path 65416" d="M11.581 5.518h-4.84a.321.321 0 0 1-.321-.321v-.948a.827.827 0 0 1 .827-.827h3.48a.853.853 0 0 1 .854.854zm-4.557-.6h3.952v-.639a.249.249 0 0 0-.249-.249h-3.48a.223.223 0 0 0-.223.223z"/>
        <path data-name="Path 65417" d="M8.362 4.025a.3.3 0 0 1-.291-.227 1.049 1.049 0 0 1 .147-1.054 1.15 1.15 0 0 1 .96-.219 1.182 1.182 0 0 0 .374-.008.357.357 0 0 0-.049-.419c-.2-.193-.571-.155-.873-.128s-.642.06-.782-.227c-.151-.31.132-.6.253-.722a10.292 10.292 0 0 1 1.19-.96.303.303 0 1 1 .355.491 10.9 10.9 0 0 0-1.028.809 1.575 1.575 0 0 1 1.311.3.942.942 0 0 1 .087 1.239.968.968 0 0 1-.88.223c-.193-.015-.412-.03-.487.045-.034.034-.068.17.011.476a.3.3 0 0 1-.215.366.362.362 0 0 1-.083.011z"/>
    </g>
</svg>
