<svg xmlns="http://www.w3.org/2000/svg" width="17.4" height="17.4" viewBox="0 0 17.4 17.4">
    <g data-name="Group 21315">
        <path data-name="Path 60585" d="M143 64.4a8.6 8.6 0 1 1-8.6 8.6 8.589 8.589 0 0 1 8.6-8.6zm0 .67a7.93 7.93 0 1 0 7.93 7.93 7.932 7.932 0 0 0-7.93-7.932z" transform="translate(-134.3 -64.298)" style="stroke:#fff;stroke-width:.2px;fill:#fff"/>
        <path data-name="Path 60586" d="M274.566 199.978c.223.447.089.581-.335.335l-4.914-2.993a.373.373 0 0 1 0-.692l4.914-2.993c.424-.246.581-.112.335.335l-1.5 2.814a.427.427 0 0 0 0 .4z" transform="translate(-263.61 -188.262)" style="fill:#fff"/>
    </g>
</svg>
