<svg xmlns="http://www.w3.org/2000/svg" width="37" height="37" viewBox="0 0 37 37">
    <g data-name="Group 31032" transform="translate(-29.375 -331.375)">
        <rect data-name="Rectangle 10528" width="37" height="37" rx="6" transform="translate(29.375 331.375)" style="fill:#8e9193;opacity:.1"/>
        <g data-name="Group 32420">
            <path data-name="Path 65420" d="M114.5 35a9.532 9.532 0 0 0-7.464 3.63l-.148-2.3a.453.453 0 1 0-.9.058l.23 3.612q0 .014.007.028a.439.439 0 0 0 .028.109.451.451 0 0 0 .027.057.445.445 0 0 0 .059.079.425.425 0 0 0 .06.053.367.367 0 0 0 .04.035c.01.006.022.006.033.011a.424.424 0 0 0 .087.03.467.467 0 0 0 .078.015c.011 0 .021.006.032.006h3.31a.452.452 0 1 0 0-.9H107.5a8.586 8.586 0 1 1-1.59 4.973.452.452 0 1 0-.9 0 9.5 9.5 0 1 0 9.5-9.5z" transform="translate(-66.632 305.375)" style="fill:#021544;stroke:#021544;stroke-width:.2px"/>
            <path data-name="Path 65421" d="M338.784 151.668a.452.452 0 0 0-.452.452v4.522a.452.452 0 0 0 .181.362l3.617 2.713a.452.452 0 1 0 .543-.723l-3.436-2.577v-4.3a.452.452 0 0 0-.452-.452z" transform="translate(-290.915 193.229)" style="fill:#021544;stroke:#021544;stroke-width:.2px"/>
        </g>
    </g>
</svg>
