<svg xmlns="http://www.w3.org/2000/svg" width="37" height="37" viewBox="0 0 37 37">
    <g data-name="Group 32586" transform="translate(-30 -482)">
        <rect data-name="Rectangle 10528" width="37" height="37" rx="6" transform="translate(30 482)" style="fill:#8e9193;opacity:.1"/>
        <g data-name="Group 27217">
            <path data-name="Path 64152" d="M199.708 90.3a2.59 2.59 0 1 0-2.59-2.59 2.6 2.6 0 0 0 2.59 2.59zm0-4.238a1.648 1.648 0 1 1-1.648 1.648 1.653 1.653 0 0 1 1.648-1.652z" transform="translate(-153.892 407.552)" style="fill:#021544"/>
            <path data-name="Path 64153" d="M89.049 22.326v-6.734a.472.472 0 0 0-.471-.471h-15.3a.472.472 0 0 0-.471.471v15.234a.472.472 0 0 0 .471.471h7.888a7.535 7.535 0 1 0 7.888-8.971zm-15.3 8.029V16.063h14.358v6.263a7.6 7.6 0 0 0-4.168 1.574 2.854 2.854 0 0 0-1.554-.636.434.434 0 0 0-.306.094 2.647 2.647 0 0 1-1.483.4H80.5a2.733 2.733 0 0 1-1.483-.4.54.54 0 0 0-.33-.094 3.019 3.019 0 0 0-1.884.942 3.436 3.436 0 0 0-.918 2.284v.636h.942v-.636a2.312 2.312 0 0 1 .659-1.648 2.249 2.249 0 0 1 1.154-.636 4 4 0 0 0 3.767 0 1.9 1.9 0 0 1 .777.33A7.59 7.59 0 0 0 81 29.861a3.488 3.488 0 0 0 .023.495zm14.834 6.1a6.593 6.593 0 1 1 6.593-6.593 6.6 6.6 0 0 1-6.598 6.592z" transform="translate(-34.802 474.604)" style="stroke:#8e9193;stroke-width:.2px;fill:#021544"/>
            <path data-name="Path 64154" d="m350.814 294.848-4.968 4.356-1.766-1.813a.466.466 0 0 0-.659.659l2.1 2.119a.465.465 0 0 0 .33.141.5.5 0 0 0 .306-.118l5.3-4.639a.478.478 0 0 0 .047-.659.509.509 0 0 0-.683-.047z" transform="translate(-293.907 206.745)" style="stroke:#8e9193;stroke-width:.2px;fill:#021544"/>
        </g>
    </g>
</svg>
