<svg xmlns="http://www.w3.org/2000/svg" width="37" height="37" viewBox="0 0 37 37">
    <g data-name="Group 32595" transform="translate(-28 -203)">
        <rect data-name="Rectangle 10528" width="37" height="37" rx="6" transform="translate(28 203)" style="fill:#fce8e8"/>
        <g data-name="Group 32594">
            <path data-name="Path 65808" d="M174.982 226.61v.21a1.469 1.469 0 0 0 1.469 1.469h5.456a1.469 1.469 0 0 0 1.469-1.469v-.21a3.27 3.27 0 0 0-2.376-3.222 2.728 2.728 0 1 0-3.643 0 3.27 3.27 0 0 0-2.376 3.221zm4.2-7.135a1.889 1.889 0 1 1-1.336.553 1.89 1.89 0 0 1 1.333-.554zm-.839 4.617h1.679a2.464 2.464 0 0 1 2.518 2.518v.21a.63.63 0 0 1-.63.63h-5.456a.63.63 0 0 1-.63-.63v-.21a2.464 2.464 0 0 1 2.518-2.518z" transform="translate(-137.463 .921)" style="fill:#f51112"/>
            <path data-name="Path 65809" d="M142.227 165.48a.42.42 0 0 0-.42.42v5.247a.63.63 0 0 1-.63.63h-17.208a.63.63 0 0 1-.63-.63v-12.173a.63.63 0 0 1 .63-.63h9.231a.42.42 0 1 0 0-.839h-9.234a1.469 1.469 0 0 0-1.469 1.469v12.172a1.469 1.469 0 0 0 1.469 1.469h17.209a1.469 1.469 0 0 0 1.469-1.469V165.9a.42.42 0 0 0-.42-.42z" transform="translate(-87.5 59.113)" style="fill:#f51112"/>
            <path data-name="Path 65810" d="m426.476 157.912-2.64 2.64-1.662-1.662a.42.42 0 0 0-.594.594l1.958 1.958a.418.418 0 0 0 .594 0l2.938-2.938a.42.42 0 0 0-.594-.592z" transform="translate(-372.115 58.83)" style="fill:#f51112"/>
            <path data-name="Path 65811" d="M383.445 63.637a.42.42 0 0 0-.382-.373 8.46 8.46 0 0 1-2.321-.646 8.237 8.237 0 0 1-2.109-1.278.42.42 0 0 0-.567 0 8.216 8.216 0 0 1-2.109 1.278 8.473 8.473 0 0 1-2.309.646.42.42 0 0 0-.384.373c-.019.178-.439 4.369.6 6.439a10.079 10.079 0 0 0 4.321 3.918.419.419 0 0 0 .353 0 10.081 10.081 0 0 0 4.321-3.918c1.026-2.069.606-6.26.588-6.439zM382.1 69.7a9.12 9.12 0 0 1-3.746 3.444A9.122 9.122 0 0 1 374.6 69.7c-.772-1.545-.617-4.636-.542-5.647a9.919 9.919 0 0 0 2.225-.663 9.534 9.534 0 0 0 2.063-1.2 9.538 9.538 0 0 0 2.063 1.2 9.919 9.919 0 0 0 2.225.663c.081 1.011.236 4.102-.534 5.647z" transform="translate(-326.14 150.771)" style="fill:#f51112"/>
            <path data-name="Path 65812" d="M385.42 403.339h4.2a.42.42 0 1 0 0-.839h-4.2a.42.42 0 1 0 0 .839z" transform="translate(-337.408 -174.13)" style="fill:#f51112"/>
            <path data-name="Path 65813" d="M385.42 350.839h2.518a.42.42 0 1 0 0-.839h-2.518a.42.42 0 1 0 0 .839z" transform="translate(-337.408 -124.148)" style="fill:#f51112"/>
        </g>
    </g>
</svg>
