<svg xmlns="http://www.w3.org/2000/svg" width="18.633" height="20.751" viewBox="0 0 18.633 20.751">
    <g data-name="Group 32404">
        <path data-name="Path 60740" d="M215.082 80.164a5.082 5.082 0 1 1 5.082-5.082 5.1 5.1 0 0 1-5.082 5.082zm0-9.317a4.235 4.235 0 1 0 4.235 4.235 4.247 4.247 0 0 0-4.235-4.235z" transform="translate(-207.459 -70)" style="fill:#e10413"/>
        <path data-name="Path 60741" d="M165.123 296.8H157.5v-.423a7.645 7.645 0 0 1 7.623-7.623.423.423 0 1 1 0 .847 6.775 6.775 0 0 0-6.776 6.352h6.776a.423.423 0 1 1 0 .847z" transform="translate(-157.5 -278.163)" style="fill:#e10413"/>
        <path data-name="Path 60742" d="M358.046 282.261h-6.776a1.248 1.248 0 0 1-1.27-1.27v-8.47a1.248 1.248 0 0 1 1.27-1.27h6.776a1.248 1.248 0 0 1 1.27 1.27v8.47a1.248 1.248 0 0 1-1.27 1.27zM351.27 272.1a.4.4 0 0 0-.423.423v8.47a.4.4 0 0 0 .423.423h6.776a.4.4 0 0 0 .423-.423v-8.47a.4.4 0 0 0-.423-.423z" transform="translate(-340.683 -261.51)" style="fill:#e10413"/>
        <path data-name="Path 60743" d="M406.311 313.873h-2.541a1.248 1.248 0 0 1-1.27-1.27v-.423a.423.423 0 1 1 .847 0v.423a.4.4 0 0 0 .423.423h2.541a.4.4 0 0 0 .423-.423v-5.083a.4.4 0 0 0-.423-.423h-2.541a.4.4 0 0 0-.423.423v.381a.423.423 0 0 1-.847 0v-.381a1.248 1.248 0 0 1 1.27-1.27h2.541a1.248 1.248 0 0 1 1.27 1.27v5.08a1.248 1.248 0 0 1-1.27 1.273z" transform="translate(-390.642 -294.816)" style="fill:#e10413"/>
        <path data-name="Path 60744" d="M387.964 377.1h-2.541a.423.423 0 1 1 0-.847h2.541a.423.423 0 0 1 0 .847z" transform="translate(-373.99 -361.428)" style="fill:#e10413"/>
        <path data-name="Path 60745" d="M428.6 353.648a.6.6 0 0 1-.254-.085.417.417 0 0 1-.127-.593l.678-1.016-.678-1.016a.429.429 0 1 1 .72-.466l.847 1.27a.459.459 0 0 1 0 .466l-.847 1.27a.523.523 0 0 1-.339.17z" transform="translate(-415.05 -336.709)" style="fill:#e10413"/>
    </g>
</svg>
