<svg xmlns="http://www.w3.org/2000/svg" width="16.599" height="16.598" viewBox="0 0 16.599 16.598">
    <g data-name="Group 32465">
        <path data-name="Path 65466" d="M10.604 12.91a.461.461 0 0 0-.461.461v2.305H.922V.922h9.221v2.305a.461.461 0 0 0 .922 0V.461A.461.461 0 0 0 10.604 0H.461A.461.461 0 0 0 0 .461v15.676a.461.461 0 0 0 .461.461h10.143a.461.461 0 0 0 .461-.461V13.37a.461.461 0 0 0-.461-.461z"/>
        <path data-name="Path 65467" d="m16.432 7.942-2.766-2.305a.462.462 0 0 0-.59.71l1.789 1.489H6.92a.461.461 0 0 0 0 .922h7.949l-1.789 1.489a.462.462 0 0 0 .59.71l2.766-2.305a.461.461 0 0 0 0-.71z"/>
    </g>
</svg>
