<svg xmlns="http://www.w3.org/2000/svg" width="16.14" height="16.14" viewBox="0 0 16.14 16.14">
    <g data-name="Group 30831">
        <path data-name="Path 65446" d="M128.018 56A2.018 2.018 0 0 0 126 58.018v3.026a2.018 2.018 0 0 0 2.018 2.018h3.026a2.018 2.018 0 0 0 2.018-2.018v-3.026A2.018 2.018 0 0 0 131.044 56zm0 9.079A2.018 2.018 0 0 0 126 67.1v3.026a2.018 2.018 0 0 0 2.018 2.018h3.026a2.018 2.018 0 0 0 2.018-2.018V67.1a2.018 2.018 0 0 0-2.018-2.018zm7.061-7.061A2.018 2.018 0 0 1 137.1 56h3.026a2.018 2.018 0 0 1 2.018 2.018v3.026a2.018 2.018 0 0 1-2.018 2.018H137.1a2.018 2.018 0 0 1-2.018-2.018zm2.018 7.061a2.018 2.018 0 0 0-2.018 2.018v3.026a2.018 2.018 0 0 0 2.021 2.017h3.026a2.017 2.017 0 0 0 2.018-2.018V67.1a2.018 2.018 0 0 0-2.018-2.018z" transform="translate(-126 -56)" style="fill:#8e9193;fill-rule:evenodd"/>
    </g>
</svg>
