<svg xmlns="http://www.w3.org/2000/svg" width="23.574" height="18" viewBox="0 0 23.574 18">
    <g data-name="Group 30832">
        <path data-name="Path 65400" d="M313.416 130.833h.5a.16.16 0 0 1 .149.149l-.074 1.39a.4.4 0 0 0 .745.223l1.514-2.458a.4.4 0 0 0-.348-.621h-.5a.16.16 0 0 1-.149-.149l.074-1.39a.4.4 0 0 0-.745-.223l-1.514 2.458a.42.42 0 0 0 .348.621z" transform="translate(-302.867 -125.297)" style="fill:#8e9193"/>
        <path data-name="Path 65401" d="M96.7 170.99a2.433 2.433 0 1 1-2.433-2.433 2.433 2.433 0 0 1 2.433 2.433" transform="translate(-91.493 -164.485)" style="fill:#8e9193"/>
        <path data-name="Path 65402" d="m91.2 295.595 2.656-1.366a1.11 1.11 0 0 0-.993-1.986l-2.085 1.068s-1.142-.795-1.514-1.068a6 6 0 0 0-1.589-.943c-.745-.248-2.632-.422-3.153.819-.571 1.316-.472 4.717-.447 7.125a.346.346 0 0 0 .348.372h4c.248 0 .323-.124.348-.323.025-.124.248-2.88.223-4.072v-.421l1.067.72a1.107 1.107 0 0 0 1.142.075z" transform="translate(-84.053 -281.617)" style="fill:#8e9193"/>
        <path data-name="Path 65403" d="M503.264 170.99a2.433 2.433 0 1 1-2.433-2.433 2.433 2.433 0 0 1 2.433 2.433" transform="translate(-480.028 -164.485)" style="fill:#8e9193"/>
        <path data-name="Path 65404" d="M390.917 291.752c-.521-1.241-2.433-1.092-3.153-.844a6.457 6.457 0 0 0-1.589.944c-.372.273-1.514 1.067-1.514 1.067l-2.085-1.043a1.11 1.11 0 1 0-.993 1.986l2.657 1.366a1.13 1.13 0 0 0 .5.124 1.087 1.087 0 0 0 .621-.2l1.068-.72v.422c-.025 1.217.223 3.948.223 4.072a.32.32 0 0 0 .348.323h4a.345.345 0 0 0 .348-.372c.05-2.408.149-5.81-.422-7.125z" transform="translate(-367.805 -281.25)" style="fill:#8e9193"/>
        <path data-name="Path 65405" d="M241.474 444.64h-8.789a.844.844 0 1 0 0 1.688h8.789a.844.844 0 0 0 0-1.688z" transform="translate(-225.289 -428.328)" style="fill:#8e9193"/>
        <path data-name="Path 65406" d="M245.106 86.452a4.866 4.866 0 1 0-4.866-4.866 4.874 4.874 0 0 0 4.866 4.866zm0-8.466a3.612 3.612 0 1 1-3.6 3.625 3.6 3.6 0 0 1 3.6-3.625z" transform="translate(-233.315 -76.72)" style="fill:#8e9193"/>
    </g>
</svg>
