<svg xmlns="http://www.w3.org/2000/svg" width="11.443" height="13.272" viewBox="0 0 11.443 13.272">
    <path data-name="Path 60771" d="M122.582 12.017a.2.2 0 0 1 .2-.2 2.769 2.769 0 0 1 2.758 2.758.2.2 0 1 1-.408 0 2.352 2.352 0 0 0-2.349-2.349.2.2 0 0 1-.2-.2zm.2-.968a3.526 3.526 0 0 0-3.522 3.522V17.1a2.16 2.16 0 0 1-.26 1.053h7.57a2.158 2.158 0 0 1-.263-1.058V14.57a3.526 3.526 0 0 0-3.522-3.522zm0-1.624a.517.517 0 1 1-.365.152.517.517 0 0 1 .365-.152zm5.2 9.571a.434.434 0 0 1-.434.434h-9.539a.434.434 0 1 1 0-.868h9.539a.435.435 0 0 1 .434.434zm-5.2 2.674a1.887 1.887 0 0 1-1.883-1.833h3.767a1.887 1.887 0 0 1-1.883 1.833zm-3.93-7.1v2.53a1.753 1.753 0 0 1-.247.924l-.077.134h-.515a.842.842 0 1 0 0 1.684h2.477a2.293 2.293 0 0 0 4.584 0h2.477a.842.842 0 0 0 0-1.684h-.515l-.077-.134a1.752 1.752 0 0 1-.247-.924v-2.53a3.945 3.945 0 0 0-3.376-3.891.924.924 0 1 0-1.11 0 3.945 3.945 0 0 0-3.375 3.891z" transform="translate(-117.063 -8.916)" style="fill:#8e9193;stroke:#8e9193;stroke-width:.2px;fill-rule:evenodd"/>
</svg>
