<svg xmlns="http://www.w3.org/2000/svg" width="26" height="26" viewBox="0 0 26 26">
    <g data-name="Group 30739">
        <g data-name="Group 25419">
            <g data-name="Group 25417">
                <path data-name="Path 60812" d="M293.592 460.785a1.846 1.846 0 0 0 1.834-1.587h-3.668a1.846 1.846 0 0 0 1.834 1.587z" transform="translate(-280.551 -440.285)" style="fill:#fff"/>
                <path data-name="Path 60813" d="M162.936 55.734a1.859 1.859 0 0 1-.212-.176h-7.194a.353.353 0 0 1 0-.705h6.648a4.209 4.209 0 0 1-.406-1.411h-.159a3.438 3.438 0 0 1-1.94-6.277 5.278 5.278 0 0 0-.829-.423 1.258 1.258 0 0 0 .035-.353 1.587 1.587 0 1 0-3.174 0 2.16 2.16 0 0 0 .035.353 4.2 4.2 0 0 0-2.786 4.25c0 3.156-.705 4.3-1.3 4.726a.98.98 0 0 0-.441.811.967.967 0 0 0 .97.97h10.209a.967.967 0 0 0 .97-.97.956.956 0 0 0-.423-.793zm-5.643-10.227a.873.873 0 0 1 .882.882.345.345 0 0 1-.018.141 3.757 3.757 0 0 0-1.746 0c0-.053-.018-.088-.018-.141a.9.9 0 0 1 .9-.882zm-2.927 9.945a.348.348 0 0 1-.247.106h-.07c-.018 0-.053-.018-.07-.018s-.035-.018-.053-.035-.035-.035-.053-.035a.422.422 0 0 1-.106-.264v-.07c0-.018.018-.053.018-.07s.018-.035.035-.053.018-.035.035-.053.035-.035.053-.035c.018-.018.035-.018.053-.035.018 0 .035-.018.07-.018a.42.42 0 0 1 .317.088c.018.018.035.035.035.053.018.018.018.035.035.053s.018.035.018.07v.07a.226.226 0 0 1-.07.247z" transform="translate(-144.428 -38.936)" style="fill:#fff"/>
            </g>
            <g data-name="Group 25418" transform="translate(14.331 8.176)">
                <ellipse data-name="Ellipse 2791" cx="2.838" cy="2.818" rx="2.838" ry="2.818" style="fill:#fff"/>
                <path data-name="Path 60854" d="M-2.3-5.4v-.382q.312-.36.525-.622t.347-.461a1.708 1.708 0 0 0 .2-.374 1.064 1.064 0 0 0 .053-.361.7.7 0 0 0-.125-.463.437.437 0 0 0-.345-.137h-.615v-.229a1.6 1.6 0 0 1 .286-.062 2.868 2.868 0 0 1 .4-.026.884.884 0 0 1 .663.217.965.965 0 0 1 .22.7 1.115 1.115 0 0 1-.081.415A2.35 2.35 0 0 1-1-6.756a5.725 5.725 0 0 1-.354.472q-.207.25-.457.545H-.7v.339z" transform="translate(4.335 9.778)" style="fill:#f51112"/>
            </g>
        </g>
        <g data-name="Rectangle 8792" style="stroke:#fff;fill:none">
            <rect width="26" height="26" rx="13" style="stroke:none"/>
            <rect x=".5" y=".5" width="25" height="25" rx="12.5" style="fill:none"/>
        </g>
    </g>
</svg>
