<svg xmlns="http://www.w3.org/2000/svg" width="18" height="21.316" viewBox="0 0 18 21.316">
    <g data-name="Group 32422">
        <path data-name="Path 65423" d="M.002 16.105a2.123 2.123 0 0 0 2.132 2.132H6.16v.237a2.842 2.842 0 1 0 5.684 0v-.237h4.026a2.135 2.135 0 0 0 .474-4.216V9.758a7.121 7.121 0 0 0-5.187-6.869 2 2 0 0 0 .095-.64 2.25 2.25 0 0 0-4.5 0 2 2 0 0 0 .095.64A7.121 7.121 0 0 0 1.66 9.758v4.263a2.135 2.135 0 0 0-1.658 2.084zm9 4.263a1.9 1.9 0 0 1-1.895-1.895.808.808 0 0 1 .024-.237h3.742c0 .071.024.166.024.237a1.9 1.9 0 0 1-1.895 1.895zm0-19.421a1.314 1.314 0 0 1 1.3 1.3 1.339 1.339 0 0 1-.071.426 57.952 57.952 0 0 0-.663-.071H8.432a3.154 3.154 0 0 0-.663.071 1.34 1.34 0 0 1-.071-.426 1.314 1.314 0 0 1 1.3-1.3zm-6.4 8.811a6.1 6.1 0 0 1 1.682-4.24 6.183 6.183 0 0 1 4.524-1.966h.4a6.292 6.292 0 0 1 4.524 1.942 6.146 6.146 0 0 1 1.682 4.24v4.24H2.602zm-.474 5.163h13.737a1.184 1.184 0 1 1 0 2.368H2.132a1.184 1.184 0 0 1 0-2.368z"/>
    </g>
</svg>
