<svg xmlns="http://www.w3.org/2000/svg" xmlns:xlink="http://www.w3.org/1999/xlink" width="129.616" height="131.923" viewBox="0 0 129.616 131.923">
    <defs>
        <linearGradient id="kbzv0xbqia" x1=".294" y1=".988" x2=".959" y2="-.074" gradientUnits="objectBoundingBox">
            <stop offset=".004" stop-color="#e38ddd"/>
            <stop offset="1" stop-color="#9571f6"/>
        </linearGradient>
        <linearGradient id="onjffbthdb" y1=".5" x2="1" y2=".5" gradientUnits="objectBoundingBox">
            <stop offset="0" stop-color="#ff9085"/>
            <stop offset="1" stop-color="#fb6fbb"/>
        </linearGradient>
        <linearGradient id="vdua3h5l4c" x1="7.963" y1="-1.493" x2="-21.255" y2="78.646" gradientUnits="objectBoundingBox">
            <stop offset="0" stop-color="#ffc444"/>
            <stop offset=".996" stop-color="#f36f56"/>
        </linearGradient>
        <linearGradient id="y52ihsjd1e" x1="11.823" y1="9.874" x2="10.754" y2="10.943" gradientUnits="objectBoundingBox">
            <stop offset="0" stop-color="#311944"/>
            <stop offset="1" stop-color="#893976"/>
        </linearGradient>
        <linearGradient id="98gckrj2rj" x1=".165" y1=".812" x2="1.048" y2="-.012" xlink:href="#onjffbthdb"/>
        <linearGradient id="50mxgcgtck" x1="-16.293" y1=".03" x2="-12.978" y2="1.813" xlink:href="#vdua3h5l4c"/>
        <linearGradient id="jzlv9p3pjd" x1="-.018" y1="-.747" x2="-.029" y2="-7.554" gradientUnits="objectBoundingBox">
            <stop offset="0" stop-color="#aa80f9"/>
            <stop offset=".996" stop-color="#6165d7"/>
        </linearGradient>
        <linearGradient id="39jhwlgecl" x1="-102.867" y1="6.866" x2="-102.805" y2="2.569" xlink:href="#vdua3h5l4c"/>
        <linearGradient id="0j1ja0umkm" x1="3.492" y1="-1.686" x2="3.481" y2="-8.493" xlink:href="#jzlv9p3pjd"/>
        <linearGradient id="308wfgdrin" x1="-90.933" y1="5.801" x2="-90.871" y2="1.504" xlink:href="#vdua3h5l4c"/>
        <linearGradient id="u9zyfm2amo" x1=".873" y1=".162" x2="1.494" y2=".831" xlink:href="#y52ihsjd1e"/>
        <linearGradient id="ugwolobdmp" x1="-18.944" y1=".686" x2="-17.915" y2=".686" xlink:href="#y52ihsjd1e"/>
        <linearGradient id="c4c0gz3onq" x1="-13.534" y1=".668" x2="-12.325" y2=".668" xlink:href="#y52ihsjd1e"/>
        <linearGradient id="zaz14g8prf" x1="-5.32" y1="2.38" x2="-4.922" y2="4.203" gradientUnits="objectBoundingBox">
            <stop offset="0" stop-color="#f51112"/>
            <stop offset=".996" stop-color="#6165d7"/>
            <stop offset="1" stop-color="#6165d7"/>
        </linearGradient>
        <linearGradient id="9cqq6oas2r" x1="-5.232" y1="1.851" x2="-6.56" y2=".39" xlink:href="#zaz14g8prf"/>
        <linearGradient id="h67dc0ow0s" x1="7.79" y1="-2.638" x2="6.634" y2="1.127" xlink:href="#vdua3h5l4c"/>
        <linearGradient id="op2wig35et" x1="-25.08" y1="27.059" x2="-25.08" y2="25.663" xlink:href="#vdua3h5l4c"/>
        <linearGradient id="mvdtuuruou" x1="-31.093" y1="3.163" x2="-31.81" y2="1.576" gradientUnits="objectBoundingBox">
            <stop offset="0" stop-color="#444b8c"/>
            <stop offset=".996" stop-color="#3e4177"/>
        </linearGradient>
        <linearGradient id="02yc4mc8tv" x1="-65.717" y1="50.281" x2="-64.589" y2="47.905" xlink:href="#vdua3h5l4c"/>
        <linearGradient id="0cgtmsd62g" y1=".5" x2="1" y2=".5" gradientUnits="objectBoundingBox">
            <stop offset=".004" stop-color="#f36f56"/>
            <stop offset="1" stop-color="#ffc444"/>
        </linearGradient>
        <linearGradient id="9fthwdsxvw" x1=".583" y1="-.668" x2=".196" y2="4.766" xlink:href="#0cgtmsd62g"/>
        <linearGradient id="a9zathy68x" x1=".435" y1="-1.462" x2=".566" y2="2.496" xlink:href="#0cgtmsd62g"/>
        <clipPath id="7ebf1laorh">
            <path data-name="Path 60748" d="M1446.6 786.928a10.648 10.648 0 0 0-5.744-2.07c-13.743-.974-15.749 27.753-13.642 34.173s.742 8.528-10.082 11.887-5.631 9.826-4.312 13.608 3.932 6.977-3.959 10.735-5.148 6.086-5.148 6.086 14.551 14.884 13.747 10.119.652-11.961 13.7-12.508c5.619-.235 14.225-2.916 16.13-8.933a10.828 10.828 0 0 0 .415-4.991c-.468-2.012-1.789-3.6-2.522-5.49-1.709-4.412 2.577-7.644 5.043-10.593a32.82 32.82 0 0 0 3.56-4.874c2.047-3.645 1.281-7.553-.948-10.913-1.069-1.611-2.554-3.32-3.02-5.242-.5-2.064-.064-4.884.055-7.008a44.468 44.468 0 0 0 .158-4.994c-.174-3.107-.901-6.901-3.431-8.992z" transform="translate(-1403.253 -784.834)" style="fill:url(#kbzv0xbqia)"/>
        </clipPath>
        <clipPath id="fdbuvzz0ui">
            <path data-name="Path 60755" d="M1250.729 1633.1a10.645 10.645 0 0 0-4.7-3.891c-12.6-5.567-24.211 20.787-24.4 27.541s-2.188 8.276-13.51 7.774-8.624 7.341-8.662 11.346 1.339 7.9-7.358 8.762-6.9 3.985-6.9 3.985 8.656 18.93 9.513 14.174 4.661-11.035 17.123-7.135c5.367 1.68 14.372 2.069 18.2-2.948a10.836 10.836 0 0 0 2.079-4.557c.24-2.052-.466-3.99-.516-6.02-.115-4.73 5.011-6.321 8.33-8.262a32.85 32.85 0 0 0 5-3.382c3.159-2.737 3.761-6.675 2.8-10.59-.461-1.878-1.28-3.989-1.068-5.955.227-2.112 1.592-4.618 2.423-6.576a44.548 44.548 0 0 0 1.839-4.646c.878-2.978 1.478-6.794-.193-9.62z" transform="translate(-1185.037 -1628.444)" style="fill:url(#onjffbthdb)"/>
        </clipPath>
    </defs>
    <g data-name="Group 27279">
        <path data-name="Path 60741" d="M-21.569 651.795c-1.428-17.6-2.141-26.4-5.464-32.1-9.513-16.3-37.172-20.181-54.64-18.694-23.386 1.99-50.14 15.434-61.916 41.391-10.7 23.576-5.764 50.263 10.353 67.72 29.544 32 90.488 26.288 105.376 5.289 5.941-8.38 6.37-21.766 7-41.428a187.385 187.385 0 0 0-.709-22.178z" style="fill:#f2f2f2" transform="translate(149.273 -600.712)"/>
        <g data-name="Group 27262">
            <g data-name="Group 27252">
                <g data-name="Group 27251">
                    <path data-name="Path 60742" d="M1446.6 786.928a10.648 10.648 0 0 0-5.744-2.07c-13.743-.974-15.749 27.753-13.642 34.173s.742 8.528-10.082 11.887-5.631 9.826-4.312 13.608 3.932 6.977-3.959 10.735-5.148 6.086-5.148 6.086 14.551 14.884 13.747 10.119.652-11.961 13.7-12.508c5.619-.235 14.225-2.916 16.13-8.933a10.828 10.828 0 0 0 .415-4.991c-.468-2.012-1.789-3.6-2.522-5.49-1.709-4.412 2.577-7.644 5.043-10.593a32.82 32.82 0 0 0 3.56-4.874c2.047-3.645 1.281-7.553-.948-10.913-1.069-1.611-2.554-3.32-3.02-5.242-.5-2.064-.064-4.884.055-7.008a44.468 44.468 0 0 0 .158-4.994c-.174-3.107-.901-6.901-3.431-8.992z" transform="translate(-1330.105 -776.159)" style="fill:#ffacad"/>
                    <g data-name="Group 27250" style="clip-path:url(#7ebf1laorh)" transform="translate(73.148 8.675)">
                        <g data-name="Group 27249" style="isolation:isolate;mix-blend-mode:soft-light;opacity:.8">
                            <g data-name="Group 27244">
                                <path data-name="Path 60743" d="M1383.255 797.405a.2.2 0 0 1-.162-.371 98.059 98.059 0 0 0 13.021-8.561c6.3-4.89 14.5-12.6 17.822-21.564 2.774-7.486 5.3-19.862 6.941-33.954 1.468-12.637 1.7-21.983 1.076-23.718a.2.2 0 1 1 .382-.138c.73 2.029.267 12.529-1.055 23.9-1.641 14.123-4.179 26.533-6.963 34.049-3.355 9.055-11.618 16.825-17.959 21.749a98.465 98.465 0 0 1-13.076 8.6z" transform="translate(-1383.938 -712.539)" style="fill:#fff"/>
                            </g>
                            <g data-name="Group 27245">
                                <path data-name="Path 60744" d="M1941.1 916a.182.182 0 0 1-.251-.1c-.051-.139-5.174-13.923-11.781-17.035a.2.2 0 0 1-.095-.264.2.2 0 0 1 .272-.094c6.758 3.183 11.775 16.678 11.985 17.252a.183.183 0 0 1-.129.237z" transform="translate(-1904.182 -893.136)" style="fill:#fff"/>
                            </g>
                            <g data-name="Group 27246">
                                <path data-name="Path 60745" d="M2128.224 1412.99a.2.2 0 0 1-.2-.348 64.443 64.443 0 0 1 8.464-5.722c6.289-3.508 11.108-4.488 14.324-2.911a.2.2 0 1 1-.179.365c-7.4-3.628-22.2 8.459-22.351 8.581a.2.2 0 0 1-.058.035z" transform="translate(-2093.808 -1374.141)" style="fill:#fff"/>
                            </g>
                            <g data-name="Group 27247">
                                <path data-name="Path 60746" d="M1583.952 1750.609a.2.2 0 0 1-.066.012.2.2 0 0 1-.206-.2 77.48 77.48 0 0 0-1.343-12.2c-1.135-5.713-3.479-12.87-8.2-14.519a.2.2 0 0 1 .134-.384c3.935 1.375 6.782 6.364 8.463 14.828a77.925 77.925 0 0 1 1.35 12.272.2.2 0 0 1-.132.191z" transform="translate(-1565.958 -1679.086)" style="fill:#fff"/>
                            </g>
                            <g data-name="Group 27248">
                                <path data-name="Path 60747" d="M1957.893 1874.039a.2.2 0 0 1-.189-.355c.654-.484 16.091-11.833 22.111-10.749a.2.2 0 1 1-.072.4c-5.849-1.053-21.639 10.558-21.8 10.676a.2.2 0 0 1-.05.028z" transform="translate(-1931.502 -1812.072)" style="fill:#fff"/>
                            </g>
                        </g>
                    </g>
                </g>
            </g>
            <g data-name="Group 27261">
                <g data-name="Group 27260">
                    <path data-name="Path 60749" d="M1250.729 1633.1a10.645 10.645 0 0 0-4.7-3.891c-12.6-5.567-24.211 20.787-24.4 27.541s-2.188 8.276-13.51 7.774-8.624 7.341-8.662 11.346 1.339 7.9-7.358 8.762-6.9 3.985-6.9 3.985 8.656 18.93 9.513 14.174 4.661-11.035 17.123-7.135c5.367 1.68 14.372 2.069 18.2-2.948a10.836 10.836 0 0 0 2.079-4.557c.24-2.052-.466-3.99-.516-6.02-.115-4.73 5.011-6.321 8.33-8.262a32.85 32.85 0 0 0 5-3.382c3.159-2.737 3.761-6.675 2.8-10.59-.461-1.878-1.28-3.989-1.068-5.955.227-2.112 1.592-4.618 2.423-6.576a44.548 44.548 0 0 0 1.839-4.646c.878-2.978 1.478-6.794-.193-9.62z" transform="translate(-1122.17 -1580.022)" style="fill:#ff5d5d"/>
                    <g data-name="Group 27259" style="clip-path:url(#fdbuvzz0ui)" transform="translate(62.867 48.422)">
                        <g data-name="Group 27258" style="isolation:isolate;mix-blend-mode:soft-light;opacity:.8">
                            <g data-name="Group 27253">
                                <path data-name="Path 60750" d="M1101.324 1646.966a.2.2 0 0 1-.027-.4 98.063 98.063 0 0 0 15.15-3.651c7.58-2.471 17.908-6.951 24.067-14.262 5.144-6.106 11.712-16.9 18.021-29.6 5.657-11.395 9.038-20.111 9.038-21.954a.2.2 0 1 1 .406 0c0 2.157-3.988 11.88-9.08 22.135-6.323 12.735-12.91 23.554-18.074 29.684-6.222 7.386-16.626 11.9-24.259 14.389a98.461 98.461 0 0 1-15.213 3.664z" transform="translate(-1105.075 -1579.318)" style="fill:#fff"/>
                            </g>
                            <g data-name="Group 27254">
                                <path data-name="Path 60751" d="M2188.7 1680.84a.2.2 0 0 1-.2-.2c0-.148-.158-14.863-5.322-20.027a.2.2 0 1 1 .288-.285c5.282 5.282 5.437 19.7 5.44 20.309a.2.2 0 0 1-.2.2z" transform="translate(-2136.089 -1658.772)" style="fill:#fff"/>
                            </g>
                            <g data-name="Group 27255">
                                <path data-name="Path 60752" d="M2132.833 2327.191a.2.2 0 0 1-.069-.395 64.412 64.412 0 0 1 9.9-2.52c7.1-1.174 11.971-.465 14.464 2.108a.2.2 0 1 1-.292.283c-5.736-5.918-23.755.448-23.936.512a.2.2 0 0 1-.067.012z" transform="translate(-2087.984 -2290.968)" style="fill:#fff"/>
                            </g>
                            <g data-name="Group 27256">
                                <path data-name="Path 60753" d="M1570.184 2345.258a.2.2 0 0 1-.066-.011.2.2 0 0 1-.126-.258 77.5 77.5 0 0 0 2.865-11.939c.865-5.76 1.082-13.287-2.8-16.436a.2.2 0 0 1 .256-.316c3.238 2.625 4.229 8.284 2.946 16.817a77.966 77.966 0 0 1-2.882 12.005.2.2 0 0 1-.193.138z" transform="translate(-1551.844 -2283.847)" style="fill:#fff"/>
                            </g>
                            <g data-name="Group 27257">
                                <path data-name="Path 60754" d="M1806.515 2721.295a.2.2 0 0 1-.058-.4c.779-.234 19.146-5.689 24.444-2.632a.2.2 0 1 1-.2.352c-5.148-2.97-23.935 2.614-24.124 2.67a.211.211 0 0 1-.062.01z" transform="translate(-1777.041 -2666.032)" style="fill:#fff"/>
                            </g>
                        </g>
                    </g>
                </g>
            </g>
        </g>
        <g data-name="Group 27265">
            <g data-name="Group 27263">
                <path data-name="Path 60756" d="m1488.534 710.555-.145 1.039a8.177 8.177 0 0 0-1.417.188l-.393-.97a.515.515 0 0 0-.676-.28l-1.667.686a.525.525 0 0 0-.29.679l.395.982a8.425 8.425 0 0 0-1.141.871l-.838-.649a.524.524 0 0 0-.732.1l-1.12 1.432a.522.522 0 0 0 .085.734l.84.653a8.393 8.393 0 0 0-.564 1.327l-1.066-.14a.536.536 0 0 0-.6.454l-.268 1.807a.517.517 0 0 0 .442.593l1.069.14a8.3 8.3 0 0 0 .161 1.434l-1 .418a.542.542 0 0 0-.3.7l.669 1.7a.517.517 0 0 0 .685.287l1-.42a8.249 8.249 0 0 0 .86 1.158l-.669.869a.538.538 0 0 0 .087.751l1.434 1.125a.526.526 0 0 0 .743-.1l.661-.863a8.054 8.054 0 0 0 1.335.561l-.151 1.077a.529.529 0 0 0 .45.6l1.811.237a.538.538 0 0 0 .6-.466l.146-1.069a8.149 8.149 0 0 0 1.447-.191l.4.988a.522.522 0 0 0 .689.289l1.689-.716a.543.543 0 0 0 .288-.7l-.4-.981a8.433 8.433 0 0 0 1.161-.9l.825.642a.522.522 0 0 0 .739-.1l1.106-1.466a.537.537 0 0 0-.1-.747l-.818-.634a8.36 8.36 0 0 0 .555-1.364l1.023.134a.526.526 0 0 0 .587-.458l.232-1.811a.527.527 0 0 0-.451-.591l-1.02-.134a8.257 8.257 0 0 0-.188-1.449l.946-.4a.526.526 0 0 0 .281-.686l-.691-1.67a.52.52 0 0 0-.68-.282l-.951.4a8.213 8.213 0 0 0-.878-1.145l.628-.82a.521.521 0 0 0-.1-.73l-1.421-1.092a.52.52 0 0 0-.728.1l-.633.821a8.054 8.054 0 0 0-1.324-.542l.141-1.032a.515.515 0 0 0-.444-.581l-1.775-.233a.524.524 0 0 0-.571.436zm-6.258 8.419a6.573 6.573 0 0 1 7.32-5.609 6.464 6.464 0 0 1 5.537 7.3 6.57 6.57 0 0 1-7.33 5.68 6.462 6.462 0 0 1-5.526-7.371z" transform="translate(-1402.223 -704.95)" style="fill:#d8dee8"/>
            </g>
            <g data-name="Group 27264">
                <path data-name="Path 60757" d="m804.9 693.621-.225 1.607a12.611 12.611 0 0 0-2.191.29l-.607-1.5a.8.8 0 0 0-1.045-.434l-2.577 1.061a.812.812 0 0 0-.448 1.05l.611 1.518a13.009 13.009 0 0 0-1.763 1.347l-1.3-1a.81.81 0 0 0-1.133.15l-1.731 2.215a.806.806 0 0 0 .131 1.135l1.3 1.01a12.946 12.946 0 0 0-.871 2.052l-1.651-.222a.829.829 0 0 0-.921.7l-.414 2.793a.8.8 0 0 0 .683.916l1.653.217a12.818 12.818 0 0 0 .249 2.218l-1.552.647a.838.838 0 0 0-.459 1.075l1.034 2.627a.8.8 0 0 0 1.059.444l1.552-.65a12.753 12.753 0 0 0 1.33 1.79l-1.034 1.343a.832.832 0 0 0 .134 1.162l2.218 1.74a.813.813 0 0 0 1.149-.157l1.022-1.334a12.48 12.48 0 0 0 2.064.868l-.233 1.665a.817.817 0 0 0 .7.932l2.8.367a.831.831 0 0 0 .924-.72l.226-1.653a12.608 12.608 0 0 0 2.237-.3l.614 1.527a.807.807 0 0 0 1.066.447l2.611-1.106a.839.839 0 0 0 .445-1.086l-.614-1.516a13.011 13.011 0 0 0 1.794-1.4l1.276.992a.807.807 0 0 0 1.142-.156l1.71-2.267a.831.831 0 0 0-.151-1.155l-1.265-.98a12.951 12.951 0 0 0 .858-2.109l1.581.207a.812.812 0 0 0 .908-.707l.359-2.8a.815.815 0 0 0-.7-.914l-1.576-.207a12.812 12.812 0 0 0-.291-2.24l1.462-.612a.813.813 0 0 0 .435-1.061l-1.068-2.582a.8.8 0 0 0-1.052-.436l-1.47.613a12.748 12.748 0 0 0-1.357-1.77l.971-1.268a.805.805 0 0 0-.147-1.128l-2.2-1.688a.8.8 0 0 0-1.126.149l-.978 1.27a12.47 12.47 0 0 0-2.047-.838l.218-1.595a.8.8 0 0 0-.686-.9l-2.744-.36a.81.81 0 0 0-.899.707zm-9.675 13.017a10.162 10.162 0 0 1 11.318-8.672 9.994 9.994 0 0 1 8.561 11.279 10.158 10.158 0 0 1-11.333 8.782 9.99 9.99 0 0 1-8.547-11.389z" transform="translate(-745.803 -688.579)" style="fill:#d8dee8"/>
            </g>
        </g>
        <g data-name="Group 27267">
            <path data-name="Path 60758" d="m806.112 960.909-12 99.769a2.629 2.629 0 0 0 2.3 2.98l50 5.489c3.063.191 4.74-1.374 4.928-2.965l12.6-106.071c.188-1.582-1.315-3.014-4.39-3.014l-50.45 1.063a3.18 3.18 0 0 0-2.988 2.749z" transform="translate(-749.641 -940.305)" style="fill:#c2000d"/>
            <path data-name="Path 60759" d="m757.018 960.579-12.069 100.267a2.641 2.641 0 0 0 2.3 3l51.831 5.16a3.03 3.03 0 0 0 3.3-2.613l12.673-106.619a2.515 2.515 0 0 0-2.647-2.84l-52.405.884a3.2 3.2 0 0 0-2.983 2.761z" transform="translate(-702.797 -940.146)" style="fill:#e10413"/>
            <path data-name="Path 60760" d="m795.771 1089.214-11.186 92.968a2.463 2.463 0 0 0 2.157 2.793l48.745 4.738a2.826 2.826 0 0 0 3.072-2.439l11.711-98.491a2.356 2.356 0 0 0-2.458-2.662l-49.245.524a2.965 2.965 0 0 0-2.796 2.569z" transform="translate(-740.566 -1063.251)" style="fill:#d8dee8"/>
            <path data-name="Path 60761" d="M1577.061 1013.071a.829.829 0 0 0 .856.954 1.143 1.143 0 0 0 1.09-.981.829.829 0 0 0-.858-.954 1.143 1.143 0 0 0-1.088.981z" transform="translate(-1495.717 -992.708)" style="fill:url(#vdua3h5l4c)"/>
            <g data-name="Group 27266" style="isolation:isolate;mix-blend-mode:soft-light">
                <path data-name="Path 60762" d="M1037.319 1028.515c9.979-18.45 24.887-23.973 29.375-42.987 2.426-10.278.773-20.116-2.011-28.283l18.619-.314a2.515 2.515 0 0 1 2.647 2.84l-12.673 106.619a3.03 3.03 0 0 1-3.3 2.613l-40.744-4.057c-.304-16.533 3.639-28.207 8.087-36.431z" transform="translate(-973.688 -940.146)" style="fill:#fff"/>
            </g>
        </g>
        <g data-name="Group 27272">
            <g data-name="Group 27268">
                <path data-name="Path 60763" d="M-42.9 899.985c0-9.8 8.552-17.75 18.814-17.749 9.959 0 17.819 7.529 17.819 16.814s-7.86 17.214-17.819 17.723c-10.261.527-18.814-6.985-18.814-16.788z" transform="translate(47.911 -868.971)" style="fill:url(#y52ihsjd1e)"/>
            </g>
            <g data-name="Group 27269">
                <path data-name="Path 60764" d="M-19.418 883.392c0-9.8 8.3-17.75 18.27-17.749a16.993 16.993 0 0 1 17.3 16.814c0 9.285-7.633 17.214-17.3 17.724-9.966.524-18.27-6.981-18.27-16.789z" transform="translate(25.536 -853.16)" style="fill:url(#98gckrj2rj)"/>
            </g>
            <g data-name="Group 27270" style="opacity:.5;isolation:isolate;mix-blend-mode:soft-light">
                <path data-name="Path 60765" d="M40.926 939.184a15.2 15.2 0 0 1 15.35-14.912A14.277 14.277 0 0 1 70.813 938.4a15.22 15.22 0 0 1-14.538 14.89 14.276 14.276 0 0 1-15.349-14.106z" transform="translate(-31.965 -909.027)" style="fill:#fff"/>
            </g>
            <path data-name="Path 60766" d="M76.57 925.536a14.14 14.14 0 0 1 13.51 19.428 14.153 14.153 0 0 0-12.933-20.694 15.433 15.433 0 0 0-14.318 9.568 15.478 15.478 0 0 1 13.741-8.302z" transform="translate(-52.836 -909.025)" style="opacity:.5;fill:#fff;isolation:isolate;mix-blend-mode:soft-light"/>
            <g data-name="Group 27271">
                <path data-name="Path 60767" d="M219.372 1193.409v7.189a3.717 3.717 0 0 0 3.9 3.662l5.332-.139a3.9 3.9 0 0 0 3.841-3.824v-7.113zm4.911 7.432.991-3a1.3 1.3 0 0 1-.712-1.153 1.391 1.391 0 0 1 1.381-1.362 1.326 1.326 0 0 1 1.378 1.307 1.36 1.36 0 0 1-.71 1.18l.987 2.953z" transform="translate(-202.003 -1165.268)" style="fill:#fff"/>
                <path data-name="Path 60768" d="M241.1 1043.327a.99.99 0 0 1-1.025-.978 3.841 3.841 0 0 0-3.961-3.781 3.992 3.992 0 0 0-3.987 3.908 1.042 1.042 0 0 1-1.04 1.019 1 1 0 0 1-1.041-.986 6.065 6.065 0 0 1 6.068-5.938 5.836 5.836 0 0 1 6.009 5.745 1.029 1.029 0 0 1-1.023 1.011z" transform="translate(-212.174 -1016.034)" style="fill:#fff"/>
            </g>
        </g>
        <g data-name="Group 27274">
            <path data-name="Path 60769" d="M722.769 1987.907s-.363-1.36-.106-1.707 1.828-1.738 1.677-1.284a2.916 2.916 0 0 1-.378.755s.846.393.3.982-.725.725-.756 1.254-.374.71-.737 0z" transform="translate(-681.494 -1919.611)" style="fill:url(#50mxgcgtck)"/>
            <path data-name="Path 60770" d="M402.976 3296a12.119 12.119 0 0 0-.168 1.594c.024.419 4.669.633 4.716.319s-.768-.812-1.341-.989-2.252-.646-2.252-.646z" transform="translate(-376.794 -3169.012)" style="fill:url(#jzlv9p3pjd)"/>
            <path data-name="Path 60771" d="m402.007 3270.146-.148 1.462a1.056 1.056 0 0 1-1.015.082l-.238-1.592z" transform="translate(-374.698 -3144.328)" style="fill:url(#39jhwlgecl)"/>
            <path data-name="Path 60772" d="M227.093 3336.466a12.131 12.131 0 0 0-.168 1.595c.024.418 4.669.632 4.716.319s-.768-.812-1.341-.988-2.251-.646-2.251-.646z" transform="translate(-209.198 -3207.569)" style="fill:url(#0j1ja0umkm)"/>
            <path data-name="Path 60773" d="m226.125 3310.61-.148 1.462a1.056 1.056 0 0 1-1.015.081l-.238-1.592z" transform="translate(-207.102 -3182.886)" style="fill:url(#308wfgdrin)"/>
            <path data-name="Path 60774" d="m288.666 2448.27 1.611 3.265a228.182 228.182 0 0 1-.292 35.432l-2.184-.1a21.781 21.781 0 0 1-2.409-9.161c-.119-4.075 1.116-4.616 1.038-8.518-.1-5.057-2.222-6.406-3.352-12.49a32.57 32.57 0 0 1-.377-9.051z" transform="translate(-262.199 -2360.627)" style="fill:url(#u9zyfm2amo)"/>
            <path data-name="Path 60775" d="m282.7 2447.647 3.223.336c1.934 3.365 2.474 6.868 2.134 8.418-.48 2.192-1.75 2.894-1.68 5.1.069 2.178 1.352 2.742 2.166 5.309.563 1.777.415 3.411.094 6.606-.645 6.437-2.2 8.4-.9 10.515a4.748 4.748 0 0 0 2.342 1.859c-.032.395-.063.791-.1 1.181l-2.184-.1a21.783 21.783 0 0 1-2.409-9.161c-.119-4.075 1.116-4.616 1.038-8.518-.1-5.057-2.222-6.406-3.352-12.49a32.57 32.57 0 0 1-.372-9.055z" transform="translate(-262.199 -2360.627)" style="mix-blend-mode:multiply;opacity:.3;fill:url(#ugwolobdmp);isolation:isolate"/>
            <path data-name="Path 60776" d="M154.119 2471.321a252.527 252.527 0 0 0-4.054 38.839l-2.4.068c-3.148-6.229-3.341-10.451-2.887-13.2a39.75 39.75 0 0 0 .758-6.241 43.89 43.89 0 0 0-.235-5.791c-.378-4.341-.837-5.288-.9-8.608-.062-3.116-.075-4.693.815-5.613 2.344-2.427 8.441.331 8.903.546z" transform="translate(-130.541 -2381.719)" style="fill:url(#c4c0gz3onq)"/>
            <path data-name="Path 60777" d="m399.416 1971.886 1.594-.111c1.253 5.065.354 9.979-2.475 11.786-4.42 2.823-12.634-2.5-14.414-8.288-.781-2.542-.6-6.211.958-6.924.433-.2 1.106-.229 2.563.59 4.352 2.443 4.466 7.062 6.679 7.452.984.175 2.573-.453 5.095-4.505z" transform="translate(-358.559 -1903.8)" style="fill:url(#zaz14g8prf)"/>
            <path data-name="Path 60778" d="M65.251 1984.995c.765-1.27-.2-2.5-.415-4.9-.248-2.727.8-3.181 1.842-7.7.691-3.006 1.354-5.892.563-9.27-.379-1.619-1.023-4.365-3.3-5.691-1.173-.684-2.774-.616-5.928-.451-3.9.2-5.851.306-7.306 1.072-.213.112-4.638 2.519-4.943 6.443-.31 3.993 4.039 4.53 4.619 9.855a42.726 42.726 0 0 1-.5 8.452c-.289 2.29-.488 2.876-.036 3.569 1.089 1.671 4.424 1.195 11.092.242 2.615-.376 3.741-.674 4.312-1.621z" transform="translate(-36.562 -1892.973)" style="fill:url(#zaz14g8prf)"/>
            <path data-name="Path 60779" d="M55.1 2070.156c-.282 1.038-1.3 1.813-2 4.338-.152.545-1.238 4.427.17 5.382.813.552 1.544-.494 3.518-.63 3.421-.237 5.05 2.638 7.285 1.853a3.057 3.057 0 0 0 1.411-1.094 2.257 2.257 0 0 1-.234 1.652c-.571.948-1.7 1.246-4.313 1.619-6.669.952-10 1.429-11.092-.242-.452-.694-.253-1.28.036-3.569a42.729 42.729 0 0 0 .5-8.452c-.58-5.325-4.929-5.862-4.619-9.855a6.194 6.194 0 0 1 1-2.846c5.523 2.232 9.229 8.583 8.338 11.844z" transform="translate(-36.562 -1989.636)" style="fill:url(#9cqq6oas2r)"/>
            <path data-name="Path 60780" d="m96.36 2472.33 1.1.7a2.584 2.584 0 0 1 1.373-.848c.807-.177 1.734.077 1.755.335.017.206-.547.415-.634.447-.7.26-1.227.044-1.511.327a2.157 2.157 0 0 1-.515.458 1.56 1.56 0 0 1-.2.1c-.47.183-1.276-.635-1.346-.707z" transform="translate(-84.786 -2383.954)" style="fill:url(#h67dc0ow0s)"/>
            <path data-name="Path 60781" d="M-60.064 1983.323c.8-1.912 1.352-4.84.091-9.189-8.31 3.275-12.548 11.037-10.893 17.191 1.364 5.073 6.327 7.544 7.434 8.063l.773-1.759c-1.283-1.429-2.729-3.541-2.524-5.952.283-3.342 3.502-4.483 5.119-8.354z" transform="translate(74.899 -1909.424)" style="fill:url(#zaz14g8prf)"/>
            <path data-name="Path 60782" d="M229.071 1875.709a8.9 8.9 0 0 1-.517 2.542c-.408.984-2.553 1.6-2.987 1.822s.815.862 2.069.988 4.838-.159 5.483-.635-.519-.44-1.415-.769-1.413-2.08-1.255-2.875-1.378-1.073-1.378-1.073z" transform="translate(-207.822 -1815.636)" style="fill:url(#op2wig35et)"/>
            <path data-name="Path 60783" d="M272.992 1795.344c.651-.64.742-.715.813-.936a2.13 2.13 0 0 0-1.306-2.4c-.047-.015-.652-.209-.883.054-.2.223.092.531-.045.961-.129.4-.477.432-1.124.96-.533.434-.864.7-.94 1.085a1.853 1.853 0 0 0 1.631 1.888c.301-.012.383-.167 1.854-1.612z" transform="translate(-249.759 -1735.799)" style="fill:url(#mvdtuuruou)"/>
            <g data-name="Group 27273">
                <path data-name="Path 60784" d="M291.116 1854.8a1.849 1.849 0 0 0 1.746.524c.944-.232.7-2.4.012-2.744a1.226 1.226 0 0 0-.964.046c-.186.09-.238.183-.544.323-.283.13-.373.112-.449.2-.1.114-.136.36.162.953a.528.528 0 0 0-.588-.083.331.331 0 0 0-.105.147c-.086.274.189.546.73.634z" transform="translate(-269.655 -1793.526)" style="fill:url(#02yc4mc8tv)"/>
            </g>
        </g>
        <g data-name="Group 27278">
            <path data-name="Path 60785" d="m748.056 1278.734.244 1.315-5.015.012-43.516.1a2.42 2.42 0 0 0-2.3 2.067l-10.388 69.426c-.155 1.149 1.634 2.9 2.747 2.989l19.306 1.484v-.023l28.878 2.216.07.029a2.371 2.371 0 0 0 2.524-2.013l9.728-74.124c.158-1.197-1.034-3.482-2.278-3.478z" transform="translate(-647.665 -1246.788)" style="fill:#ab0001"/>
            <g data-name="Group 27277">
                <path data-name="Path 60786" d="M739.058 1352.386a2.38 2.38 0 0 1-2.523 2.027l-48.3-3.709a1.922 1.922 0 0 1-1.732-2.235l9.443-70.164a2.42 2.42 0 0 1 2.3-2.067l48.577-.134a1.892 1.892 0 0 1 1.961 2.171z" transform="translate(-647.102 -1244.282)" style="fill:#f51112"/>
                <path data-name="Path 60787" d="M912.909 1899.766a1.221 1.221 0 0 1-1.254 1.027l-42.514-1.552a.9.9 0 0 1-.879-1.057l.836-6.2a1.113 1.113 0 0 1 1.151-.946l42.551 1.182a.924.924 0 0 1 .97 1.052z" transform="translate(-820.311 -1821.33)" style="fill:#fff"/>
                <path data-name="Path 60789" d="M913.763 1893.257a1.162 1.162 0 0 0-.324-.053l-42.552-1.181a1.112 1.112 0 0 0-1.15.946l-.837 6.2v.047a.9.9 0 0 1-.644-1.021l.837-6.2a1.112 1.112 0 0 1 1.15-.946l42.552 1.181a.925.925 0 0 1 .968 1.027z" transform="translate(-820.3 -1830.253)" style="opacity:.1;fill:url(#0cgtmsd62g);mix-blend-mode:multiply;isolation:isolate"/>
                <path data-name="Path 60790" d="M879.575 2144.222a1.015 1.015 0 0 0-.329-.07l-42.506-1.715a1.2 1.2 0 0 0-1.155 1.045l-.844 6.315a1.008 1.008 0 0 0-.008.12 1 1 0 0 1-.641-1.093l.844-6.315a1.2 1.2 0 0 1 1.155-1.045l42.506 1.715a1.028 1.028 0 0 1 .978 1.043z" transform="translate(-787.751 -2068.869)" style="opacity:.1;fill:url(#0cgtmsd62g);mix-blend-mode:multiply;isolation:isolate"/>
                <path data-name="Path 60791" d="M1009.593 2496.284a1.639 1.639 0 0 0-1.5-1.881l-21.991-1.263a1.885 1.885 0 0 0-1.876 1.64l-.908 6.84a1.621 1.621 0 0 0 1.418 1.876l21.98 1.5a1.95 1.95 0 0 0 1.959-1.692z" transform="translate(-929.94 -2406.948)" style="fill:url(#9fthwdsxvw)"/>
                <g data-name="Group 27276">
                    <path data-name="Path 60792" d="M1243.422 1414.833a9.519 9.519 0 0 1-9.356 8.085 7.186 7.186 0 0 1-5.588-2.671 7.33 7.33 0 0 1-1.455-5.591 9.528 9.528 0 0 1 9.216-8.078 7.1 7.1 0 0 1 7.183 8.255z" transform="translate(-1162.109 -1359.692)" style="fill:url(#a9zathy68x)"/>
                    <g data-name="Group 27275">
                        <path data-name="Path 60793" d="M1339.327 1456.974a4.13 4.13 0 0 1-4.031 3.505 3.062 3.062 0 0 1-3.066-3.564 4.133 4.133 0 0 1 4.005-3.5 3.062 3.062 0 0 1 3.092 3.559z" transform="translate(-1262.399 -1404.318)" style="fill:#fff"/>
                        <path data-name="Path 60794" d="M1271.324 1629.459a9.251 9.251 0 0 1-6.346 2.473 7.187 7.187 0 0 1-5.588-2.671 7.872 7.872 0 0 1 6.387-3.333 6.029 6.029 0 0 1 5.547 3.531z" transform="translate(-1193.021 -1568.706)" style="fill:#fff"/>
                    </g>
                </g>
                <path data-name="Path 60795" d="m1081.823 1278.279-9.723 74.112a2.449 2.449 0 0 1-2.595 2.021l-29.012-2.228a15.458 15.458 0 0 1-3.323-5.136 15.856 15.856 0 0 1-.882-3.2 26.707 26.707 0 0 1 .456-10.178 33.618 33.618 0 0 1 2.763-7.736 25.4 25.4 0 0 1 3.383-5.135 48.867 48.867 0 0 1 2.954-3.1 85.468 85.468 0 0 1 3.984-3.583c3.222-2.745 6.672-5.429 9.867-8.264 7.371-6.539 13.351-13.845 11.912-24.27-.046-.328-.5-2.843-1.069-5.449l9.252-.025a1.945 1.945 0 0 1 2.033 2.171z" transform="translate(-980.144 -1244.286)" style="opacity:.4;fill:#fff;isolation:isolate;mix-blend-mode:soft-light"/>
            </g>
        </g>
    </g>
</svg>
