<svg xmlns="http://www.w3.org/2000/svg" width="18" height="19.906" viewBox="0 0 18 19.906">
    <g data-name="Group 32421">
        <path data-name="Path 65422" d="M13.175 4.824a2.811 2.811 0 1 0-.707-1.177L4.891 8.02l-.066-.068a2.826 2.826 0 1 0 0 4l.066-.068 7.579 4.375a2.818 2.818 0 1 0 .7-1.177l-.064.066-7.579-4.373a2.857 2.857 0 0 0 0-1.643l7.577-4.375.066.07zm2-3.543a1.544 1.544 0 1 1-1.544 1.544 1.545 1.545 0 0 1 1.543-1.544zM2.828 11.496a1.544 1.544 0 1 1 1.544-1.544 1.545 1.545 0 0 1-1.544 1.544zm12.346 4.041a1.544 1.544 0 1 1-1.544 1.544 1.545 1.545 0 0 1 1.544-1.546z"/>
    </g>
</svg>
