<svg xmlns="http://www.w3.org/2000/svg" width="375" height="191" viewBox="0 0 375 191">
    <defs>
        <linearGradient id="b1osdc6ldb" x1=".029" x2="1.014" y2=".944" gradientUnits="objectBoundingBox">
            <stop offset="0" stop-color="#e10413"/>
            <stop offset=".218" stop-color="#e10413"/>
            <stop offset="1" stop-color="#910009"/>
        </linearGradient>
        <clipPath id="z3nqazlaea">
            <path data-name="Rectangle 11075" transform="translate(2716 6521)" style="fill:#fff" d="M0 0h375v191H0z"/>
        </clipPath>
    </defs>
    <g data-name="Mask Group 104" transform="translate(-2716 -6521)" style="clip-path:url(#z3nqazlaea)">
        <g data-name="Group 33482">
            <g data-name="Group 33481">
                <g data-name="Group 33480">
                    <g data-name="Group 33479">
                        <g data-name="Group 33432">
                            <g data-name="Group 33431">
                                <g data-name="Group 33430">
                                    <path data-name="Path 73153" d="m-372.529 135.626.8 190.389a1.218 1.218 0 0 1-.011.2v.077a1.52 1.52 0 0 1-.023.221 1.251 1.251 0 0 1-.011.2 4.638 4.638 0 0 1-.047.409c-.012.066-.024.122-.035.188a5.628 5.628 0 0 1-.142.631 5.544 5.544 0 0 1-.179.576.593.593 0 0 0-.048.133c-.071.166-.144.321-.215.477a5.736 5.736 0 0 1-.635 1.1c-.121.166-.252.332-.385.5l-.324.366a2.8 2.8 0 0 1-.313.311.551.551 0 0 1-.121.111 3.1 3.1 0 0 1-.373.322c-.085.079-.18.145-.264.211a8.743 8.743 0 0 1-1.024.657c-.144.077-.289.144-.433.211a2.7 2.7 0 0 1-.409.178 3.27 3.27 0 0 1-.423.157 2.757 2.757 0 0 1-.314.112h-.023a2.061 2.061 0 0 1-.338.1c-.012.011-.012.011-.024.011a9.007 9.007 0 0 1-2.269.3l-365.944 1.29c-4.552.017-8.272-3.289-8.435-7.426a2.149 2.149 0 0 1-.013-.266l-.8-190.389a5.246 5.246 0 0 1 .057-.875 6.986 6.986 0 0 1 .249-1.229c0-.021.012-.033.023-.055a2.493 2.493 0 0 1 .144-.409 2.576 2.576 0 0 1 .2-.488c.084-.188.18-.387.287-.575.024-.034.036-.056.06-.09a4.169 4.169 0 0 1 .372-.554 4.862 4.862 0 0 1 .577-.721l.24-.244.192-.188a.445.445 0 0 1 .109-.1c.144-.134.3-.268.456-.389a.252.252 0 0 1 .1-.066c.012-.011.012-.011.024-.011a4.592 4.592 0 0 1 .566-.4l.036-.033a8.906 8.906 0 0 1 1.421-.702 6.437 6.437 0 0 1 .687-.235 1.989 1.989 0 0 1 .278-.079c.133-.033.266-.067.4-.09a1.65 1.65 0 0 1 .338-.067 6.971 6.971 0 0 1 .711-.1 7.065 7.065 0 0 1 .845-.048l365.956-1.291a8.743 8.743 0 0 1 5.95 2.247 6.167 6.167 0 0 1 .606.618 6.051 6.051 0 0 1 .425.518c.145.2.291.408.425.618 0 .011.012.011.012.022.122.22.231.43.341.652v.022a4.824 4.824 0 0 1 .22.53 1.49 1.49 0 0 1 .11.3.959.959 0 0 1 .049.166c.048.165.1.342.135.519a6.2 6.2 0 0 1 .111.664c0 .044.012.089.012.133.013.155.037.321.039.487a1.223 1.223 0 0 1 .012.186z" transform="translate(3467.121 6387.574)" style="fill:url(#b1osdc6ldb)"/>
                                </g>
                            </g>
                        </g>
                        <g data-name="Group 33455" style="opacity:.42">
                            <g data-name="Group 33454">
                                <g data-name="Group 33442">
                                    <g data-name="Group 33435">
                                        <g data-name="Group 33433">
                                            <path data-name="Path 73154" d="m-432.694 157.3-.094-22.336a1.366 1.366 0 0 0-.024-.221 1.228 1.228 0 0 0-.013-.2 4.687 4.687 0 0 0-.087-.6 5.344 5.344 0 0 0-.149-.632 5.029 5.029 0 0 0-.184-.575.588.588 0 0 1-.048-.133 24.72 24.72 0 0 0-.22-.476 5.67 5.67 0 0 0-.646-1.1c-.122-.165-.255-.331-.389-.5l-.328-.364a2.627 2.627 0 0 0-.315-.31.585.585 0 0 0-.122-.111 3.421 3.421 0 0 0-.377-.32c-.085-.077-.181-.144-.267-.209a8.585 8.585 0 0 0-1.03-.65c-.146-.077-.291-.143-.436-.209a2.685 2.685 0 0 0-.413-.176 3.362 3.362 0 0 0-.424-.154 2.7 2.7 0 0 0-.315-.11l-26.327.093.124 29.393z" transform="translate(3527.36 6387.573)" style="fill:#de0c0d"/>
                                            <path data-name="Rectangle 11058" transform="rotate(-.22 1706074.734 -794332.74)" style="fill:#ff3132" d="M0 0h32.094v29.405H0z"/>
                                        </g>
                                        <g data-name="Group 33434">
                                            <path data-name="Rectangle 11059" transform="translate(3062.835 6603.774)" style="fill:#e10413" d="M0 0h32.094v29.405H0z"/>
                                            <path data-name="Rectangle 11060" transform="translate(3062.959 6633.168)" style="fill:#ff3132" d="M0 0h32.094v29.405H0z"/>
                                        </g>
                                    </g>
                                    <g data-name="Group 33438">
                                        <g data-name="Group 33436">
                                            <path data-name="Rectangle 11061" transform="rotate(-.22 1706088.381 -785976.885)" style="fill:#e10413" d="M0 0h32.094v29.405H0z"/>
                                            <path data-name="Rectangle 11062" transform="translate(3030.627 6574.493)" style="fill:#ff3132" d="M0 0h32.094v29.405H0z"/>
                                        </g>
                                        <g data-name="Group 33437">
                                            <path data-name="Rectangle 11063" transform="rotate(-.22 1729054.51 -786029.155)" style="fill:#e10413" d="M0 0h32.094v29.405H0z"/>
                                            <path data-name="Rectangle 11064" transform="rotate(-.22 1736709.799 -786046.491)" style="fill:#ff3132" d="M0 0h32.094v29.405H0z"/>
                                        </g>
                                    </g>
                                    <g data-name="Group 33441">
                                        <g data-name="Group 33439">
                                            <path data-name="Rectangle 11065" transform="rotate(-.221 1706009.007 -774105.018)" style="fill:#e10413" d="M0 0h32.094v29.405H0z"/>
                                            <path data-name="Rectangle 11066" transform="rotate(-.22 1721412.087 -777656.225)" style="fill:#ff3132" d="M0 0h32.094v29.405H0z"/>
                                        </g>
                                        <g data-name="Group 33440">
                                            <path data-name="Rectangle 11067" transform="rotate(-.22 1698446.219 -777603.695)" style="fill:#ff3132" d="M0 0h32.094v29.405H0z"/>
                                        </g>
                                    </g>
                                </g>
                                <g data-name="Group 33450">
                                    <g data-name="Group 33445">
                                        <g data-name="Group 33443">
                                            <path data-name="Rectangle 11068" transform="rotate(-.221 1690780.96 -765752.33)" style="fill:#de0c0d" d="M0 0h32.094v29.405H0z"/>
                                            <path data-name="Rectangle 11069" transform="translate(2966.336 6545.324)" style="fill:#ff3132" d="M0 0h32.094v29.405H0z"/>
                                        </g>
                                        <g data-name="Group 33444">
                                            <path data-name="Rectangle 11070" transform="translate(2966.582 6604.116)" style="fill:#e10413" d="M0 0h32.092v29.403H0z"/>
                                        </g>
                                    </g>
                                    <g data-name="Group 33447">
                                        <g data-name="Group 33446">
                                            <path data-name="Rectangle 11071" transform="translate(2934.254 6545.435)" style="fill:#e10413" d="M0 0h32.092v29.403H0z"/>
                                            <path data-name="Rectangle 11072" transform="rotate(-.22 1713782.53 -760927.182)" style="fill:#ff3132" d="M0 0h32.092v29.414H0z"/>
                                        </g>
                                    </g>
                                    <g data-name="Group 33449">
                                        <g data-name="Group 33448">
                                            <path data-name="Rectangle 11073" transform="rotate(-.22 1698486.38 -752536.132)" style="fill:#b5020d" d="M0 0h32.094v29.405H0z"/>
                                        </g>
                                    </g>
                                </g>
                                <g data-name="Group 33453">
                                    <g data-name="Group 33452">
                                        <g data-name="Group 33451">
                                            <path data-name="Rectangle 11074" transform="translate(2869.956 6516.27)" style="fill:#de0c0d" d="M0 0h32.104v29.403H0z"/>
                                        </g>
                                    </g>
                                </g>
                            </g>
                            <path data-name="Path 73155" d="m-432.113 309.2-.092-21.859-32.082.113.123 29.393 23.667-.083a8.744 8.744 0 0 0 5.941-2.292 7.335 7.335 0 0 0 2.4-4.655c0-.041 0-.083.01-.125.013-.167.031-.328.033-.492z" transform="translate(3527.487 6404.505)" style="fill:#ff3132"/>
                        </g>
                        <g data-name="Group 33478" style="opacity:.28;mix-blend-mode:overlay;isolation:isolate">
                            <g data-name="Group 33456">
                                <path data-name="Path 73156" d="M-372.624 203.265v1.106a305.323 305.323 0 0 0-81.629 15.564c-13.457 4.528-27.377 10.6-40.851 16.473-29.118 12.714-59.213 25.84-89.339 25.946-.833 0-1.654-.006-2.487-.025-29.452-.6-60.05-15.485-93.562-45.5a409.145 409.145 0 0 1-45.492-48.037 169.067 169.067 0 0 1-10.388-15.13c-5.129-8.069-10.392-16.369-17.106-22.219l.192-.188a.445.445 0 0 1 .109-.1c.144-.134.3-.268.456-.389a.253.253 0 0 1 .1-.066c.012-.011.012-.011.024-.011 6.823 5.96 12.11 14.293 17.276 22.417A166.366 166.366 0 0 0-725 168.135a408.671 408.671 0 0 0 45.372 47.906c33.269 29.806 63.6 44.588 92.739 45.182 30.672.667 61.477-12.8 91.283-25.809 13.487-5.888 27.444-11.977 40.947-16.516a306.725 306.725 0 0 1 82.035-15.633z" transform="translate(3466.294 6375.586)" style="fill:#fff"/>
                            </g>
                            <g data-name="Group 33457">
                                <path data-name="Path 73157" d="M-372.2 213.16v1.1a318.655 318.655 0 0 0-80.069 13.457c-13.434 4.063-27.332 9.6-40.76 14.967-19.479 7.769-39.61 15.8-59.684 19.99a132.735 132.735 0 0 1-26.732 2.992 122.5 122.5 0 0 1-4.3-.062c-22.522-.806-45.475-9.487-70.166-26.546a284.292 284.292 0 0 1-23.1-17.905 422.2 422.2 0 0 1-45.93-45.89 166.1 166.1 0 0 1-10.6-14.389c-1.106-1.622-2.211-3.245-3.329-4.844-5.989-8.574-11.5-15.226-18.435-19.426v-.409a5.246 5.246 0 0 1 .057-.875c7.408 4.278 13.148 11.171 19.391 20.11 1.13 1.611 2.235 3.233 3.341 4.855a164.1 164.1 0 0 0 10.529 14.289 420.958 420.958 0 0 0 45.809 45.769 280.652 280.652 0 0 0 22.992 17.84c24.485 16.916 47.221 25.519 69.49 26.315a127.372 127.372 0 0 0 30.718-2.906c19.965-4.164 40.047-12.177 59.467-19.923 13.464-5.368 27.375-10.926 40.869-15A319.952 319.952 0 0 1-372.2 213.16z" transform="translate(3465.914 6376.078)" style="fill:#fff"/>
                            </g>
                            <g data-name="Group 33458">
                                <path data-name="Path 73158" d="M-372.162 222.781v1.106a333.913 333.913 0 0 0-78.508 11.328c-13.424 3.6-27.276 8.6-40.682 13.441-19.219 6.937-39.075 14.11-58.861 17.708a139.654 139.654 0 0 1-24.465 2.376c-2.113.007-4.2-.041-6.28-.144-22.2-1.128-45.03-9.7-69.791-26.193-7.471-4.974-15.053-10.6-23.17-17.2a438.725 438.725 0 0 1-46.369-43.743 160.272 160.272 0 0 1-10.812-13.665q-1.7-2.3-3.412-4.591c-6.618-8.815-12.622-15.476-20.391-19.342a3.77 3.77 0 0 0-.374-.175l-.006-1.251c.327.155.641.308.956.461 7.986 3.955 14.087 10.726 20.815 19.673 1.141 1.523 2.27 3.068 3.412 4.612a163.161 163.161 0 0 0 10.743 13.569 436.239 436.239 0 0 0 46.247 43.621c8.081 6.575 15.626 12.19 23.074 17.143 24.568 16.362 47.181 24.856 69.149 25.974a132.126 132.126 0 0 0 30.443-2.21c19.679-3.575 39.487-10.725 58.656-17.652 13.43-4.847 27.307-9.853 40.778-13.474a335.064 335.064 0 0 1 78.848-11.372z" transform="translate(3465.919 6376.834)" style="fill:#fff"/>
                            </g>
                            <g data-name="Group 33459">
                                <path data-name="Path 73159" d="M-372.125 232.156v1.117a355.472 355.472 0 0 0-76.958 9.43c-13.4 3.134-27.232 7.585-40.6 11.9-18.943 6.106-38.537 12.426-58.037 15.426a148.438 148.438 0 0 1-21.908 1.8q-4.327.015-8.526-.258c-21.872-1.46-44.583-9.909-69.427-25.851-7.458-4.774-15.063-10.168-23.239-16.5a460.19 460.19 0 0 1-46.806-41.573 161.107 161.107 0 0 1-11.018-12.926c-1.166-1.467-2.319-2.924-3.5-4.368-6.76-8.351-12.848-14.645-20.614-18.258-.824-.384-1.658-.757-2.492-1.12v-1.206c1.028.417 2.044.867 3.047 1.329 7.973 3.721 14.182 10.127 21.027 18.588q1.766 2.184 3.508 4.38a162.633 162.633 0 0 0 10.933 12.838 460.475 460.475 0 0 0 46.685 41.473c8.165 6.311 15.733 11.682 23.155 16.446 24.662 15.809 47.18 24.2 68.835 25.642a136.75 136.75 0 0 0 30.142-1.533c19.391-2.988 38.937-9.286 57.844-15.381 13.4-4.318 27.252-8.78 40.7-11.925a356.785 356.785 0 0 1 77.249-9.47z" transform="translate(3465.925 6377.614)" style="fill:#fff"/>
                            </g>
                            <g data-name="Group 33460">
                                <path data-name="Path 73160" d="M-372.088 241.691v1.106a379.438 379.438 0 0 0-75.4 7.367c-13.39 2.658-27.188 6.568-40.538 10.342-18.68 5.288-38 10.766-57.2 13.178a157.478 157.478 0 0 1-19.012 1.272c-3.791.013-7.486-.128-11.123-.425-21.536-1.772-44.125-10.11-69.076-25.5-7.421-4.565-15.037-9.737-23.309-15.792a487.463 487.463 0 0 1-47.231-39.426 161.3 161.3 0 0 1-11.221-12.184 299.422 299.422 0 0 0-3.591-4.136c-6.879-7.874-13.062-13.814-20.828-17.183a91.108 91.108 0 0 0-4.608-1.854l-.006-1.184q2.613.938 5.141 2.04c7.971 3.457 14.251 9.5 21.251 17.48q1.8 2.069 3.592 4.158a164.025 164.025 0 0 0 11.135 12.1 488.379 488.379 0 0 0 47.122 39.326c8.236 6.032 15.84 11.183 23.237 15.737 24.769 15.278 47.176 23.561 68.5 25.312a144.112 144.112 0 0 0 29.868-.836c19.1-2.413 38.376-7.867 57.009-13.143 13.373-3.775 27.195-7.7 40.635-10.365a381.058 381.058 0 0 1 75.653-7.39z" transform="translate(3465.931 6378.41)" style="fill:#fff"/>
                            </g>
                            <g data-name="Group 33461">
                                <path data-name="Path 73161" d="M-372.051 251.21v1.106a407.745 407.745 0 0 0-73.849 5.293c-13.381 2.183-27.156 5.528-40.473 8.771-18.418 4.479-37.452 9.1-56.365 10.94-5.431.517-10.622.79-15.645.808a138.239 138.239 0 0 1-14.19-.658c-21.164-2.083-43.645-10.311-68.7-25.145-7.385-4.366-15.036-9.306-23.379-15.1a525.551 525.551 0 0 1-47.669-37.266c-4-3.5-7.771-7.539-11.422-11.443a369.806 369.806 0 0 0-3.674-3.9c-7.022-7.409-13.289-12.985-21.042-16.11q-3.3-1.332-6.735-2.4v-1.173q3.682 1.132 7.219 2.563c7.97 3.214 14.346 8.877 21.477 16.385 1.238 1.29 2.45 2.6 3.675 3.914 3.626 3.882 7.386 7.9 11.337 11.365a524.87 524.87 0 0 0 47.573 37.19c8.319 5.767 15.946 10.685 23.307 15.04 24.9 14.746 47.2 22.909 68.168 24.982a151.941 151.941 0 0 0 29.581-.16c18.817-1.825 37.814-6.438 56.185-10.906 13.341-3.243 27.139-6.589 40.569-8.782a408.882 408.882 0 0 1 74.052-5.314z" transform="translate(3465.937 6379.224)" style="fill:#fff"/>
                            </g>
                            <g data-name="Group 33462">
                                <path data-name="Path 73162" d="M-372.014 260.623v1.106a454.046 454.046 0 0 0-72.3 3.319c-13.226 1.706-26.823 4.454-39.985 7.111-18.277 3.693-37.18 7.509-55.939 8.781-4.02.258-7.908.4-11.687.417a150.155 150.155 0 0 1-17.849-.966c-21.081-2.415-42.786-10.292-68.325-24.793-7.359-4.167-15.034-8.875-23.46-14.387a578.368 578.368 0 0 1-48.102-35.111c-4.046-3.282-7.889-7.051-11.612-10.712-1.249-1.223-2.509-2.458-3.771-3.67-7.153-6.933-13.513-12.143-21.265-15.036a88.486 88.486 0 0 0-8.85-2.779v-1.15a90.645 90.645 0 0 1 9.309 2.91c7.958 2.958 14.427 8.257 21.69 15.289q1.891 1.819 3.782 3.693c3.7 3.626 7.517 7.374 11.527 10.623a571.8 571.8 0 0 0 48.011 35.042c8.39 5.5 16.041 10.187 23.388 14.343 25.38 14.413 46.941 22.235 67.84 24.64a160.346 160.346 0 0 0 29.295.538c18.674-1.26 37.53-5.076 55.771-8.759 13.174-2.657 26.806-5.4 40.08-7.121a455.944 455.944 0 0 1 72.452-3.328z" transform="translate(3465.943 6380.054)" style="fill:#fff"/>
                            </g>
                            <g data-name="Group 33463">
                                <path data-name="Path 73163" d="M-371.977 269.987v1.106a505.762 505.762 0 0 0-70.737 1.366c-13.2 1.23-26.767 3.4-39.883 5.506-18.027 2.885-36.67 5.871-55.153 6.567a173.057 173.057 0 0 1-29.225-1.225c-20.659-2.726-42.256-10.492-67.961-24.451-7.31-3.957-15.007-8.433-23.529-13.689-17.033-10.516-33.368-21.6-48.546-32.95-4.117-3.083-8.044-6.609-11.85-10.013-1.273-1.135-2.533-2.27-3.818-3.394-7.3-6.468-13.741-11.312-21.491-13.963a93.651 93.651 0 0 0-10.963-2.992v-1.128a95.273 95.273 0 0 1 11.4 3.091c7.944 2.7 14.5 7.637 21.9 14.193q1.909 1.686 3.818 3.4c3.782 3.394 7.7 6.9 11.778 9.948 15.14 11.329 31.439 22.39 48.447 32.893 8.511 5.236 16.184 9.7 23.47 13.646 25.571 13.881 47.023 21.6 67.513 24.309a171.889 171.889 0 0 0 29.007 1.213c18.411-.685 37.005-3.67 55-6.554 13.14-2.1 26.726-4.287 39.967-5.518a507.592 507.592 0 0 1 70.856-1.361z" transform="translate(3465.95 6380.901)" style="fill:#fff"/>
                            </g>
                            <g data-name="Group 33464">
                                <path data-name="Path 73164" d="M-371.941 279.312v1.117a568.563 568.563 0 0 0-69.188-.575c-13.195.732-26.724 2.329-39.805 3.879-17.765 2.087-36.133 4.253-54.328 4.384a187.921 187.921 0 0 1-28.926-1.923c-20.2-3-41.678-10.661-67.585-24.1-7.212-3.724-14.934-7.978-23.6-12.98-17.284-10.006-33.761-20.369-48.97-30.79-4.166-2.862-8.163-6.122-12.042-9.272-1.308-1.069-2.6-2.126-3.925-3.173-7.426-6-13.965-10.481-21.7-12.877a92.889 92.889 0 0 0-13.09-3.04v-1.117a92.971 92.971 0 0 1 13.476 3.105c7.942 2.461 14.578 7.018 22.127 13.1 1.308 1.046 2.616 2.114 3.925 3.172 3.853 3.139 7.827 6.388 11.956 9.217 15.185 10.412 31.637 20.753 48.9 30.747 8.654 4.991 16.351 9.234 23.539 12.948 25.787 13.372 47.141 20.985 67.2 23.967a186.843 186.843 0 0 0 28.721 1.912c18.122-.131 36.455-2.285 54.171-4.384 13.107-1.539 26.659-3.136 39.89-3.88a571.876 571.876 0 0 1 69.254.563z" transform="translate(3465.956 6381.763)" style="fill:#fff"/>
                            </g>
                            <g data-name="Group 33465">
                                <path data-name="Path 73165" d="M-371.905 288.635v1.128a672.482 672.482 0 0 0-67.639-2.528c-13.184.234-26.7 1.245-39.763 2.231-17.491 1.3-35.56 2.647-53.457 2.224a203.786 203.786 0 0 1-28.627-2.621c-19.949-3.314-40.687-10.642-67.221-23.746-7.188-3.548-14.714-7.448-23.669-12.272-17.608-9.54-34.227-19.172-49.408-28.643-4.321-2.706-8.512-5.789-12.558-8.772-1.223-.9-2.446-1.805-3.682-2.708-6.152-4.459-13.43-9.422-21.94-11.792a93.54 93.54 0 0 0-15.2-2.923v-1.117a95.557 95.557 0 0 1 15.564 2.977c8.717 2.436 16.09 7.465 22.328 11.989q1.853 1.356 3.695 2.709c4.033 2.972 8.188 6.044 12.485 8.717 15.157 9.46 31.752 19.092 49.335 28.61 8.943 4.824 16.457 8.715 23.632 12.251 26.414 13.048 47.044 20.343 66.859 23.637a204.738 204.738 0 0 0 28.446 2.6c17.824.435 35.869-.923 53.324-2.224 13.085-.976 26.615-2 39.847-2.231a672.473 672.473 0 0 1 67.649 2.504z" transform="translate(3465.963 6382.64)" style="fill:#fff"/>
                            </g>
                            <g data-name="Group 33466">
                                <path data-name="Path 73166" d="M-371.869 297.864v1.106c-22.324-2.277-44.5-3.925-66.09-4.368-13.2-.274-26.7.149-39.758.55-17.193.537-34.976 1.085-52.559.085a223.69 223.69 0 0 1-28.324-3.307c-24.784-4.559-48.746-14.9-66.846-23.394-6.98-3.271-14.53-6.95-23.738-11.575-18.393-9.271-34.693-17.932-49.834-26.484-4.38-2.474-8.631-5.291-12.748-8.009-1.259-.836-2.518-1.673-3.789-2.5-6.26-4.082-13.656-8.613-22.154-10.718a96.465 96.465 0 0 0-17.325-2.649v-1.106a98.845 98.845 0 0 1 17.639 2.681c8.7 2.159 16.2 6.757 22.552 10.894 1.259.825 2.519 1.662 3.79 2.5 4.093 2.707 8.33 5.512 12.676 7.965 15.117 8.541 31.405 17.2 49.785 26.462 9.2 4.614 16.722 8.293 23.7 11.554 18.026 8.465 41.892 18.757 66.53 23.295a225.523 225.523 0 0 0 28.172 3.3c17.523.978 35.271.429 52.439-.1 13.075-.4 26.6-.824 39.831-.55 21.589.443 43.753 2.08 66.051 4.368z" transform="translate(3465.969 6383.532)" style="fill:#fff"/>
                            </g>
                            <g data-name="Group 33467">
                                <path data-name="Path 73167" d="M-371.833 307.024v1.106c-21.746-2.644-43.465-4.924-64.527-6.177-13.237-.794-26.749-.979-39.827-1.165-16.892-.228-34.352-.477-51.6-2.009a256.4 256.4 0 0 1-28.017-3.993c-23.71-4.807-46.909-14.349-66.481-23.052-8.469-3.764-16.792-7.606-23.809-10.867-19.659-9.178-35.629-16.91-50.259-24.337-4.44-2.252-8.773-4.8-12.962-7.267a615.034 615.034 0 0 0-3.861-2.264c-6.379-3.706-13.894-7.817-22.389-9.645a98.729 98.729 0 0 0-18.592-2.2c-.278-.01-.555-.009-.845-.008v-1.106c.29 0 .592 0 .881.008a99.5 99.5 0 0 1 18.846 2.235c8.664 1.873 16.289 6.038 22.753 9.788 1.3.747 2.578 1.507 3.861 2.264 4.175 2.464 8.484 5 12.9 7.234 14.617 7.416 30.576 15.136 50.223 24.315 7.016 3.261 15.316 7.1 23.784 10.858 19.512 8.682 42.639 18.191 66.215 22.964a256.376 256.376 0 0 0 27.872 3.983c17.2 1.521 34.637 1.77 51.506 2.009 13.089.175 26.613.371 39.874 1.154 21.037 1.248 42.744 3.517 64.454 6.172z" transform="translate(3465.976 6384.439)" style="fill:#fff"/>
                            </g>
                            <g data-name="Group 33468">
                                <path data-name="Path 73168" d="M-371.8 315.953a1.22 1.22 0 0 1-.011.2v.077a1.524 1.524 0 0 1-.023.221 1.248 1.248 0 0 1-.011.2 4.638 4.638 0 0 1-.047.409c-21.047-3.012-42.322-5.857-62.879-7.766-12.527-1.162-25.28-1.935-37.623-2.688-17.319-1.045-35.218-2.133-52.9-4.294-9.931-1.237-18.993-2.764-27.719-4.691-23.542-5.2-46.462-14.449-66.105-22.7-7.584-3.181-15.157-6.428-22.487-9.578l-1.379-.593c-17.382-7.471-34.34-14.8-50.7-22.166-4.488-2.031-8.881-4.305-13.14-6.515-1.319-.68-2.638-1.373-3.969-2.054-6.5-3.329-14.145-7.008-22.615-8.571a100.5 100.5 0 0 0-18.505-1.683h-.036c-1 0-2 .03-3.019.066v-1.106a92.812 92.812 0 0 1 3.019-.066h.036a101.964 101.964 0 0 1 18.747 1.7c8.652 1.6 16.383 5.33 22.966 8.692 1.331.681 2.649 1.374 3.981 2.055 4.234 2.2 8.615 4.471 13.067 6.48 16.356 7.365 33.3 14.7 50.673 22.168l1.391.592c7.318 3.138 14.89 6.386 22.474 9.568 19.6 8.238 42.454 17.451 65.888 22.633 8.69 1.916 17.715 3.444 27.6 4.659 17.637 2.162 35.524 3.249 52.819 4.3 12.356.742 25.122 1.528 37.66 2.678 20.547 1.905 41.826 4.761 62.847 7.773z" transform="translate(3465.983 6385.355)" style="fill:#fff"/>
                            </g>
                            <g data-name="Group 33469">
                                <path data-name="Path 73169" d="m-386.275 322.815-6.7.024c-13.436-2.2-27-4.352-40.21-6.2-13.41-1.877-27.073-3.334-40.276-4.737-16.163-1.712-32.869-3.49-49.337-6.065-9.81-1.546-18.778-3.308-27.419-5.378-21.779-5.222-42.654-13.213-65.73-22.347l-8.865-3.509q-7.6-3.008-15.082-5.954-12.01-4.736-23.838-9.33c-9-3.508-18.311-7.136-27.284-10.689-4.5-1.787-8.939-3.784-13.221-5.717-1.391-.625-2.782-1.262-4.174-1.876-6.617-2.952-14.394-6.2-22.84-7.5a101.894 101.894 0 0 0-18.491-1.163c-1.715.051-3.44.156-5.191.306v-1.106a91.084 91.084 0 0 1 5.154-.306 103.54 103.54 0 0 1 18.732 1.174c8.615 1.33 16.478 4.621 23.167 7.6l4.174 1.877c4.269 1.931 8.7 3.929 13.172 5.695a5729.088 5729.088 0 0 0 27.273 10.689q11.828 4.6 23.849 9.33 7.475 2.944 15.082 5.954l8.866 3.509c23.027 9.122 43.865 17.091 65.56 22.291 8.607 2.071 17.537 3.821 27.311 5.368 16.432 2.564 33.127 4.341 49.277 6.054 13.215 1.4 26.877 2.858 40.311 4.736 15.352 2.148 31.18 4.715 46.73 7.27z" transform="translate(3465.99 6386.266)" style="fill:#fff"/>
                            </g>
                            <g data-name="Group 33470">
                                <path data-name="Path 73170" d="m-435.943 322.087-6.436.022c-10.1-1.7-20.226-3.258-30.1-4.783-15.671-2.4-31.886-4.887-47.837-7.952-9.7-1.868-18.574-3.85-27.108-6.065-20.572-5.326-41.083-12.964-60.9-20.339l-4.463-1.666a2211.958 2211.958 0 0 0-24.016-8.753c-14.826-5.313-29.615-10.372-43.931-15.255l-7.618-2.606c-4.28-1.468-8.526-3.1-12.625-4.69q-2.521-.971-5.056-1.929c-6.676-2.565-14.512-5.381-23.064-6.423a103.913 103.913 0 0 0-18.439-.648q-3.639.212-7.362.7v-1.117a103.92 103.92 0 0 1 7.3-.69 105.317 105.317 0 0 1 18.658.654c8.71 1.053 16.63 3.913 23.379 6.489 1.681.646 3.374 1.293 5.054 1.939 4.088 1.579 8.322 3.212 12.578 4.668l7.63 2.606c14.3 4.9 29.1 9.953 43.942 15.266a2119.307 2119.307 0 0 1 24.029 8.766l4.463 1.654c19.8 7.375 40.258 14.991 60.771 20.307 8.521 2.2 17.356 4.187 27.036 6.055 15.927 3.052 32.116 5.528 47.775 7.94 11.909 1.832 24.173 3.712 36.34 5.85z" transform="translate(3465.997 6387.169)" style="fill:#fff"/>
                            </g>
                            <g data-name="Group 33471">
                                <path data-name="Path 73171" d="m-472.536 321.318-5.506.02c-13.124-2.653-26.549-5.4-39.783-8.411-9.6-2.19-18.359-4.4-26.81-6.764-17.08-4.763-34.264-10.831-50.891-16.7q-7.056-2.5-14.1-4.95c-8.6-2.968-16.469-5.606-24.075-8.046-17.93-5.789-35.508-10.937-51.986-15.714-4.219-1.223-8.427-2.581-12.476-3.894q-2.738-.886-5.489-1.761c-6.783-2.178-14.738-4.573-23.3-5.339a106.422 106.422 0 0 0-18.365-.124c-3.2.265-6.385.7-9.546 1.262v-1.128c3.125-.553 6.275-.973 9.437-1.239a109.2 109.2 0 0 1 18.594.122c8.7.789 16.736 3.2 23.592 5.4 1.826.58 3.651 1.172 5.477 1.762 4.051 1.3 8.247 2.658 12.453 3.872 16.478 4.788 34.078 9.936 52.01 15.724 7.616 2.451 15.5 5.09 24.11 8.069q7.038 2.447 14.111 4.95c16.591 5.86 33.762 11.927 50.807 16.68 8.425 2.348 17.177 4.552 26.748 6.742 14.983 3.4 30.234 6.499 44.988 9.467z" transform="translate(3466.005 6388.067)" style="fill:#fff"/>
                            </g>
                            <g data-name="Group 33472">
                                <path data-name="Path 73172" d="m-495.289 320.509-4.431.016a2270.18 2270.18 0 0 1-15.617-4.049c-9.489-2.511-18.157-4.948-26.5-7.451-13.1-3.914-26.381-8.436-39.222-12.8-8.331-2.835-16.941-5.77-25.392-8.495a777.506 777.506 0 0 0-24.156-7.349c-18.145-5.212-36.566-9.739-52.411-13.554-4.1-.981-8.195-2.051-12.148-3.1-2.031-.534-4.062-1.07-6.093-1.593-6.914-1.79-15-3.752-23.539-4.264a110.292 110.292 0 0 0-18.314.407 106.426 106.426 0 0 0-11.717 1.989v-1.139a106.173 106.173 0 0 1 11.572-1.955 111.773 111.773 0 0 1 18.544-.4c8.66.511 16.818 2.485 23.781 4.3 2.042.523 4.073 1.059 6.1 1.593 3.953 1.038 8.039 2.118 12.124 3.089 15.857 3.826 34.29 8.353 52.46 13.566a810.915 810.915 0 0 1 24.191 7.371c8.464 2.736 17.085 5.658 25.416 8.495 12.829 4.368 26.094 8.88 39.175 12.793a860.54 860.54 0 0 0 26.462 7.44 2437.61 2437.61 0 0 0 19.715 5.09z" transform="translate(3466.012 6388.956)" style="fill:#fff"/>
                            </g>
                            <g data-name="Group 33473">
                                <path data-name="Path 73173" d="m-510.136 319.681-3.815.013c-8.983-2.711-17.2-5.271-25.1-7.8-8.439-2.691-17.023-5.582-25.343-8.373-12.732-4.269-25.911-8.7-38.9-12.573a590.705 590.705 0 0 0-24.213-6.652c-18.6-4.7-37.151-8.4-52.837-11.407-3.9-.727-7.819-1.532-11.613-2.3q-3.463-.717-6.925-1.4a139.46 139.46 0 0 0-23.763-3.19 112.69 112.69 0 0 0-18.265.927 108.255 108.255 0 0 0-13.885 2.871v-1.15a109.84 109.84 0 0 1 13.716-2.814 115.224 115.224 0 0 1 18.47-.939 141.391 141.391 0 0 1 23.993 3.211c2.309.457 4.616.936 6.937 1.4 3.771.772 7.687 1.577 11.577 2.305 15.71 3.009 34.284 6.715 52.922 11.428a593.495 593.495 0 0 1 24.262 6.663c13.008 3.881 26.2 8.3 38.944 12.6 8.306 2.78 16.891 5.67 25.331 8.362a1704.504 1704.504 0 0 0 26.175 8.127c.768.221 1.558.462 2.332.691z" transform="translate(3466.02 6389.836)" style="fill:#fff"/>
                            </g>
                            <g data-name="Group 33474">
                                <path data-name="Path 73174" d="m-520.854 318.85-3.429.012q-5.968-2.019-11.97-4.073l-8.526-2.923c-18.076-6.187-36.759-12.592-55.351-17.682a470.823 470.823 0 0 0-24.281-5.955c-19.518-4.257-38.717-7.175-53.263-9.248-3.468-.486-6.9-.993-10.329-1.5q-4.242-.632-8.494-1.253a164.472 164.472 0 0 0-23.928-2.1h-.072a113.538 113.538 0 0 0-18.2 1.447 113.946 113.946 0 0 0-16.055 3.907v-1.173a114.282 114.282 0 0 1 15.85-3.829 115.877 115.877 0 0 1 18.407-1.459h.072a163.624 163.624 0 0 1 24.122 2.116c2.839.4 5.666.821 8.505 1.242 3.419.508 6.851 1.016 10.318 1.5 14.559 2.073 33.793 5 53.36 9.27a469.164 469.164 0 0 1 24.343 5.966c18.628 5.1 37.334 11.517 55.423 17.714 2.853.975 5.683 1.949 8.524 2.913q7.52 2.568 14.974 5.108z" transform="translate(3466.027 6390.705)" style="fill:#fff"/>
                            </g>
                            <g data-name="Group 33475">
                                <path data-name="Path 73175" d="m-529.253 318.023-3.248.011c-.326-.119-.641-.23-.967-.351-23.4-8.49-43.145-15.18-63.488-20.263a409.287 409.287 0 0 0-24.353-5.247c-15.455-2.833-32.514-5.1-53.7-7.1q-3.459-.319-6.9-.65-6.105-.576-12.2-1.129a195.758 195.758 0 0 0-24.238-1.021 120.312 120.312 0 0 0-18.151 1.967 117.505 117.505 0 0 0-18.223 5.131v-1.184a118.356 118.356 0 0 1 17.981-5.03 121.606 121.606 0 0 1 18.357-1.989 197.3 197.3 0 0 1 24.393 1.032c4.07.351 8.129.746 12.212 1.129 2.3.214 4.591.437 6.9.65 21.223 2 38.318 4.268 53.809 7.112 8.337 1.53 16.555 3.3 24.424 5.268 20.4 5.094 40.184 11.794 63.633 20.3 1.244.441 2.501.904 3.759 1.364z" transform="translate(3466.035 6391.561)" style="fill:#fff"/>
                            </g>
                            <g data-name="Group 33476">
                                <path data-name="Path 73176" d="m-536.433 317.21-3.188.011c-20.389-7.539-37.786-12.843-54.175-16.535a341.835 341.835 0 0 0-24.421-4.539 534.159 534.159 0 0 0-54.113-4.964c-7.778-.359-13.756-.615-19.395-.805a233.79 233.79 0 0 0-24.462.064 122.58 122.58 0 0 0-18.09 2.486 121.772 121.772 0 0 0-20.4 6.51l-.006-1.217a122.043 122.043 0 0 1 20.125-6.365 123.686 123.686 0 0 1 18.283-2.52 236.681 236.681 0 0 1 24.6-.065c5.652.2 11.629.446 19.407.806a536.429 536.429 0 0 1 54.258 4.975 346.41 346.41 0 0 1 24.506 4.56c17.18 3.867 35.448 9.5 57.071 17.598z" transform="translate(3466.043 6392.399)" style="fill:#fff"/>
                            </g>
                            <g data-name="Group 33477">
                                <path data-name="Path 73177" d="m-543.251 316.462-3.248.011a318.739 318.739 0 0 0-44.124-12.455c-32.737-6.589-66.775-7.022-98.711-6.5-14.633.24-28.914.743-42.738 4.166a127.425 127.425 0 0 0-22.557 8.067 2.16 2.16 0 0 1-.013-.265v-.951a127.4 127.4 0 0 1 22.256-7.922c13.955-3.456 28.321-3.96 43.027-4.2 32.008-.522 66.143-.09 98.99 6.521a323.236 323.236 0 0 1 47.118 13.528z" transform="translate(3466.051 6393.171)" style="fill:#fff"/>
                            </g>
                        </g>
                    </g>
                </g>
            </g>
        </g>
    </g>
</svg>
