<svg xmlns="http://www.w3.org/2000/svg" width="37" height="37" viewBox="0 0 37 37">
    <g data-name="Group 31032" transform="translate(-29.375 -331.375)">
        <rect data-name="Rectangle 10528" width="37" height="37" rx="6" transform="translate(29.375 331.375)" style="fill:#8e9193;opacity:.1"/>
        <g data-name="Group 32587">
            <path data-name="Path 65801" d="M356.7 92.275a1.757 1.757 0 0 0-.6 1.312 1.908 1.908 0 0 0 1.844 1.986h.071a1.946 1.946 0 0 0 1.312-.5 1.757 1.757 0 0 0 .6-1.312 1.932 1.932 0 0 0-3.227-1.489zm2.3 1.454a1.02 1.02 0 0 1-.319.709 1.144 1.144 0 0 1-.745.284 1.053 1.053 0 0 1-.993-1.064 1.02 1.02 0 0 1 .319-.709.99.99 0 0 1 .709-.284h.035a1.029 1.029 0 0 1 1 1.064z" transform="translate(-308.183 250.178)" style="fill:#021544"/>
            <path data-name="Path 65802" d="M292.68 13.916a.44.44 0 0 0 .461-.426l.248-5.426c.035-.993.071-1.986.106-3.156a.506.506 0 0 1 .39-.532h.142c1.844.071 3.723.142 5.532.213h.213a.645.645 0 0 1 .39.142c.106.071.106.248.106.39l-.177 5.319-.177 3.05a.44.44 0 0 0 .426.461h.035a.41.41 0 0 0 .426-.426l.142-2.624.035-.638.177-5.142a1.515 1.515 0 0 0-.355-1.028 1.563 1.563 0 0 0-.993-.39h-.248l-5.5-.213a1.206 1.206 0 0 0-.355.035 1.375 1.375 0 0 0-1.1 1.347c-.035 1.17-.071 2.163-.106 3.156l-.066 1.772-.177 3.617a.5.5 0 0 0 .426.5z" transform="translate(-246.927 334.885)" style="fill:#021544"/>
            <path data-name="Path 65803" d="M217.184 41.3c.106.532.213.922.213.993a.417.417 0 0 0 .426.319h.106a.434.434 0 0 0 .319-.532c0-.071-.106-.426-.213-.957-.39-1.667-1.17-5.142-1.525-6.489a.476.476 0 0 1 .213-.6c.035-.035.071-.035.142-.071l.993-.284a.439.439 0 1 0-.213-.851l-.993.284c-.071.035-.213.071-.355.142a1.4 1.4 0 0 0-.638 1.631c.355 1.312 1.135 4.787 1.525 6.419z" transform="translate(-173.382 306.754)" style="fill:#021544"/>
            <path data-name="Path 65804" d="M132.754 258.229a9.276 9.276 0 0 1-1.312.106 8.511 8.511 0 0 1-2.234-.177c-.284-.071-.532-.177-.816-.248a5.522 5.522 0 0 0-1.312-.355c-.567-.071-1.17-.071-1.7-.106a.413.413 0 0 1-.39-.355l-.674-5.532a.385.385 0 0 1 .248-.426 7.389 7.389 0 0 0 1.277-.709 9.513 9.513 0 0 0 .816-.6 13.471 13.471 0 0 1 3.688-2.163 4.509 4.509 0 0 1 2.624.319c.5.142.993.319 1.525.426.071 0 .142.035.213.035.248.035.78.106.816.284a.565.565 0 0 1-.142.426 2.575 2.575 0 0 1-1.6.461 10.518 10.518 0 0 1-1.489-.106c-.035 0-.071-.035-.142-.035a1.349 1.349 0 0 0-.638-.106c-.106.035-.177.071-.284.106a1.4 1.4 0 0 0-.532.993c-.035.106-.035.213-.071.248a5.387 5.387 0 0 1-.638 1.17 4.3 4.3 0 0 1-1.809 1.454.449.449 0 0 0 .284.851 5.239 5.239 0 0 0 2.234-1.773 5.542 5.542 0 0 0 .78-1.418c.035-.142.071-.248.106-.39a3.68 3.68 0 0 1 .106-.426.271.271 0 0 1 .177.071 1.446 1.446 0 0 0 .248.071 8.818 8.818 0 0 0 1.667.142 3.1 3.1 0 0 0 2.234-.745 1.637 1.637 0 0 0 .39-1.064c-.035-.887-1.064-1.028-1.56-1.1a.266.266 0 0 1-.177-.035 7.752 7.752 0 0 1-1.418-.39 5.46 5.46 0 0 0-3.121-.355 14.181 14.181 0 0 0-3.972 2.34 8.65 8.65 0 0 1-.816.567 4.9 4.9 0 0 1-1.135.6c-.071.035-.106.071-.177.106h-.106l-2.34.284a1.059 1.059 0 0 0-.887 1.135l.851 6.064a1.026 1.026 0 0 0 .993.887h.106l2.34-.284a.438.438 0 0 0 .284-.142h.035c.532 0 1.064.035 1.6.071a4.742 4.742 0 0 1 1.1.319 7 7 0 0 0 .922.284 8.943 8.943 0 0 0 2.057.213h.426a10.72 10.72 0 0 0 1.418-.106.441.441 0 0 0 .39-.5.393.393 0 0 0-.461-.39zm-10.142-.355c-.071 0-.106-.035-.142-.106l-.851-6.064c0-.071.035-.106.106-.142l1.738-.213v.319l.674 5.5a1.191 1.191 0 0 0 .177.5z" transform="translate(-82.32 101.565)" style="fill:#021544"/>
            <path data-name="Path 65805" d="M416.313 353.29a1.669 1.669 0 0 0 .355-.993 1.038 1.038 0 0 0-.638-1.064.45.45 0 0 0 .035-.213 1.583 1.583 0 0 0-.745-1.312 1.7 1.7 0 0 0-.993-.142c-.922.106-1.879.248-2.695.355l-.319.035a1.129 1.129 0 0 0-.993.957 1.422 1.422 0 0 0 .106.957 1.309 1.309 0 0 0-.567.887 1.235 1.235 0 0 0 .284 1.064.968.968 0 0 0 .426.319c0 .035-.035.035-.035.071a1.461 1.461 0 0 0 .284 1.277 1.191 1.191 0 0 0 .567.355 1.375 1.375 0 0 0 .213 1.277 1.231 1.231 0 0 0 .922.461.881.881 0 0 0 .284-.035l.638-.106c.284-.035.567-.106.851-.142l.106-.035c.284-.071.6-.106.922-.213a1.392 1.392 0 0 0 .851-1.631 1.649 1.649 0 0 0-.106-.319 1.334 1.334 0 0 0 .532-1.383c-.108-.144-.178-.286-.285-.427zm-5.177-2.163a.27.27 0 0 1 .284-.248l.319-.035c.816-.106 1.773-.248 2.66-.355h.213a.382.382 0 0 1 .284.071.62.62 0 0 1 .248.5.184.184 0 0 1-.071.142c-.035 0-.035.035-.071.035-1.064.142-2.2.319-3.582.5a.13.13 0 0 1-.106-.035.493.493 0 0 1-.178-.575zm3.83 5.142a5.513 5.513 0 0 1-.816.177h-.071a7.107 7.107 0 0 1-.851.142l-.638.106a.34.34 0 0 1-.355-.106.5.5 0 0 1-.071-.5.319.319 0 0 1 .284-.213 1.536 1.536 0 0 1 .177-.035h.071c.567-.106 1.808-.319 2.2-.355h.071c.177 0 .213.035.213.106a.521.521 0 0 1-.214.678zm.319-1.738a2.075 2.075 0 0 1-.461.071c-.426.071-.851.142-1.312.213l-.284.035c-.213.035-.461.071-.674.106h-.177a3.908 3.908 0 0 1-.638.071.318.318 0 0 1-.319-.071.485.485 0 0 1-.071-.5c.035-.142.071-.177.177-.213.035 0 .071-.035.106-.035.6-.071 1.206-.177 1.808-.248s1.17-.177 1.773-.248h.142c.213 0 .213.106.213.177a.439.439 0 0 1-.283.642zm.035-1.7h-.035c-.567.071-1.17.177-1.773.248l-.674.106c-.567.071-1.135.177-1.7.248h-.071a.566.566 0 0 1-.284-.106.465.465 0 0 1-.071-.39c.035-.177.106-.284.284-.284.071 0 .106-.035.177-.035.106 0 .213-.035.319-.035h.213c.39-.035.78-.106 1.135-.142l.957-.142c.426-.071.816-.106 1.241-.177a.658.658 0 0 0 .248-.071h.248a.32.32 0 0 1 .177.035c.071 0 .142.035.106.213-.071.424-.142.494-.497.53z" transform="translate(-359.745 2.852)" style="fill:#021544"/>
        </g>
    </g>
</svg>
