<svg xmlns="http://www.w3.org/2000/svg" width="269.179" height="167.8" viewBox="0 0 269.179 167.8">
    <defs>
        <clipPath id="5cmioubiwa">
            <path data-name="Rectangle 8573" style="fill:none" d="M0 0h191.725v138.88H0z"/>
        </clipPath>
    </defs>
    <g data-name="Group 32758">
        <g data-name="Group 30967">
            <g data-name="Group 30955">
                <g data-name="Group 30939">
                    <g data-name="Group 30938" transform="translate(30.15 37.838)">
                        <path data-name="Line 395" transform="translate(0 13.665)" style="stroke-width:1.968px;stroke-miterlimit:10;stroke:#009672;opacity:.3;fill:none" d="M0 0h208.464"/>
                        <rect data-name="Rectangle 8559" width="208.464" height="128.979" rx="6.521" style="stroke-width:1.968px;stroke-miterlimit:10;stroke:#009672;opacity:.3;fill:none"/>
                        <g data-name="Group 30937">
                            <path data-name="Path 65409" d="M153.565 139.984a1.907 1.907 0 1 1-1.907-1.907 1.907 1.907 0 0 1 1.907 1.907z" transform="translate(-139.826 -133.012)" style="fill:#ffb1a5"/>
                            <path data-name="Path 65410" d="M171.317 139.984a1.907 1.907 0 1 1-1.906-1.907 1.907 1.907 0 0 1 1.906 1.907z" transform="translate(-150.168 -133.012)" style="fill:#ead254"/>
                            <path data-name="Path 65411" d="M189.07 139.984a1.907 1.907 0 1 1-1.907-1.907 1.907 1.907 0 0 1 1.907 1.907z" transform="translate(-160.509 -133.012)" style="fill:#00857b"/>
                        </g>
                    </g>
                </g>
                <g data-name="Group 30948">
                    <g data-name="Group 30942">
                        <g data-name="Group 30941">
                            <g data-name="Group 30940" transform="translate(214.201 47.218)">
                                <rect data-name="Rectangle 8560" width="53.995" height="50.313" rx="5.991" style="fill:#cffff4"/>
                                <rect data-name="Rectangle 8561" width="53.995" height="50.313" rx="5.991" style="stroke:#ded8d5;stroke-width:1.968px;stroke-miterlimit:10;fill:none"/>
                            </g>
                        </g>
                    </g>
                    <g data-name="Group 30947">
                        <g data-name="Group 30945">
                            <g data-name="Group 30944">
                                <g data-name="Group 30943" transform="translate(226.033 58.546)">
                                    <rect data-name="Rectangle 8562" width="30.492" height="25.896" rx="6.022" transform="rotate(180 15.246 12.948)" style="fill:#f51112"/>
                                </g>
                            </g>
                        </g>
                        <g data-name="Group 30946">
                            <path data-name="Path 65412" d="M628.755 203.713h-14.072v-9.437h14.071v9.437z" transform="translate(-380.52 -127.913)" style="stroke-width:1.647px;stroke-linecap:round;stroke-linejoin:round;stroke:#fff;fill:none"/>
                            <path data-name="Path 65413" d="m614.683 194.276 7.036 5.545 7.036-5.545" transform="translate(-380.52 -127.913)" style="stroke-width:1.647px;stroke-linecap:round;stroke-linejoin:round;stroke:#fff;fill:none"/>
                        </g>
                    </g>
                </g>
                <g data-name="Group 30954">
                    <g data-name="Group 30951">
                        <g data-name="Group 30950">
                            <g data-name="Group 30949" transform="translate(.984 89.966)">
                                <rect data-name="Rectangle 8563" width="51.494" height="45.507" rx="5.713" style="fill:#cffff4"/>
                                <rect data-name="Rectangle 8564" width="51.494" height="45.507" rx="5.713" style="stroke:#ded8d5;stroke-width:1.968px;stroke-miterlimit:10;fill:none"/>
                            </g>
                        </g>
                    </g>
                    <g data-name="Group 30953" transform="translate(11.722 97.76)">
                        <rect data-name="Rectangle 8565" width="29.776" height="28.946" rx="6.639" style="fill:#f51112"/>
                        <g data-name="Group 30952">
                            <path data-name="Path 65414" d="M100.249 287.119a8.419 8.419 0 1 0 11.906 0 8.452 8.452 0 0 0-11.906 0zm11.887 1.212h-2.683a17.072 17.072 0 0 0-1.043-2.528 7.6 7.6 0 0 1 3.726 2.528zm-9.025 4.248a13.621 13.621 0 0 1 .4-3.264h5.385a13.6 13.6 0 0 1 .4 3.264zm6.15.984a16.04 16.04 0 0 1-.578 3.264h-4.96a16.007 16.007 0 0 1-.579-3.264zm-3.058-8.087a7.644 7.644 0 0 1 1.189.092 15.469 15.469 0 0 1 1.221 2.762h-4.82a15.468 15.468 0 0 1 1.221-2.762 7.647 7.647 0 0 1 1.186-.091zm-2.208.326a17.023 17.023 0 0 0-1.043 2.528h-2.683a7.6 7.6 0 0 1 3.726-2.53zm-4.395 3.514h3.073a14.647 14.647 0 0 0-.43 3.264h-3.62a7.555 7.555 0 0 1 .977-3.264zm0 7.512a7.547 7.547 0 0 1-.976-3.264h3.634a15.861 15.861 0 0 0 .513 3.264zm.669.984h2.792a20.42 20.42 0 0 0 1.038 2.559 7.6 7.6 0 0 1-3.83-2.558zm5.933 2.855a7.668 7.668 0 0 1-.995-.065 22.663 22.663 0 0 1-1.177-2.79h4.344a22.791 22.791 0 0 1-1.177 2.79 7.68 7.68 0 0 1-.997.065zm2.1-.3a20.393 20.393 0 0 0 1.037-2.559h2.792a7.6 7.6 0 0 1-3.824 2.564zm4.5-3.543h-3.17a15.8 15.8 0 0 0 .513-3.264h3.634a7.549 7.549 0 0 1-.979 3.268zm.976-4.248h-3.619a14.647 14.647 0 0 0-.43-3.264h3.071a7.555 7.555 0 0 1 .981 3.268z" transform="translate(-91.132 -278.329)" style="fill:#fff"/>
                        </g>
                    </g>
                </g>
            </g>
            <g data-name="Group 30966" transform="translate(3.396)">
                <path data-name="Path 65415" d="M105.8 93.013H63.47a1.584 1.584 0 0 1-1.583-1.583 1.584 1.584 0 0 1 1.583-1.583h42.33a1.583 1.583 0 0 1 1.583 1.583 1.583 1.583 0 0 1-1.583 1.583z" transform="translate(-61.887 -67.077)" style="fill:#c98bd2"/>
                <path data-name="Path 65416" d="M663.47 340.7h-20.545a1.583 1.583 0 0 1-1.583-1.583 1.583 1.583 0 0 1 1.583-1.583h20.545a1.584 1.584 0 0 1 1.583 1.583 1.584 1.584 0 0 1-1.583 1.583z" transform="translate(-399.446 -211.365)" style="fill:#56dfed"/>
                <rect data-name="Rectangle 8566" width="4.899" height="4.746" rx="2.373" transform="translate(245.93 142.903)" style="fill:#c98bd2"/>
                <rect data-name="Rectangle 8567" width="4.899" height="4.746" rx="2.373" transform="translate(7.961 153.873)" style="fill:#ffb1a5"/>
                <g data-name="Group 30958">
                    <g data-name="Group 30957" transform="translate(160.772 11.585)">
                        <rect data-name="Rectangle 8568" width="44.295" height="12.716" rx="3.012" style="fill:#71ebce"/>
                        <g data-name="Group 30956">
                            <path data-name="Line 396" style="stroke-width:1.18px;stroke:#fff;stroke-miterlimit:10;fill:none" d="M0 0h29.713" transform="translate(6.033 4.531)"/>
                            <path data-name="Line 397" transform="translate(6.033 7.581)" style="stroke-width:1.18px;stroke:#fff;stroke-miterlimit:10;fill:none" d="M0 0h12.103"/>
                        </g>
                    </g>
                    <path data-name="Path 65417" d="M458.571 90.068v4.955l6.232-4.955z" transform="translate(-292.974 -67.206)" style="fill:#71ebce"/>
                </g>
                <g data-name="Group 30965">
                    <g data-name="Group 30963">
                        <g data-name="Group 30962">
                            <g data-name="Group 30961">
                                <g data-name="Group 30960">
                                    <g data-name="Group 30959">
                                        <path data-name="Rectangle 8569" d="M6.46 0h13.559a6.46 6.46 0 0 1 6.46 6.46V18.6a6.46 6.46 0 0 1-6.46 6.46H8.521A8.521 8.521 0 0 1 0 16.536V6.46A6.46 6.46 0 0 1 6.46 0z" style="fill:#f51112" transform="translate(77.379)"/>
                                    </g>
                                </g>
                            </g>
                        </g>
                    </g>
                    <g data-name="Group 30964">
                        <path data-name="Path 65418" d="m277.22 57.431-1.508-1.508a1.321 1.321 0 0 0-.969-.458 1.4 1.4 0 0 0-.969.43l-.861.862-.162-.081a2.482 2.482 0 0 1-.269-.135 9.284 9.284 0 0 1-2.235-2.046 4.889 4.889 0 0 1-.7-1.1c.215-.188.4-.4.592-.592l.242-.243a1.313 1.313 0 0 0 0-1.992l-.754-.754a2.449 2.449 0 0 1-.242-.269l-.512-.512a1.4 1.4 0 0 0-.969-.43 1.334 1.334 0 0 0-.969.43l-.943.943a2.166 2.166 0 0 0-.619 1.319 4.9 4.9 0 0 0 .35 2.046 11.011 11.011 0 0 0 2.1 3.527 13.089 13.089 0 0 0 4.308 3.366 7.151 7.151 0 0 0 2.423.727h.188a2.138 2.138 0 0 0 1.616-.7l.027-.027a4.145 4.145 0 0 1 .485-.485l.35-.35a1.351 1.351 0 0 0 0-1.968zm-.619 1.4-.323.323c-.188.162-.35.35-.538.539a1.28 1.28 0 0 1-.969.4h-.135a5.67 5.67 0 0 1-2.1-.646 12.256 12.256 0 0 1-4.012-3.15 11.678 11.678 0 0 1-1.965-3.258 3.336 3.336 0 0 1-.323-1.669 1.135 1.135 0 0 1 .377-.781l.915-.915a.565.565 0 0 1 .377-.188.513.513 0 0 1 .377.188l.485.485a2.515 2.515 0 0 0 .269.269l.754.754a.63.63 0 0 1 .189.377.564.564 0 0 1-.189.377l-.242.242-.673.673-.027.027a.589.589 0 0 0-.161.673v.027a6.212 6.212 0 0 0 .888 1.454 10 10 0 0 0 2.45 2.235 2.242 2.242 0 0 0 .35.188 2.519 2.519 0 0 1 .269.135l.027.027a.618.618 0 0 0 .754-.134l.942-.943a.445.445 0 0 1 .727 0l1.506 1.51a.51.51 0 0 1 0 .781z" transform="translate(-180.423 -43.05)" style="fill:#fff"/>
                    </g>
                </g>
            </g>
        </g>
        <g data-name="Group 31028">
            <g data-name="Group 31027" style="clip-path:url(#5cmioubiwa)" transform="translate(49.352 27.599)">
                <g data-name="Group 31026">
                    <g data-name="Group 30988">
                        <g data-name="Group 30968">
                            <path data-name="Path 65419" d="m470.038 319.751-15.238-2.029.119 1.513-13.028 1.735s-8.4 21.068-1 67.4h10.6l3.814-46.984h1.355l3.694 46.984h10.6c7.4-46.332-.916-68.619-.916-68.619z" transform="translate(-326.857 -227.424)" style="fill:#f51112"/>
                            <path data-name="Line 398" transform="translate(123.604 113.966)" style="stroke-width:1.233px;stroke:#282828;stroke-linecap:round;stroke-linejoin:round;fill:none" d="M0 0h11.057"/>
                        </g>
                        <g data-name="Group 30977">
                            <g data-name="Group 30974">
                                <g data-name="Group 30970">
                                    <g data-name="Group 30969">
                                        <path data-name="Path 65420" d="M522.87 266.473c-1.3-2.081-8.627-2.007-9.013-2.053-1.98-.232 1.269 15.521 5.388 29.291a4.623 4.623 0 0 0 6.231 2.94l.082-.035a4.63 4.63 0 0 0 2.745-5.123c-1.959-10.393-3.925-22.614-5.433-25.02z" transform="translate(-370.79 -196.372)" style="fill:#ffb1a5"/>
                                    </g>
                                    <path data-name="Path 65421" d="m526.19 278.489-9.35 3.628-.877-4.436 9.681-2.415z" transform="translate(-372.364 -202.691)" style="fill:#f3978e"/>
                                    <path data-name="Path 65422" d="M538.794 298.75s-4.429 5.948-4.218 5.675 3.474-9.613 3.474-9.613z" transform="translate(-383.202 -214.078)" style="fill:#f3978e"/>
                                </g>
                                <g data-name="Group 30973">
                                    <path data-name="Path 65423" d="m540.786 285.092-12.7 16.449a4.668 4.668 0 0 0 1.154 6.768 4.668 4.668 0 0 0 6.646-1.691l10.567-19.5z" transform="translate(-378.862 -208.415)" style="fill:#ffb1a5"/>
                                    <g data-name="Group 30971">
                                        <path data-name="Path 65424" d="M562.668 280.947a5.237 5.237 0 1 1 6.593-3.373 5.237 5.237 0 0 1-6.593 3.373z" transform="translate(-397.458 -200.046)" style="fill:#ffb1a5"/>
                                        <path data-name="Path 65425" d="M568.452 271.5s1.433-1.488-1.109-2.531-5.686-.8-7.693 4.069z" transform="translate(-397.814 -198.73)" style="fill:#ffb1a5"/>
                                    </g>
                                    <g data-name="Group 30972">
                                        <path data-name="Path 65426" d="m576.02 250.765 5.316 2.3a.548.548 0 0 1 .24.783l-6.993 13.062a.669.669 0 0 1-.83.319l-5.316-2.3a.548.548 0 0 1-.24-.783l6.993-13.062a.668.668 0 0 1 .83-.319z" transform="translate(-402.749 -188.391)" style="fill:#372f5f"/>
                                        <path data-name="Path 65427" d="m574.8 250.211 5.316 2.3a.548.548 0 0 1 .24.783l-6.993 13.062a.669.669 0 0 1-.83.319l-5.316-2.3a.548.548 0 0 1-.24-.783l6.993-13.062a.669.669 0 0 1 .83-.319z" transform="translate(-402.04 -188.068)" style="fill:#261b43"/>
                                        <path data-name="Path 65428" d="m576.438 253.461 4.671 2.025-5.7 10.646-4.671-2.025z" transform="translate(-404.274 -189.989)" style="fill:#e6e6e6"/>
                                        <path data-name="Path 65429" d="m581.109 255.486-10.37 8.621 5.7-10.646z" transform="translate(-404.274 -189.989)" style="fill:#fff"/>
                                    </g>
                                    <path data-name="Path 65430" d="M568.469 268.631a8.481 8.481 0 0 1 2.252.836 1.2 1.2 0 0 1 .581 1.335 1.194 1.194 0 0 1-1.009.9l-2.764.349s-1.442 2.485-3.326 2.764l1.728-4.364z" transform="translate(-400.466 -198.826)" style="fill:#ffb1a5"/>
                                </g>
                            </g>
                            <g data-name="Group 30976">
                                <g data-name="Group 30975">
                                    <path data-name="Path 65431" d="M456.3 219.721c-.305 0 19.6 2.754 22.882 25.445l-10.328 1.583-2.082 17.131h-28.808l-5.72-31.651a35.944 35.944 0 0 1 18.235-12.507z" transform="translate(-323.594 -170.334)" style="fill:#56dfed"/>
                                    <path data-name="Line 399" transform="translate(145.263 66.507)" style="stroke-width:1.233px;stroke:#282828;stroke-linecap:round;stroke-linejoin:round;fill:none" d="M0 9.908.896 0"/>
                                </g>
                            </g>
                        </g>
                        <g data-name="Group 30987" transform="translate(117.621 6.991)">
                            <path data-name="Path 65432" d="M478.056 209.5v-7.882h-9.237v7.975a17.934 17.934 0 0 0-2.481 1.006l7.2 4.291 7.365-4.291a12.016 12.016 0 0 0-2.847-1.099z" transform="translate(-461.076 -166.779)" style="fill:#ffb1a5"/>
                            <path data-name="Path 65433" d="M472.077 200.534s1.659 4.4 6.087 4.024c4.07-.349 3.422-6.454 3.422-6.454z" transform="translate(-464.419 -164.732)" style="fill:#282828"/>
                            <g data-name="Group 30980">
                                <path data-name="Path 65434" d="M457.362 182.171c-1.448 1.313-4.685-3.668-3.286-5.066s2.466.8 2.466.8l.625 1.487.471 2.014.112.528z" transform="translate(-453.733 -152.228)" style="fill:#f3978e"/>
                                <g data-name="Group 30979">
                                    <g data-name="Group 30978">
                                        <path data-name="Path 65435" d="M456.175 181.881s1.1-.493 2.069 1.1" transform="translate(-455.156 -155.24)" style="stroke-width:.993px;stroke:#282828;stroke-linecap:round;stroke-linejoin:round;fill:none"/>
                                    </g>
                                </g>
                            </g>
                            <g data-name="Group 30983">
                                <path data-name="Path 65436" d="M502.931 182.108c1.331 1.431 4.978-3.258 3.7-4.77s-2.525.584-2.525.584l-.748 1.428-.64 1.967-.156.516z" transform="translate(-482.18 -152.317)" style="fill:#f3978e"/>
                                <g data-name="Group 30982">
                                    <g data-name="Group 30981">
                                        <path data-name="Path 65437" d="M507.333 182.021s-1.05-.584-2.155.917" transform="translate(-483.702 -155.298)" style="stroke-width:.993px;stroke:#282828;stroke-linecap:round;stroke-linejoin:round;fill:none"/>
                                    </g>
                                </g>
                            </g>
                            <g data-name="Group 30984">
                                <path data-name="Path 65438" d="M456.344 150.913c0 6.593 5.027 9.72 11.228 9.72s11.228-3.126 11.228-9.72a11.229 11.229 0 0 0-22.456 0z" transform="translate(-455.254 -130.787)" style="fill:#282828"/>
                            </g>
                            <path data-name="Path 65439" d="M459.99 153.486a45.079 45.079 0 0 0 1.143 10.02 8.7 8.7 0 0 0 4.354 5.488l.4.249a7.641 7.641 0 0 0 7.778.086 8.737 8.737 0 0 0 4.613-5.859 65.9 65.9 0 0 0 1.047-9.983s.9-10.218-9.532-10.019-9.803 10.018-9.803 10.018z" transform="translate(-457.374 -132.902)" style="fill:#ffb1a5"/>
                            <g data-name="Group 30986" transform="translate(2.401 19.822)">
                                <path data-name="Path 65440" d="M481.648 181.441v1.414a.643.643 0 0 0 .045.238.63.63 0 0 0 .751.347l.649-.172" transform="translate(-472.395 -174.847)" style="stroke-width:1.232px;stroke:#282828;stroke-linecap:round;stroke-linejoin:round;fill:none"/>
                                <path data-name="Path 65441" d="m470.442 167.318-5.183 1.215s.235-1.319 2.356-1.8 2.827.585 2.827.585z" transform="translate(-462.848 -166.208)" style="fill:#282828"/>
                                <path data-name="Path 65442" d="m488.7 167.318 5.005 1.215s-.228-1.319-2.275-1.8-2.73.585-2.73.585z" transform="translate(-476.501 -166.208)" style="fill:#282828"/>
                                <ellipse data-name="Ellipse 4009" cx=".874" cy=".872" rx=".874" ry=".872" transform="translate(4.751 4.047)" style="fill:#282828"/>
                                <path data-name="Path 65443" d="M492.464 176.211a.874.874 0 1 1-.874-.872.873.873 0 0 1 .874.872z" transform="translate(-477.678 -171.293)" style="fill:#282828"/>
                                <path data-name="Path 65444" d="M475.052 190.172h6.741s-2.988 3.634-6.741 0z" transform="translate(-468.553 -179.933)" style="fill:#fff"/>
                                <g data-name="Group 30985">
                                    <circle data-name="Ellipse 4010" cx="3.717" cy="3.717" r="3.717" transform="rotate(-45 6.346 2.628)" style="stroke:#c98bd2;stroke-width:1.342px;stroke-miterlimit:10;fill:none"/>
                                    <circle data-name="Ellipse 4011" cx="3.717" cy="3.717" r="3.717" transform="rotate(-45 10.912 -8.395)" style="stroke:#c98bd2;stroke-width:1.342px;stroke-miterlimit:10;fill:none"/>
                                    <path data-name="Path 65445" d="M480.982 177.729a1.21 1.21 0 0 1 1.7 0" transform="translate(-472.007 -172.472)" style="stroke:#c98bd2;stroke-width:1.342px;stroke-miterlimit:10;fill:none"/>
                                    <path data-name="Line 400" transform="translate(.369 5.227)" style="stroke:#c98bd2;stroke-width:1.342px;stroke-miterlimit:10;fill:none" d="M1.171.03 0 0"/>
                                    <path data-name="Line 401" transform="translate(18.107 5.227)" style="stroke:#c98bd2;stroke-width:1.342px;stroke-miterlimit:10;fill:none" d="M0 .03 1.178 0"/>
                                </g>
                            </g>
                            <path data-name="Path 65446" d="M501.329 159.75s-4.17-5.637-3.208-11.348a8.216 8.216 0 0 1 3.9 5.578c.807 4.02-.692 5.77-.692 5.77z" transform="translate(-479.507 -135.779)" style="fill:#282828"/>
                            <path data-name="Path 65447" d="M459.173 159.6s4.844-6.4 3.882-12.114a9.538 9.538 0 0 0-4.166 5.961c-.806 4.018.284 6.153.284 6.153z" transform="translate(-456.564 -135.243)" style="fill:#282828"/>
                            <path data-name="Path 65448" d="M477.253 147.2s-5.355 5.862-20 4.858c0 0 2.243-8.6 9.343-9.518-.004-.003 8.194-.982 10.657 4.66z" transform="translate(-455.781 -132.324)" style="fill:#282828"/>
                            <circle data-name="Ellipse 4012" cx="6.995" cy="6.995" r="6.995" transform="rotate(-80.831 14.647 -.772)" style="fill:#282828"/>
                        </g>
                    </g>
                    <g data-name="Group 31002">
                        <path data-name="Path 65449" d="m254.888 318.011-13.028-1.735.119-1.513-15.237 2.029s-8.317 22.287-.915 68.623h10.6l3.694-46.984h1.355l3.814 46.984h10.6c7.396-46.335-1.002-67.404-1.002-67.404z" transform="translate(-201.559 -225.7)" style="fill:#282828"/>
                        <g data-name="Group 30997">
                            <path data-name="Path 65450" d="M250.3 152.093a24.025 24.025 0 0 1-4.375-7.89c-1.288-3.646-5.506-2.164-5.506-2.164s-3.515-4.521-8.8-2.947-7.126 5.338-7.234 9.813-3.627 5.174-6.337 10.35c-4.784 9.138 3.271 16.835 17.933 14.7l.02-.142a15.385 15.385 0 0 0 5.373.5c17.61-1.044 15.91-14.001 8.926-22.22z" transform="translate(-198.008 -123.17)" style="fill:#282828"/>
                            <g data-name="Group 30991">
                                <path data-name="Path 65451" d="M282.88 179.213c1.448 1.313 4.685-3.668 3.286-5.066s-2.466.8-2.466.8l-.625 1.487-.471 2.014-.112.527z" transform="translate(-236.357 -143.513)" style="fill:#f3978e"/>
                                <g data-name="Group 30990">
                                    <g data-name="Group 30989">
                                        <path data-name="Path 65452" d="M286.785 178.923s-1.1-.493-2.069 1.1" transform="translate(-237.653 -146.526)" style="stroke-width:.993px;stroke:#282828;stroke-linecap:round;stroke-linejoin:round;fill:none"/>
                                    </g>
                                </g>
                            </g>
                            <g data-name="Group 30994">
                                <path data-name="Path 65453" d="M236.868 179.15c-1.331 1.431-4.978-3.258-3.7-4.77s2.525.584 2.525.584l.748 1.429.64 1.967.156.516z" transform="translate(-207.467 -143.602)" style="fill:#f3978e"/>
                                <g data-name="Group 30993">
                                    <g data-name="Group 30992">
                                        <path data-name="Path 65454" d="M235.508 179.063s1.05-.584 2.155.917" transform="translate(-208.987 -146.584)" style="stroke-width:.993px;stroke:#282828;stroke-linecap:round;stroke-linejoin:round;fill:none"/>
                                    </g>
                                </g>
                            </g>
                            <g data-name="Group 30995">
                                <path data-name="Path 65455" d="M258.167 147.955c0 6.593-5.027 9.72-11.228 9.72s-11.228-3.127-11.228-9.72a11.229 11.229 0 0 1 22.456 0z" transform="translate(-209.105 -122.073)" style="fill:#282828"/>
                            </g>
                            <path data-name="Rectangle 8570" transform="translate(33.172 40.594)" style="fill:#ffb1a5" d="M0 0h9.237v11.961H0z"/>
                            <path data-name="Path 65456" d="M248.211 196.872s2.571 5.131 5.734 5.932a4.452 4.452 0 0 0 2.562-.148 5.507 5.507 0 0 0 2.957-4.161l.119-1.122a11.911 11.911 0 0 1-11.372-.501z" transform="translate(-216.387 -157.023)" style="fill:#282828"/>
                            <path data-name="Path 65457" d="M258.833 150.528a45.067 45.067 0 0 1-1.143 10.019 8.7 8.7 0 0 1-4.354 5.489l-.4.248a7.641 7.641 0 0 1-7.778.086 8.737 8.737 0 0 1-4.613-5.859 65.924 65.924 0 0 1-1.047-9.983s-.9-10.218 9.532-10.019 9.803 10.019 9.803 10.019z" transform="translate(-211.297 -124.188)" style="fill:#ffb1a5"/>
                            <g data-name="Group 30996">
                                <path data-name="Path 65458" d="M260.938 179.808v.84a.641.641 0 0 0 .046.237.631.631 0 0 0 .751.346l.649-.172" transform="translate(-223.801 -147.083)" style="stroke-width:1.23px;stroke:#282828;stroke-linecap:round;stroke-linejoin:round;fill:none"/>
                                <path data-name="Path 65459" d="m266.144 165.472 5.549 1.313s-.252-1.426-2.522-1.944-3.027.631-3.027.631z" transform="translate(-226.833 -138.286)" style="fill:#282828"/>
                                <path data-name="Path 65460" d="m251.322 165.472-5.62 1.313s.255-1.426 2.554-1.944 3.066.631 3.066.631z" transform="translate(-214.925 -138.286)" style="fill:#282828"/>
                                <path data-name="Path 65461" d="M251.9 173.577a.874.874 0 1 1-.874-.869.871.871 0 0 1 .874.869z" transform="translate(-217.518 -142.947)" style="fill:#282828"/>
                                <path data-name="Path 65462" d="M271.754 173.577a.874.874 0 1 1-.874-.869.871.871 0 0 1 .874.869z" transform="translate(-229.083 -142.947)" style="fill:#282828"/>
                                <path data-name="Path 65463" d="M252.959 186.7h7.672s-.541 2.108-4.021 2.108a4.069 4.069 0 0 1-3.651-2.108z" transform="translate(-219.153 -151.097)" style="fill:#fff"/>
                            </g>
                            <path data-name="Path 65464" d="M238.542 156.792s4.17-5.638 3.208-11.349a8.218 8.218 0 0 0-3.9 5.578c-.807 4.02.692 5.771.692 5.771z" transform="translate(-210.211 -127.064)" style="fill:#282828"/>
                            <path data-name="Path 65465" d="M280.271 156.069s-4.844-5.833-3.882-11.544a9.538 9.538 0 0 1 4.166 5.961c.805 4.02-.284 5.583-.284 5.583z" transform="translate(-232.728 -126.529)" style="fill:#282828"/>
                            <path data-name="Path 65466" d="M240.679 144.239s4.785 6.431 19.435 5.428c0 0-1.674-9.171-8.773-10.087-.001-.001-8.198-.98-10.662 4.659z" transform="translate(-211.999 -123.61)" style="fill:#282828"/>
                        </g>
                        <g data-name="Group 31001">
                            <g data-name="Group 30999">
                                <g data-name="Group 30998">
                                    <path data-name="Path 65467" d="M203.1 316.119c-.213.335 12.193-53.979 8.51-53.158-.336.075-6.787.674-7.745 2.623-2.779 5.651-4.773 50.123-4.773 50.123z" transform="translate(-187.77 -195.519)" style="fill:#ffb1a5"/>
                                    <path data-name="Path 65468" d="M198.753 387.752s-2 9.277 5.56 10.292a1.062 1.062 0 0 0 1.143-.7l.022-.063a1.061 1.061 0 0 0-.588-1.312c-1.232-.551-3.144-1.944-2.2-5.105 0 0 1.092-.134 1.7 1.9a.876.876 0 0 0 1.232.541.876.876 0 0 0 .474-.9c-.181-1.428-.9-4.864-3.655-5.786z" transform="translate(-187.436 -267.564)" style="fill:#ffb1a5"/>
                                </g>
                                <path data-name="Path 65469" d="M205.181 289.33s7.148 10.067 7.186 9.872 2.5-14.133 2.5-14.133l-8.674-3.757z" transform="translate(-191.32 -206.214)" style="fill:#f3978e"/>
                            </g>
                            <g data-name="Group 31000">
                                <path data-name="Path 65470" d="M223.522 222.393c.305 0-17.666.32-20.95 23.012l10.328 1.582 2.082 17.131h28.811l5.72-31.651s-4.066-6.858-15.919-10.217z" transform="translate(-189.8 -171.807)" style="fill:#00857b"/>
                                <path data-name="Path 65471" d="M231.716 222.646s2.54 3.371 12.946 3.371c10.309 0 12.945-3.548 12.945-3.548a44.449 44.449 0 0 0-13.129-4.494 46.718 46.718 0 0 0-12.762 4.671z" transform="translate(-206.778 -169.318)" style="fill:#ffb1a5"/>
                            </g>
                        </g>
                    </g>
                    <g data-name="Group 31025">
                        <g data-name="Group 31004">
                            <g data-name="Group 31003">
                                <path data-name="Path 65472" d="m316.414 401.367.025 45.254h22.387l1.721-45.254z" transform="translate(-256.118 -276.152)" style="fill:#005683"/>
                                <path data-name="Path 65473" d="m399.179 401.367-.025 45.254h-22.387l-1.721-45.254z" transform="translate(-290.274 -276.152)" style="fill:#005683"/>
                                <path data-name="Rectangle 8571" transform="translate(73.53 125.215)" style="fill:#005683" d="M0 0h23.148v15.722H0z"/>
                            </g>
                            <path data-name="Line 402" transform="translate(76.764 140.937)" style="stroke-width:1.397px;stroke:#282828;stroke-linecap:round;stroke-linejoin:round;fill:none" d="M0 0h15.966"/>
                        </g>
                        <g data-name="Group 31015">
                            <g data-name="Group 31006">
                                <g data-name="Group 31005">
                                    <path data-name="Path 65474" d="M445.769 306.763c1.388 15.335-.076 26.508.329 54.725l-13.362.559-1.991-52.817z" transform="translate(-322.721 -221.041)" style="fill:#ffb1a5"/>
                                    <path data-name="Path 65475" d="M434.686 324.58s8.275-.758 13.932-4.489l-.149-3.284-13.788 1.878z" transform="translate(-325.014 -226.892)" style="fill:#f3978e"/>
                                </g>
                                <path data-name="Path 65476" d="M402.894 222.188s26.282 6.61 31.045 39.97c0 0-12.863 5.577-25.754 3.178l2.9-11.158z" transform="translate(-306.496 -171.772)" style="fill:#f51112"/>
                            </g>
                            <g data-name="Group 31013">
                                <g data-name="Group 31010">
                                    <path data-name="Path 65477" d="m203.7 255.417 19.569 23.111-5.988 16.864s-14.874-20.679-21.557-36.663z" transform="translate(-185.812 -191.129)" style="fill:#ffb1a5"/>
                                    <g data-name="Group 31009">
                                        <g data-name="Group 31008">
                                            <g data-name="Group 31007">
                                                <path data-name="Path 65478" d="M196.561 238.408s-6.872 3.882-8.62 2.478c-3.055-2.454-5.578-11.438-5.578-11.438s12.85-4.845 12.729-4.655 1.469 13.615 1.469 13.615z" transform="translate(-178.027 -173.286)" style="fill:#ffb1a5"/>
                                                <path data-name="Path 65479" d="M213.127 239.912c-.121-.692 2.548-8.155 3.464-10.954a1.235 1.235 0 0 0-.977-1.555 1.426 1.426 0 0 0-1.59.652l-3.223 5.509z" transform="translate(-194.593 -174.79)" style="fill:#ffb1a5"/>
                                                <path data-name="Path 65480" d="m209.107 221.16-2.213-11.01a1.386 1.386 0 0 0-1.6-1.1 1.193 1.193 0 0 0-.98 1.324l.964 8.2z" transform="translate(-190.809 -164.105)" style="fill:#ffb1a5"/>
                                                <path data-name="Path 65481" d="m197.552 216.124-3.005-7.862a1.379 1.379 0 0 0-1.707-.841 1.188 1.188 0 0 0-.786 1.41l2.23 9.085z" transform="translate(-183.653 -163.13)" style="fill:#ffb1a5"/>
                                                <path data-name="Path 65482" d="m188.433 221.939-3.8-7.725a1.511 1.511 0 0 0-1.93-.74 1.317 1.317 0 0 0-.679 1.739l3.031 7.293z" transform="translate(-177.765 -166.628)" style="fill:#ffb1a5"/>
                                                <path data-name="Path 65483" d="m178.061 227.213-2.984-4.733a1.069 1.069 0 0 1 .521-1.428 1.221 1.221 0 0 1 1.491.434l3.923 5.443z" transform="translate(-173.725 -171.051)" style="fill:#ffb1a5"/>
                                            </g>
                                        </g>
                                        <path data-name="Path 65484" d="M207.475 236.095s-4.481-.47-4.941 5.5" transform="translate(-189.777 -179.868)" style="stroke-width:1.532px;stroke:#282828;stroke-linecap:round;stroke-linejoin:round;fill:none"/>
                                    </g>
                                </g>
                                <g data-name="Group 31012">
                                    <g data-name="Group 31011">
                                        <path data-name="Path 65485" d="M237.859 286.144s3.681 12.738 11.015 11.044 18.766-17.358 18.766-17.358l-2.559-26.748-20.581 25.337z" transform="translate(-210.356 -189.769)" style="fill:#ffb1a5"/>
                                        <path data-name="Path 65486" d="M269.051 291.714S276 302.2 281.93 305.894l3.88-4.9-14.97-11.581z" transform="translate(-228.527 -210.935)" style="fill:#f3978e"/>
                                    </g>
                                    <path data-name="Path 65487" d="M298.244 220.8s-20.405 4.6-31.279 28.314c0 0 6.57 9.9 17.1 14.3l7.052-8.639z" transform="translate(-227.312 -170.965)" style="fill:#f51112"/>
                                </g>
                            </g>
                            <g data-name="Group 31014">
                                <path data-name="Path 65488" d="M323.777 218.155a51.1 51.1 0 0 0-12.982 9.511l1.573 69.322H362.6l-.163-68.965s-6.332-6.2-13.194-9.217c-5.829-2.565-19.8-3.557-25.466-.651z" transform="translate(-252.844 -168.39)" style="fill:#f51112"/>
                                <path data-name="Rectangle 8572" d="M0 0h13.973v6.987a6.987 6.987 0 0 1-6.987 6.987h0A6.987 6.987 0 0 1 0 6.987V0h0z" transform="translate(87.715 69.57)" style="stroke-width:1.397px;stroke:#282828;stroke-linecap:round;stroke-linejoin:round;fill:none"/>
                                <path data-name="Line 403" transform="translate(109.672 71.145)" style="stroke-width:1.397px;stroke:#282828;stroke-linecap:round;stroke-linejoin:round;fill:none" d="M0 22.677.652 0"/>
                                <path data-name="Line 404" transform="translate(57.637 70.385)" style="stroke-width:1.397px;stroke:#282828;stroke-linecap:round;stroke-linejoin:round;fill:none" d="M1.085 19.658 0 0"/>
                            </g>
                        </g>
                        <g data-name="Group 31024">
                            <path data-name="Path 65489" d="m340.049 134.417-2.094-10.359a7.28 7.28 0 0 1-.044-3.369c.663-2.024 3.1-5.912 7.267-4.132l.9 4.1s-4.326.873-6.062 6.533z" transform="translate(-268.528 -109.972)" style="fill:#282828"/>
                            <path data-name="Path 65490" d="M346.151 122.313c-.076 1.361-1.277 7.316-5.5 9.486-.001.001-3.7-7.934 5.5-9.486z" transform="translate(-269.809 -113.59)" style="fill:#282828"/>
                            <path data-name="Path 65491" d="M360.982 191.511v-17.59h-16.216v17.59l-4.827 2.2s1.132 7.29 13.105 7.452 13.176-7.093 13.176-7.093z" transform="translate(-269.823 -143.654)" style="fill:#ffb1a5"/>
                            <path data-name="Path 65492" d="M355.588 110.353s2.976-7.851 12.153-3.677c5.554 2.526 7.11 5.913 7.772 8.313a9.653 9.653 0 0 1 .248 2.8l-2.22 10.425-8.666-14.424-8.386.665z" transform="translate(-278.939 -103.768)" style="fill:#282828"/>
                            <g data-name="Group 31018">
                                <path data-name="Path 65493" d="M397.251 158.411a2.7 2.7 0 0 1 3.348-.884c2.255.855 1.235 6.332-2.147 7.029a2.675 2.675 0 0 1-2.163-.566s.831-4.044.962-5.579z" transform="translate(-302.649 -133.966)" style="fill:#f3978e"/>
                                <g data-name="Group 31017">
                                    <g data-name="Group 31016">
                                        <path data-name="Path 65494" d="M401.036 162.4s-1.889-.63-3.229 2.151" transform="translate(-303.534 -136.906)" style="stroke-width:1.397px;stroke:#282828;stroke-linecap:round;stroke-linejoin:round;fill:none"/>
                                    </g>
                                </g>
                            </g>
                            <g data-name="Group 31021">
                                <path data-name="Path 65495" d="M336.95 158.411a2.7 2.7 0 0 0-3.348-.884c-2.255.855-1.235 6.332 2.147 7.029a2.675 2.675 0 0 0 2.163-.566s-.832-4.044-.962-5.579z" transform="translate(-265.429 -133.966)" style="fill:#f3978e"/>
                                <g data-name="Group 31020">
                                    <g data-name="Group 31019">
                                        <path data-name="Path 65496" d="M336.354 162.4s1.889-.63 3.229 2.151" transform="translate(-267.734 -136.906)" style="stroke-width:1.397px;stroke:#282828;stroke-linecap:round;stroke-linejoin:round;fill:none"/>
                                    </g>
                                </g>
                            </g>
                            <path data-name="Path 65497" d="M366.247 131.155c0 3.3-.323 10.208-2.352 14.307a10.11 10.11 0 0 1-9.189 6.043c-4.132.123-7.209-1.469-9.676-6.464s-2.349-13.825-2.349-13.825 0-11.793 11.655-11.793c12.276.001 11.911 11.732 11.911 11.732z" transform="translate(-271.419 -111.907)" style="fill:#ffb1a5"/>
                            <path data-name="Path 65498" d="M351.794 186.688s1.358 6.89 7.354 7.682c6.9.911 8.739-7.507 8.739-7.507a10.979 10.979 0 0 1-7.872 3.827 10.552 10.552 0 0 1-8.221-4.002z" transform="translate(-276.729 -151.091)" style="fill:#282828"/>
                            <g data-name="Group 31023">
                                <path data-name="Path 65499" d="M368.917 159.254v2.729a.892.892 0 0 0 .064.333.878.878 0 0 0 1.047.486l.905-.241" transform="translate(-286.704 -135.11)" style="stroke-width:1.397px;stroke:#282828;stroke-linecap:round;stroke-linejoin:round;fill:none"/>
                                <path data-name="Path 65500" d="M357.71 154.651a1.061 1.061 0 1 1-1.061-1.061 1.061 1.061 0 0 1 1.061 1.061z" transform="translate(-278.939 -131.81)" style="fill:#282828"/>
                                <path data-name="Path 65501" d="M381.54 154.651a1.061 1.061 0 1 1-1.061-1.061 1.061 1.061 0 0 1 1.061 1.061z" transform="translate(-292.821 -131.81)" style="fill:#282828"/>
                                <path data-name="Path 65502" d="m375.454 141.99 7.134 1.843s-.324-2-3.243-2.728-3.891.885-3.891.885z" transform="translate(-290.512 -124.427)" style="fill:#282828"/>
                                <path data-name="Path 65503" d="m354.88 141.99-7.134 1.843s.324-2 3.243-2.728 3.891.885 3.891.885z" transform="translate(-274.371 -124.427)" style="fill:#282828"/>
                                <path data-name="Path 65504" d="M361.436 172.379s1.052.807 3.82.807a9.673 9.673 0 0 0 4.089-.807" transform="translate(-282.346 -142.756)" style="stroke-width:1.397px;stroke:#282828;stroke-linecap:round;stroke-linejoin:round;fill:none"/>
                                <g data-name="Group 31022" transform="translate(71.404 18.642)">
                                    <circle data-name="Ellipse 4013" cx="4.509" cy="4.509" r="4.509" transform="translate(1.512)" style="stroke-width:1.951px;stroke:#fff;stroke-miterlimit:10;fill:none"/>
                                    <circle data-name="Ellipse 4014" cx="4.509" cy="4.509" r="4.509" transform="translate(12.588)" style="stroke-width:1.951px;stroke:#fff;stroke-miterlimit:10;fill:none"/>
                                    <path data-name="Path 65505" d="M368.246 156.257a1.467 1.467 0 0 1 2.059 0" transform="translate(-357.717 -151.748)" style="stroke-width:1.951px;stroke:#fff;stroke-miterlimit:10;fill:none"/>
                                    <path data-name="Line 405" transform="translate(0 4.47)" style="stroke-width:1.951px;stroke:#fff;stroke-miterlimit:10;fill:none" d="M1.512.038 0 0"/>
                                    <path data-name="Line 406" transform="translate(21.605 4.481)" style="stroke-width:1.951px;stroke:#fff;stroke-miterlimit:10;fill:none" d="M0 .027 1.688 0"/>
                                </g>
                            </g>
                            <path data-name="Path 65506" d="M351.794 119.31s2.165 6.151 11.935 5.962c6.639-.128 8.225 4.676 8.225 4.676s-1.156-10.74-1.459-10.638-10.1-2.615-10.1-2.615z" transform="translate(-276.729 -110.317)" style="fill:#282828"/>
                        </g>
                    </g>
                </g>
            </g>
        </g>
    </g>
</svg>
