<svg xmlns="http://www.w3.org/2000/svg" width="18" height="17.981" viewBox="0 0 18 17.981">
    <g data-name="Group 32460">
        <g data-name="Group 32459">
            <path data-name="Path 65425" d="M17.973 7.304a10.051 10.051 0 0 0-3.5-5.334A8.89 8.89 0 0 0 9.042.001a9.3 9.3 0 0 0-5.523 1.914A9.669 9.669 0 0 0 .036 7.192a.556.556 0 0 0-.03.18v3.72a.559.559 0 0 0 .558.558h2.009a.559.559 0 0 0 .558-.558V7.369a.559.559 0 0 0-.558-.558H.782a9.021 9.021 0 0 1 3.107-4.414A8.552 8.552 0 0 1 9.043.608a8.141 8.141 0 0 1 5.055 1.839 9.4 9.4 0 0 1 3.093 4.364H15.56a.681.681 0 0 0-.68.68v3.478a.681.681 0 0 0 .68.68h1.837v2.385a2.7 2.7 0 0 1-2.7 2.7h-3.741a.304.304 0 0 0 0 .609h3.741a3.309 3.309 0 0 0 3.305-3.305V7.499a.661.661 0 0 0-.027-.188zM2.517 11.04H.61V7.422h1.907zm14.8 0h-1.766a.07.07 0 0 1-.071-.071V7.492a.07.07 0 0 1 .071-.071h1.766a.07.07 0 0 1 .071.071v3.477a.07.07 0 0 1-.067.071z"/>
            <g data-name="Group 32459">
                <path data-name="Path 65426" d="M13.42 12.069V7.297a.485.485 0 0 0-.484-.484H5.397a.485.485 0 0 0-.484.484v5.978a.484.484 0 0 0 .813.355l1.163-1.077h6.047a.485.485 0 0 0 .484-.484zm-.609-.125H6.769a.3.3 0 0 0-.207.081l-1.041.963V7.421h7.289v4.522z"/>
                <path data-name="Path 65427" d="M7.334 10.278a.577.577 0 1 0-.577-.577.578.578 0 0 0 .577.577zm0-.609a.032.032 0 1 1-.032.032.032.032 0 0 1 .032-.032z"/>
                <path data-name="Path 65428" d="M9.095 10.278a.577.577 0 1 0-.577-.577.578.578 0 0 0 .577.577zm0-.609a.032.032 0 1 1-.032.032.032.032 0 0 1 .032-.032z"/>
                <path data-name="Path 65429" d="M10.857 10.278a.577.577 0 1 0-.577-.577.578.578 0 0 0 .577.577zm0-.609a.032.032 0 1 1-.032.032.032.032 0 0 1 .032-.032z"/>
            </g>
        </g>
        <g data-name="Rectangle 10622" transform="translate(7 15.981)" style="stroke:#000;stroke-width:.5px;fill:none">
            <rect width="4" height="2" rx="1" style="stroke:none"/>
            <rect x=".25" y=".25" width="3.5" height="1.5" rx=".75" style="fill:none"/>
        </g>
    </g>
</svg>
