<svg xmlns="http://www.w3.org/2000/svg" width="18.189" height="18.026" viewBox="0 0 18.189 18.026">
    <g data-name="Group 32747">
        <path data-name="Path 66839" d="M216.815 118.9a2.372 2.372 0 0 1 .808 1.062c.019-.023.035-.047.056-.068a.87.87 0 0 1 .222-.157 2.061 2.061 0 0 0-.806-1.264.931.931 0 0 0-.615-.189 1.074 1.074 0 0 0-.3.2.962.962 0 0 0-.148.2 1.09 1.09 0 0 1 .779.22z" transform="translate(-212.044 -114.905)" style="fill:#d91515"/>
        <path data-name="Path 66840" d="m224.279 121.322-6.809-6.807a1.882 1.882 0 0 0-1.064-.473l-4.984-.256a1.292 1.292 0 0 0-.3.024 1.384 1.384 0 0 1 .31.164 2.26 2.26 0 0 1 .883 1.353.876.876 0 1 1-.6.52 2.161 2.161 0 0 0-.782-1.124.853.853 0 0 0-.772-.152 1.521 1.521 0 0 0-.1.583l.262 4.977a1.884 1.884 0 0 0 .474 1.063L217.6 128a.625.625 0 0 0 .882 0l5.8-5.8a.626.626 0 0 0 0-.882zm-8.554-3.564c1.014-1.014 1.719-1.02 2.4-.338s.688 1.4-.326 2.411-1.724 1.014-2.412.326-.67-1.392.338-2.4zm3.666 6.84c-1.014 1.014-1.719 1.019-2.406.332s-.676-1.386.338-2.4 1.719-1.031 2.406-.343.67 1.4-.338 2.412zm-4.6-1.942-.6-.6 6.135-2.355.6.6z" transform="translate(-206.271 -110.563)" style="fill:#d91515"/>
        <path data-name="Path 66841" d="M417.259 364.008c-.653.653-.733 1-.406 1.324s.682.258 1.335-.4.733-1.008.4-1.34-.671-.243-1.329.416z" transform="translate(-405.652 -351.452)" style="fill:#d91515"/>
        <path data-name="Path 66842" d="M372.6 228.682c.659-.659.745-1 .413-1.329s-.67-.247-1.329.412-.739.991-.407 1.324.67.246 1.323-.407z" transform="translate(-361.67 -219.974)" style="fill:#d91515"/>
        <path data-name="Path 66843" d="M106.184 25.03a1.3 1.3 0 0 1 .061-.839 1.61 1.61 0 0 0-.59-2.068 2.386 2.386 0 0 0-3.039.407c-.868.959-1.108 2.872.82 5.367 2.281 2.951 1.074 4.5-.094 6a5.67 5.67 0 0 0-1.117 1.862 3.377 3.377 0 0 0 .554 3.14 2.724 2.724 0 0 0 2.143.878 4.613 4.613 0 0 0 .656-.049 2.738 2.738 0 0 0 2.4-2.182 2.631 2.631 0 0 0-.752-2.683.2.2 0 0 0-.217.326 2.269 2.269 0 0 1 .587 2.271 2.363 2.363 0 0 1-2.074 1.88 2.616 2.616 0 0 1-2.449-.7 3.03 3.03 0 0 1-.47-2.778 5.42 5.42 0 0 1 1.048-1.724c1.141-1.466 2.561-3.29.094-6.482-1.78-2.3-1.6-4.023-.84-4.864a2 2 0 0 1 2.541-.338c.724.453.575 1.028.418 1.638a1.472 1.472 0 0 0 .014 1.2.974.974 0 0 1 .089-.1 1.11 1.11 0 0 1 .216-.164z" transform="translate(-101.966 -21.754)" style="fill:#d91515"/>
    </g>
</svg>
