<svg xmlns="http://www.w3.org/2000/svg" width="18" height="18" viewBox="0 0 18 18">
    <g data-name="Group 32420">
        <path data-name="Path 65420" d="M9 0a9.035 9.035 0 0 0-7.075 3.441l-.141-2.179a.43.43 0 1 0-.857.055l.221 3.426a.271.271 0 0 0 .007.026.416.416 0 0 0 .027.1.429.429 0 0 0 .026.054.421.421 0 0 0 .056.075.4.4 0 0 0 .057.05.348.348 0 0 0 .038.033c.01.006.021.006.031.01a.4.4 0 0 0 .083.028.443.443 0 0 0 .074.014c.011 0 .02.006.03.006h3.138a.429.429 0 1 0 0-.857H2.364A8.139 8.139 0 1 1 .857 9 .429.429 0 1 0 0 9a9 9 0 1 0 9-9z"/>
        <path data-name="Path 65421" d="M9 4.286a.429.429 0 0 0-.429.428V9a.429.429 0 0 0 .171.343l3.429 2.571a.429.429 0 1 0 .514-.686L9.428 8.785V4.718a.428.428 0 0 0-.429-.428z"/>
    </g>
</svg>
