<svg xmlns="http://www.w3.org/2000/svg" width="27.429" height="27.547" viewBox="0 0 27.429 27.547">
    <g data-name="Group 32797">
        <g data-name="Group 32753" transform="translate(6.829 6.849)">
            <path data-name="Rectangle 11811" d="M1.218 0h.745A1.218 1.218 0 0 1 3.18 1.218H0A1.218 1.218 0 0 1 1.218 0z" transform="rotate(-.07 9730.728 -4454.124)" style="fill:#ffb900"/>
            <path data-name="Rectangle 11812" transform="translate(6.012 8.664)" style="fill:#ffb900" d="M0 0h2.058v3.643H0z"/>
            <path data-name="Path 66845" d="M1543.907 1100.147v-1.574h2.057v.765z" transform="translate(-1537.896 -1089.908)" style="fill:#e8950c"/>
            <path data-name="Path 66846" d="m1559.955 1074.238-.131-.434c2.409-.729 3.431-2.236 3.123-4.607a.072.072 0 0 0-.06-.01l-.332.09a.273.273 0 0 0-.222.247v.514a.586.586 0 0 1-.6.568c-.347.007-.941.018-1.02.018v-.453l1.012-.018c.084 0 .155-.054.155-.115v-.514a.719.719 0 0 1 .557-.684l.332-.09a.52.52 0 0 1 .424.068.459.459 0 0 1 .2.321 4.635 4.635 0 0 1-.539 3.126 4.954 4.954 0 0 1-2.899 1.973z" transform="translate(-1549.377 -1068.383)" style="fill:#ffb900"/>
            <path data-name="Path 66847" d="M1525.833 1074.238a4.954 4.954 0 0 1-2.9-1.973 4.636 4.636 0 0 1-.539-3.126.459.459 0 0 1 .2-.321.52.52 0 0 1 .425-.068l.331.09a.719.719 0 0 1 .557.684v.514c0 .06.071.113.155.115l1.012.018v.453c-.079 0-.673-.011-1.02-.018a.586.586 0 0 1-.6-.568v-.514a.273.273 0 0 0-.222-.247l-.332-.09a.063.063 0 0 0-.061.013c-.307 2.368.715 3.875 3.124 4.6z" transform="translate(-1522.335 -1068.383)" style="fill:#ffb900"/>
            <path data-name="Path 66848" d="m1540.4 1068.341-.492 6.148a2.63 2.63 0 0 1-2.622 2.42h-2.829a2.63 2.63 0 0 1-2.622-2.42l-.255-3.19-.237-2.958a.8.8 0 0 1 .794-.859h7.47a.8.8 0 0 1 .793.859z" transform="translate(-1528.83 -1067.482)" style="fill:#ffb900"/>
            <path data-name="Path 66849" d="M1539.575 1086.19a2.623 2.623 0 0 1-1.67.6h-2.829a2.63 2.63 0 0 1-2.621-2.42l-.255-3.19a15.624 15.624 0 0 0 7.375 5.01z" transform="translate(-1529.45 -1077.361)" style="fill:#e8950c"/>
            <path data-name="Rectangle 11813" transform="translate(5.626 9.389)" style="fill:#001f40" d="M0 0h2.948v.076H0z"/>
            <path data-name="Rectangle 11814" transform="translate(5.924 11.846)" style="fill:#001f40" d="M0 0h.548v.076H0z"/>
            <path data-name="Rectangle 11815" transform="translate(7.623 11.846)" style="fill:#001f40" d="M0 0h.548v.076H0z"/>
            <path data-name="Rectangle 11816" d="M2.063 0H2.6a2.063 2.063 0 0 1 2.062 2.063H0A2.063 2.063 0 0 1 2.063 0z" transform="rotate(-.07 10511.217 -3846.312)" style="fill:#ffb900"/>
            <path data-name="Rectangle 11817" transform="translate(5.453 12.808)" style="fill:#e8950c" d="M0 0h3.176v.076H0z"/>
            <ellipse data-name="Ellipse 4017" cx=".415" cy=".812" rx=".415" ry=".812" transform="translate(9.049 1.84)" style="opacity:.6;fill:#fff"/>
        </g>
        <g data-name="Group 32754">
            <path data-name="Rectangle 11818" transform="translate(2.444 25.577)" style="fill:#fff" d="M0 0h22.867v1.944H0z"/>
            <path data-name="Rectangle 11819" transform="translate(6.222 23.634)" style="fill:#fff" d="M0 0h15.31v1.944H0z"/>
            <path data-name="Rectangle 11820" transform="translate(8.87 21.69)" style="fill:#fff" d="M0 0h10.014v1.944H0z"/>
            <path data-name="Rectangle 11821" transform="translate(8.245 25.577)" style="fill:#ff5c33" d="M0 0h11.265v1.944H0z"/>
            <path data-name="Rectangle 11822" transform="translate(9.866 23.633)" style="fill:#ff5c33" d="M0 0h8.022v1.944H0z"/>
            <path data-name="Rectangle 11823" transform="translate(11.53 21.69)" style="fill:#ff5c33" d="M0 0h4.695v1.943H0z"/>
            <path data-name="Rectangle 11824" transform="translate(8.871 23.179)" style="opacity:.1;fill:#003e80" d="M0 0h2.659v.453H0z"/>
            <path data-name="Rectangle 11825" transform="translate(16.225 23.179)" style="opacity:.1;fill:#003e80" d="M0 0h2.659v.453H0z"/>
            <path data-name="Rectangle 11826" transform="translate(11.53 23.179)" style="fill:#4a191b;opacity:.3" d="M0 0h4.695v.453H0z"/>
            <path data-name="Rectangle 11827" transform="translate(6.223 25.121)" style="opacity:.1;fill:#003e80" d="M0 0h3.644v.453H0z"/>
            <path data-name="Rectangle 11828" transform="translate(17.888 25.121)" style="opacity:.1;fill:#003e80" d="M0 0h3.644v.453H0z"/>
            <path data-name="Rectangle 11829" transform="translate(9.866 25.121)" style="fill:#4a191b;opacity:.3" d="M0 0h8.022v.453H0z"/>
            <path data-name="Rectangle 11830" transform="translate(2.444 27.068)" style="opacity:.1;fill:#003e80" d="M0 0h5.801v.453H0z"/>
            <path data-name="Rectangle 11831" transform="translate(19.51 27.068)" style="opacity:.1;fill:#003e80" d="M0 0h5.801v.453H0z"/>
            <path data-name="Rectangle 11832" transform="translate(8.245 27.068)" style="fill:#4a191b;opacity:.3" d="M0 0h11.265v.453H0z"/>
            <path data-name="Path 66850" d="M1506.537 1126.471h-.075v-1.982h3.779v-1.941h2.648v-1.948h2.679v.076h-2.6v1.943h-2.648v1.941h-3.779z" transform="translate(-1504.055 -1098.95)" style="fill:#95beff"/>
            <path data-name="Path 66851" d="M1565.109 1126.471h-.076v-1.906h-3.779v-1.941h-2.648v-1.943h-2.646v-.076h2.722v1.943h2.648v1.941h3.779z" transform="translate(-1539.76 -1098.95)" style="fill:#95beff"/>
        </g>
        <g data-name="Group 32766">
            <g data-name="Group 32756">
                <g data-name="Group 32755">
                    <path data-name="Path 66852" d="m1545.178 1073.55-.282.933 1.1.347-.367-.614.108-.539z" transform="translate(-1531.78 -1065.01)" style="fill:#001f40"/>
                    <path data-name="Rectangle 11833" transform="rotate(-26.189 26.755 -24.613)" style="fill:#fff" d="M0 0h.248v.076H0z"/>
                </g>
                <path data-name="Path 66853" d="m1542.082 1061.2.773.074a.849.849 0 0 1 .441.165.8.8 0 0 1 .289.789c-.014.078-.031.151-.042.212l-.633 2.244-.959-.512.428-1.671-.974-.03-.531-1.114.192-.888z" transform="translate(-1528.878 -1055.573)" style="fill:#007bff"/>
            </g>
            <g data-name="Group 32758">
                <g data-name="Group 32757">
                    <path data-name="Path 66854" d="m1544.111 1077.154-.239 1.022 1.206.3-.437-.635.079-.587z" transform="translate(-1531.042 -1067.61)" style="fill:#001f40"/>
                    <path data-name="Rectangle 11834" transform="rotate(-29.869 26.037 -19.86)" style="fill:#fff" d="M0 0h.267v.076H0z"/>
                </g>
                <path data-name="Path 66855" d="m1539.322 1062.484.828 3.02.93-.105-.544-3.2a.718.718 0 0 0-.492-.663l-.458-.254-.117-.814-.694.451-.112 1.061a.444.444 0 0 0 .417.495l.241.01" transform="translate(-1527.283 -1055.573)" style="fill:#007bff"/>
            </g>
            <path data-name="Path 66856" d="m1540.357 1056.789-1.379.157a.281.281 0 0 1-.311-.246l-.24-2.042 1.15-.28 1.22.182-.224 2.015a.243.243 0 0 1-.216.214z" transform="translate(-1527.113 -1051.179)" style="fill:#fff"/>
            <g data-name="Group 32760">
                <path data-name="Path 66857" d="M1533.147 1044.76s.107-.527.024-.508-.169.222-.169.222-.182-.438-.252-.434-.049.115-.049.115-.13-.062-.164.067c0 0-.13-.062-.129.177a5.633 5.633 0 0 0 .159.737l.625-.238z" transform="translate(-1522.772 -1043.724)" style="fill:#ffba9a"/>
                <path data-name="Path 66858" d="m1534.039 1048.332-.437-1.21-.625.237c.109.431.248.934.32 1.193a.769.769 0 0 0 .167.306l1.254 1.493.541-.767z" transform="translate(-1523.183 -1045.946)" style="fill:#003e80"/>
                <g data-name="Group 32759">
                    <path data-name="Path 66859" d="M1534.133 1045.919a.134.134 0 0 1 .015-.209l.013.014a.117.117 0 0 0-.014.183z" transform="translate(-1523.985 -1044.928)" style="fill:#974245"/>
                    <path data-name="Rectangle 11835" transform="rotate(-19.128 6.237 -29.174)" style="fill:#974245" d="M0 0h.019v.273H0z"/>
                    <path data-name="Path 66860" d="m1533 1044.894-.079-.235.018-.006.079.235z" transform="translate(-1523.145 -1044.165)" style="fill:#974245"/>
                    <path data-name="Path 66861" d="m1532.65 1045.038-.1-.271.018-.007.1.271z" transform="translate(-1522.875 -1044.243)" style="fill:#974245"/>
                </g>
            </g>
            <g data-name="Group 32762">
                <path data-name="Path 66862" d="M1550.4 1043.2c-.014-.239-.175-.19-.175-.19-.031-.1-.133-.034-.133-.034a.063.063 0 0 0-.065-.069c-.07 0-.215.406-.215.406s-.1-.2-.182-.21.056.5.056.5l-.04.163.635.224a6.128 6.128 0 0 0 .119-.79z" transform="translate(-1535.174 -1042.905)" style="fill:#ffba9a"/>
                <path data-name="Path 66863" d="m1546.069 1046-.367 1.238-1.057 1.41.6.629 1.072-1.574a.77.77 0 0 0 .148-.316c.053-.253.154-.737.235-1.163z" transform="translate(-1531.599 -1045.141)" style="fill:#003e80"/>
                <g data-name="Group 32761">
                    <path data-name="Path 66864" d="m1550.6 1044.677-.016-.011a.117.117 0 0 0-.033-.18l.011-.015a.135.135 0 0 1 .038.206z" transform="translate(-1535.858 -1044.034)" style="fill:#974245"/>
                    <path data-name="Rectangle 11836" transform="rotate(-76.942 7.626 -9.178)" style="fill:#974245" d="M0 0h.273v.019H0z"/>
                    <path data-name="Rectangle 11837" transform="rotate(-77.59 7.705 -9.141)" style="fill:#974245" d="M0 0h.248v.019H0z"/>
                    <path data-name="Path 66865" d="M1551.935 1043.633h-.018l.069-.28h.018z" transform="translate(-1536.844 -1043.225)" style="fill:#974245"/>
                </g>
            </g>
            <g data-name="Group 32765" transform="translate(11.979 1.949)">
                <path data-name="Path 66866" d="M1541.873 1053.874a.239.239 0 0 1-.239-.239v-.425h.478v.425a.239.239 0 0 1-.239.239z" transform="translate(-1541.406 -1052.287)" style="fill:#ffba9a"/>
                <path data-name="Path 66867" d="M1542.1 1053.429a.241.241 0 0 1-.476 0z" transform="translate(-1541.4 -1052.445)" style="fill:#001f40"/>
                <ellipse data-name="Ellipse 4018" cx=".353" cy=".412" rx=".353" ry=".412" transform="translate(.114 .266)" style="fill:#ffba9a"/>
                <path data-name="Path 66868" d="M1541.037 1050.584a.377.377 0 0 1 .209-.351h.244a.5.5 0 0 1 .19.365h.083c.052-.277.006-.548-.154-.611l.079-.04c-.662-.146-.826.119-.747.584z" transform="translate(-1540.894 -1049.899)" style="fill:#001f40"/>
                <g data-name="Group 32763">
                    <path data-name="Path 66869" d="M1541.005 1052.088a.1.1 0 1 1-.136-.058.105.105 0 0 1 .136.058z" transform="translate(-1540.817 -1051.43)" style="fill:#ffba9a"/>
                    <path data-name="Path 66870" d="M1541.071 1052.3a.1.1 0 0 0-.065-.064l.006-.016a.115.115 0 0 1 .074.074z" transform="translate(-1540.953 -1051.576)" style="fill:#001f40"/>
                </g>
                <g data-name="Group 32764">
                    <path data-name="Path 66871" d="M1543.5 1052.088a.1.1 0 1 0 .136-.058.1.1 0 0 0-.136.058z" transform="translate(-1542.746 -1051.43)" style="fill:#ffba9a"/>
                    <path data-name="Path 66872" d="m1543.748 1052.3-.016-.006a.115.115 0 0 1 .075-.074l.005.016a.1.1 0 0 0-.064.064z" transform="translate(-1542.92 -1051.576)" style="fill:#001f40"/>
                </g>
            </g>
            <path data-name="Path 66873" d="M1538.734 1054.6a6 6 0 0 1-.118 3.036l-1 .154.224-2.973z" transform="translate(-1526.532 -1051.342)" style="fill:#003e80"/>
            <path data-name="Path 66874" d="M1543.342 1054.5a9.552 9.552 0 0 0 .605 3.005l.6-.308-.208-2.55z" transform="translate(-1530.659 -1051.269)" style="fill:#003e80"/>
            <path data-name="Path 66875" d="M1544.113 1067.828c-.005-.032-.525-3.215-.608-3.485s-.607-.477-.612-.479l.014-.035c.022.009.547.224.634.5s.588 3.358.61 3.49z" transform="translate(-1530.334 -1057.998)" style="fill:#001f40"/>
            <path data-name="Rectangle 11838" transform="rotate(-15.945 29.874 -39.323)" style="fill:#001f40" d="M0 0h.038v1.374H0z"/>
            <path data-name="Path 66876" d="m1546.546 1067.756-.277-.026v-.038l.277.026z" transform="translate(-1532.77 -1060.785)" style="fill:#001f40"/>
        </g>
        <g data-name="Group 32784">
            <g data-name="Group 32780">
                <g data-name="Group 32772">
                    <g data-name="Group 32771">
                        <g data-name="Group 32768">
                            <g data-name="Group 32767">
                                <path data-name="Path 66877" d="m1501.047 1138.458-.14.892h1.2l-.471-.47.035-.442z" transform="translate(-1500.049 -1111.815)" style="fill:#001f40"/>
                                <path data-name="Rectangle 11839" transform="rotate(-30.46 50.561 11.14)" style="fill:#fff" d="M0 0h.277v.075H0z"/>
                            </g>
                            <path data-name="Path 66878" d="M1503.429 1115.227c-.018.106-.034.212-.054.316q-.049.3-.1.586-.19 1.042-.415 2.016a42.189 42.189 0 0 1-1.019 3.7h-1.068a52.165 52.165 0 0 0 .98-5.651c.02-.231.034-.453.04-.662z" transform="translate(-1499.952 -1095.073)" style="fill:#14cca1"/>
                        </g>
                        <g data-name="Group 32770">
                            <g data-name="Group 32769">
                                <path data-name="Path 66879" d="m1510.019 1138.361-.052.917 1.281.017-.509-.47.038-.442z" transform="translate(-1506.585 -1111.761)" style="fill:#001f40"/>
                                <path data-name="Rectangle 11840" transform="rotate(-28.566 55.303 5.97)" style="fill:#fff" d="M0 0h.294v.076H0z"/>
                            </g>
                            <path data-name="Path 66880" d="M1508.644 1122.623h-1.116a68.856 68.856 0 0 0-.31-3.678 33.886 33.886 0 0 0-.286-1.984q-.055-.306-.115-.6l.919-.016.458-.007c.03.187.059.375.084.563a47.391 47.391 0 0 1 .366 5.722z" transform="translate(-1504.312 -1095.872)" style="fill:#14cca1"/>
                        </g>
                    </g>
                    <path data-name="Path 66881" d="m1506.454 1116.1-.645.03-.7.032-.82.037c.02-.231.034-.453.041-.662l1.637-.308c-.017.106-.035.212-.054.316l.458-.007c.029.185.057.372.083.562z" transform="translate(-1502.489 -1095.073)" style="fill:#4a191b;opacity:.3"/>
                    <path data-name="Path 66882" d="m1507.907 1122.548-.037-.008.379-1.882.037.008z" transform="translate(-1505.073 -1098.991)" style="fill:#001f40"/>
                </g>
                <g data-name="Group 32777">
                    <path data-name="Path 66883" d="M1504.293 1106.551a2.221 2.221 0 0 1-1.476-.257l-.438.742.509.455-.1 1.606a.236.236 0 0 0 .235.251h1.929a.251.251 0 0 0 .235-.164.241.241 0 0 0 .015-.075l.083-1.7.864-.2-.2-.68a5.565 5.565 0 0 1-1.656.022z" transform="translate(-1501.111 -1088.629)" style="fill:#007bff"/>
                    <g data-name="Group 32774">
                        <path data-name="Path 66884" d="m1499.536 1100.077-.437.742-.606-.542-.039-.037a.889.889 0 0 1-.236-.431 1.125 1.125 0 0 1-.014-.067c-.133-.591-.385-1.741-.373-1.842.018-.137.158-.077.158-.077.011-.131.12-.06.12-.06 0-.074.025-.092.1-.089s.172.45.172.45.109-.232.19-.214-.07.464-.07.464l.527 1.292a2.648 2.648 0 0 0 .508.411z" transform="translate(-1497.83 -1082.412)" style="fill:#ffba9a"/>
                        <path data-name="Path 66885" d="M1499.5 1105.38a.3.3 0 0 1-.083.206.889.889 0 0 1-.236-.431c0-.021-.01-.044-.014-.067h.038a.3.3 0 0 1 .295.292z" transform="translate(-1498.796 -1087.757)" style="opacity:.2;fill:#ff5c33"/>
                        <g data-name="Group 32773">
                            <path data-name="Path 66886" d="M1499.332 1099.679a.134.134 0 0 1 0-.21l.013.013a.116.116 0 0 0 0 .183z" transform="translate(-1498.878 -1083.706)" style="fill:#974245"/>
                            <path data-name="Path 66887" d="m1498.832 1098.177-.039-.186h.019l.039.186z" transform="translate(-1498.525 -1082.637)" style="fill:#974245"/>
                            <path data-name="Path 66888" d="m1498.411 1098.359-.046-.154.018-.005.046.154z" transform="translate(-1498.216 -1082.79)" style="fill:#974245"/>
                            <path data-name="Rectangle 11841" transform="rotate(-14.98 58.737 7.444)" style="fill:#974245" d="M0 0h.019v.149H0z"/>
                        </g>
                    </g>
                    <g data-name="Group 32776">
                        <path data-name="Path 66889" d="m1516.275 1102.866-.026.042-.057.084a.577.577 0 0 1-.326.236l-.022.006-.459.109-.2-.68c.184-.022.372-.045.564-.071l.569-1.074s0-.457.063-.47.113.266.113.266.245-.372.323-.372.057.105.057.105.072-.088.115-.046c.022.022.018.1.018.1a.078.078 0 0 1 .084 0c.109.044-.236.834-.816 1.765z" transform="translate(-1510.349 -1084.768)" style="fill:#ffba9a"/>
                        <path data-name="Path 66890" d="m1517.989 1107.765-.026.042-.057.084a.577.577 0 0 1-.326.236.279.279 0 0 1-.018-.1.294.294 0 0 1 .295-.295.287.287 0 0 1 .132.033z" transform="translate(-1512.064 -1089.667)" style="opacity:.2;fill:#ff5c33"/>
                        <g data-name="Group 32775">
                            <path data-name="Path 66891" d="m1520.034 1102.691-.009-.016a.117.117 0 0 0 .049-.177l.017-.009a.134.134 0 0 1-.057.202z" transform="translate(-1513.839 -1085.884)" style="fill:#974245"/>
                            <path data-name="Path 66892" d="m1520.933 1101.4-.017-.009.09-.167.017.009z" transform="translate(-1514.483 -1084.974)" style="fill:#974245"/>
                            <path data-name="Path 66893" d="m1521.39 1101.6-.017-.009.084-.162.017.009z" transform="translate(-1514.812 -1085.119)" style="fill:#974245"/>
                            <path data-name="Path 66894" d="m1521.688 1101.752-.016-.01.078-.127.016.01z" transform="translate(-1515.028 -1085.253)" style="fill:#974245"/>
                        </g>
                    </g>
                    <path data-name="Rectangle 11842" transform="rotate(-49.98 20.389 7.864)" style="fill:#001f40" d="M0 0h.038v1.018H0z"/>
                    <path data-name="Path 66895" d="M1512.666 1109.877h-.038l.057-1.088h.038z" transform="translate(-1508.505 -1090.427)" style="fill:#001f40"/>
                    <path data-name="Path 66896" d="M1508.362 1109.21a.484.484 0 0 1-.343-.153l.027-.026a.439.439 0 0 0 .357.139.338.338 0 0 0 .255-.167l.032.02a.376.376 0 0 1-.283.185z" transform="translate(-1505.18 -1090.583)" style="fill:#001f40"/>
                </g>
                <g data-name="Group 32779">
                    <path data-name="Path 66897" d="M1508.308 1106.192a.274.274 0 0 1-.3-.242l-.073-.648.545-.061.073.648a.274.274 0 0 1-.245.303z" transform="translate(-1505.117 -1087.869)" style="fill:#ffba9a"/>
                    <path data-name="Path 66898" d="M1508.585 1106.178a.875.875 0 0 0 .433.29l-.039-.349z" transform="translate(-1505.588 -1088.502)" style="fill:#001f40"/>
                    <path data-name="Path 66899" d="M1508.727 1103.533s.1.687-.135.776a.76.76 0 0 1-.519-.075l-.2-.577.257-.234z" transform="translate(-1505.076 -1086.557)" style="fill:#ffba9a"/>
                    <path data-name="Path 66900" d="M1507.548 1103.108a.383.383 0 0 1 .2-.32.6.6 0 0 0 .81-.216.565.565 0 0 1-.358-.039c-.135-.087-.481-.339-.7.026a.325.325 0 0 0-.118.548z" transform="translate(-1504.645 -1085.797)" style="fill:#001f40"/>
                    <g data-name="Group 32778" transform="translate(2.639 17.152)">
                        <ellipse data-name="Ellipse 4019" cx=".142" cy=".163" rx=".142" ry=".163" transform="rotate(-30.08 .264 .071)" style="fill:#ffba9a"/>
                        <path data-name="Path 66901" d="M1507.912 1105.048a.142.142 0 0 0-.078-.127l.017-.033a.179.179 0 0 1 .1.157z" transform="translate(-1507.685 -1104.766)" style="fill:#001f40"/>
                    </g>
                </g>
            </g>
            <g data-name="Group 32783">
                <g data-name="Group 32781">
                    <path data-name="Path 66902" d="M1503.777 1084.405a1.308 1.308 0 0 1 .6 2.471l.131.675-.467-.555a1.309 1.309 0 1 1-.263-2.591z" transform="translate(-1501.175 -1072.84)" style="fill:#fff"/>
                    <path data-name="Path 66903" d="m1504.474 1087.589-.546-.65a1.351 1.351 0 1 1 .393-.141zm-.517-.732.387.461-.108-.56.025-.013a1.256 1.256 0 1 0-.326.116z" transform="translate(-1501.078 -1072.742)" style="fill:#95beff"/>
                </g>
                <g data-name="Group 32782" transform="translate(1.809 12.722)">
                    <circle data-name="Ellipse 4020" cx=".183" cy=".183" r=".183" style="fill:#95beff"/>
                    <circle data-name="Ellipse 4021" cx=".183" cy=".183" r=".183" transform="translate(.61)" style="fill:#95beff"/>
                    <circle data-name="Ellipse 4022" cx=".183" cy=".183" r=".183" transform="translate(1.22)" style="fill:#95beff"/>
                </g>
            </g>
        </g>
        <g data-name="Group 32796">
            <g data-name="Group 32792">
                <g data-name="Group 32785">
                    <path data-name="Path 66904" d="m1575.975 1102.863-.787 1.586-.556.394.318.411.392-.172a1.052 1.052 0 0 0 .348-.252l.584-.643z" transform="translate(-1553.229 -1086.154)" style="fill:#ff5c33"/>
                    <path data-name="Path 66905" d="M1572.574 1110.118s-.52-.013-.5.141.35.235.35.235-.184.2-.12.2a6.426 6.426 0 0 0 .8-.317l-.318-.412z" transform="translate(-1551.382 -1091.28)" style="fill:#ffba9a"/>
                </g>
                <g data-name="Group 32786">
                    <path data-name="Path 66906" d="m1581.993 1130.743-.013 1.043h-1.234l.572-.509.064-.585z" transform="translate(-1557.64 -1106.228)" style="fill:#001f40"/>
                    <path data-name="Rectangle 11843" transform="rotate(-46.3 41.149 -15.129)" style="fill:#fff" d="M0 0h.076v.265H0z"/>
                </g>
                <g data-name="Group 32787">
                    <path data-name="Path 66907" d="m1586.927 1115.084.967-.391.477 1.138-.69-.331-.564.167z" transform="translate(-1562.098 -1094.687)" style="fill:#001f40"/>
                    <path data-name="Rectangle 11844" transform="rotate(-69.051 27.89 -8.168)" style="fill:#fff" d="M0 0h.265v.075H0z"/>
                </g>
                <path data-name="Path 66908" d="m1578.452 1109.81.968 5.508 1.069-.037-.657-6.154z" transform="translate(-1555.985 -1090.672)" style="fill:#007bff"/>
                <path data-name="Path 66909" d="m1580.826 1110.254.1 2.882a.45.45 0 0 0 .256.391.451.451 0 0 0 .417-.016l1.286-.736-.059-1.142-.731.272v-1.776z" transform="translate(-1557.697 -1091.395)" style="fill:#007bff"/>
                <g data-name="Group 32789">
                    <path data-name="Path 66910" d="m1581.741 1101.052-1.031-.6a.916.916 0 0 0-.354-.119l-.664-.078-.552.173a.817.817 0 0 0-.571.732l-.117 1.993 1.922-.4.153-1.379 1.109.52a.46.46 0 0 0 .595-.167c.254-.405.667-1.081.931-1.6l-.631-.224z" transform="translate(-1555.985 -1084.011)" style="fill:#ff5c33"/>
                    <path data-name="Path 66911" d="M1593.843 1097.436s.031-.084-.01-.11-.089.021-.089.021.047-.115-.021-.136-.329.36-.329.36-.031-.24-.1-.235-.11.486-.11.486l-.092.135.631.224a1.877 1.877 0 0 0 .25-.673c-.009-.126-.13-.072-.13-.072z" transform="translate(-1566.545 -1082.076)" style="fill:#ffba9a"/>
                    <g data-name="Group 32788">
                        <path data-name="Path 66912" d="m1594.249 1098.846-.011-.015a.117.117 0 0 0 .026-.182l.015-.011a.135.135 0 0 1-.03.208z" transform="translate(-1567.372 -1083.106)" style="fill:#974245"/>
                        <path data-name="Path 66913" d="m1595.1 1097.728-.016-.011.109-.155.015.011z" transform="translate(-1567.981 -1082.33)" style="fill:#974245"/>
                        <path data-name="Rectangle 11845" transform="rotate(-50.08 30.14 -21.377)" style="fill:#974245" d="M0 0h.161v.019H0z"/>
                        <path data-name="Rectangle 11846" transform="rotate(-51.7 29.648 -20.36)" style="fill:#974245" d="M0 0h.149v.019H0z"/>
                    </g>
                </g>
                <g data-name="Group 32791" transform="translate(23.177 14.595)">
                    <path data-name="Path 66914" d="M1582.044 1097.225a.485.485 0 0 1-.494.459.62.62 0 0 1-.55-.545c.017-.245.293-.371.561-.363.377.012.5.204.483.449z" transform="translate(-1581 -1096.358)" style="fill:#e8950c"/>
                    <path data-name="Path 66915" d="M1582.2 1100.211a.254.254 0 0 1-.236-.27l.039-.576.507.034-.039.575a.254.254 0 0 1-.271.237z" transform="translate(-1581.695 -1098.226)" style="fill:#ffba9a"/>
                    <path data-name="Path 66916" d="M1582.353 1100.486a.683.683 0 0 1-.387.234l.021-.274z" transform="translate(-1581.697 -1099.006)" style="fill:#001f40"/>
                    <path data-name="Path 66917" d="M1581.334 1097.741s-.1.653.124.723a.78.78 0 0 0 .5-.071l.054-.494-.062-.321z" transform="translate(-1581.225 -1096.937)" style="fill:#ffba9a"/>
                    <path data-name="Path 66918" d="M1581.938 1097.969a.6.6 0 0 1-.139-.305.982.982 0 0 1-.578.034l.066-.205.488-.093.252.072z" transform="translate(-1581.159 -1096.809)" style="fill:#e8950c"/>
                    <g data-name="Group 32790" transform="translate(.66 .985)">
                        <ellipse data-name="Ellipse 4023" cx=".135" cy=".116" rx=".135" ry=".116" transform="rotate(-51.74 .218 .106)" style="fill:#ffba9a"/>
                        <path data-name="Path 66919" d="M1583.788 1099.344h-.038a.113.113 0 0 1 .117-.121v.038c-.05-.001-.075.026-.079.083z" transform="translate(-1583.644 -1099.107)" style="fill:#001f40"/>
                    </g>
                    <circle data-name="Ellipse 4024" cx=".315" cy=".315" r=".315" transform="rotate(-54.516 .783 -.295)" style="fill:#e8950c"/>
                </g>
                <path data-name="Path 66920" d="M1578.429 1105.948h-.038l.141-2.161h.038z" transform="translate(-1555.941 -1086.818)" style="fill:#001f40"/>
                <path data-name="Path 66921" d="m1585.582 1104.922-.821-.415.017-.034.821.415z" transform="translate(-1560.536 -1087.316)" style="fill:#001f40"/>
                <path data-name="Path 66922" d="M1581.967 1102.737a.259.259 0 0 1-.045 0 .288.288 0 0 1-.221-.228l.036-.01a.251.251 0 0 0 .191.2.337.337 0 0 0 .316-.168l.031.022a.4.4 0 0 1-.308.184z" transform="translate(-1558.328 -1085.889)" style="fill:#001f40"/>
                <path data-name="Path 66923" d="M1581.336 1115.127a.462.462 0 0 1-.149-.024.441.441 0 0 1-.278-.278c-.075-.276-.112-2.466-.114-2.559h.038c0 .023.038 2.278.113 2.55a.406.406 0 0 0 .253.252.775.775 0 0 0 .686-.211l.023.03a.966.966 0 0 1-.572.24z" transform="translate(-1557.675 -1092.937)" style="fill:#001f40"/>
                <path data-name="Rectangle 11847" transform="rotate(-20.06 70.416 -56.968)" style="fill:#001f40" d="M0 0h1.39v.038H0z"/>
            </g>
            <g data-name="Group 32795">
                <g data-name="Group 32793">
                    <path data-name="Path 66924" d="M1583.888 1080.2a1.308 1.308 0 0 0-.6 2.471l-.131.675.466-.555a1.331 1.331 0 0 0 .264.026 1.309 1.309 0 1 0 0-2.618z" transform="translate(-1558.962 -1069.81)" style="fill:#fff"/>
                    <path data-name="Path 66925" d="m1583 1083.39.153-.79a1.345 1.345 0 1 1 .641.164 1.356 1.356 0 0 1-.249-.023zm.794-3.244a1.27 1.27 0 0 0-.582 2.4l.025.013-.108.559.387-.461h.022a1.271 1.271 0 1 0 .256-2.516z" transform="translate(-1558.864 -1069.713)" style="fill:#95beff"/>
                </g>
                <g data-name="Group 32794" transform="translate(24.133 11.515)">
                    <circle data-name="Ellipse 4025" cx=".183" cy=".183" r=".183" style="fill:#95beff"/>
                    <circle data-name="Ellipse 4026" cx=".183" cy=".183" r=".183" transform="translate(.61)" style="fill:#95beff"/>
                    <circle data-name="Ellipse 4027" cx=".183" cy=".183" r=".183" transform="translate(1.22)" style="fill:#95beff"/>
                </g>
            </g>
        </g>
        <path data-name="Rectangle 11848" transform="translate(.54 27.471)" style="fill:#001f40" d="M0 0h25.733v.076H0z"/>
    </g>
</svg>
