<svg xmlns="http://www.w3.org/2000/svg" width="14.711" height="28.86" viewBox="0 0 14.711 28.86">
    <g data-name="Group 27324">
        <g data-name="Group 27285">
            <path data-name="Path 64187" d="M224.511 43.121h-12.067a1.326 1.326 0 0 0-1.322 1.322v26.216a1.326 1.326 0 0 0 1.322 1.322h12.066a1.326 1.326 0 0 0 1.322-1.322V44.443a1.326 1.326 0 0 0-1.322-1.322zm-7.736 1.421h3.405a.473.473 0 0 1 .463.463.452.452 0 0 1-.463.463h-3.405a.463.463 0 0 1 0-.926zm1.719 26.182a.959.959 0 1 1 .959-.959.959.959 0 0 1-.959.96zm6.281-3.273h-12.6V46.824h12.6z" transform="translate(-211.122 -43.121)" style="fill:#8e9193"/>
        </g>
        <path data-name="Path 64188" d="M115.662 9.271A4.657 4.657 0 0 1 117.753.9v-.906l2.375 1.654-2.375 1.652V2.213a3.363 3.363 0 0 0-1.723 5.676c.051.05.1.1.157.146l-.525 1.235zm7.4-3.759a4.656 4.656 0 0 1-4.259 4.639v.879l-2.373-1.654 2.376-1.654v1.13a3.363 3.363 0 0 0 1.98-5.717c-.05-.05-.1-.1-.156-.146l.525-1.235a4.656 4.656 0 0 1 1.909 3.759z" transform="translate(-110.776 8.938)" style="fill:#8e9193"/>
        <g data-name="Group 27286">
            <path data-name="Path 64189" d="M0-.107z" transform="translate(2.977 20.083)" style="fill:#8e9193"/>
        </g>
        <g data-name="Group 27287">
            <path data-name="Path 64190" d="M.017-.078z" transform="translate(2.963 20.052)" style="fill:#8e9193"/>
        </g>
        <g data-name="Group 27288">
            <path data-name="Path 64191" d="M0-.077zm0 0z" transform="translate(2.98 20.052)" style="fill:#8e9193"/>
        </g>
        <g data-name="Group 27289">
            <path data-name="Path 64192" d="M0-.077zm0 0z" transform="translate(2.982 20.052)" style="fill:#8e9193"/>
        </g>
        <g data-name="Group 27290">
            <path data-name="Path 64193" d="M0-.094z" transform="translate(2.984 20.068)" style="fill:#8e9193"/>
        </g>
        <g data-name="Group 27291">
            <path data-name="Path 64194" d="M0-.077zm0 0z" transform="translate(2.985 20.052)" style="fill:#8e9193"/>
        </g>
        <g data-name="Group 27292">
            <path data-name="Path 64195" d="M0-.108zm0 0z" transform="translate(2.987 20.083)" style="fill:#8e9193"/>
        </g>
        <g data-name="Group 27293">
            <path data-name="Path 64196" d="M.016-.108zm0 0z" transform="translate(2.974 20.083)" style="fill:#8e9193"/>
        </g>
        <g data-name="Group 27294">
            <path data-name="Path 64197" d="M0-.078z" transform="translate(2.992 20.052)" style="fill:#8e9193"/>
        </g>
        <g data-name="Group 27295">
            <path data-name="Path 64198" d="M.016-.077zm0 0z" transform="translate(2.979 20.052)" style="fill:#8e9193"/>
        </g>
        <g data-name="Group 27296">
            <path data-name="Path 64199" d="M0-.078zm0 0z" transform="translate(2.996 20.052)" style="fill:#8e9193"/>
        </g>
        <g data-name="Group 27297">
            <path data-name="Path 64200" d="M.016-.077zm0 0z" transform="translate(2.983 20.052)" style="fill:#8e9193"/>
        </g>
        <g data-name="Group 27298">
            <path data-name="Path 64201" d="M0-.078z" transform="translate(3 20.052)" style="fill:#8e9193"/>
        </g>
        <g data-name="Group 27299">
            <path data-name="Path 64202" d="M0-.078zm0 0z" transform="translate(3.002 20.052)" style="fill:#8e9193"/>
        </g>
        <g data-name="Group 27300">
            <path data-name="Path 64203" d="M.017-.078z" transform="translate(2.988 20.052)" style="fill:#8e9193"/>
        </g>
        <g data-name="Group 27301">
            <path data-name="Path 64204" d="M.017-.078z" transform="translate(2.989 20.052)" style="fill:#8e9193"/>
        </g>
        <g data-name="Group 27302">
            <path data-name="Path 64205" d="M0-.077zm0 0z" transform="translate(3.007 20.052)" style="fill:#8e9193"/>
        </g>
        <g data-name="Group 27303">
            <path data-name="Path 64206" d="M.017-.078z" transform="translate(2.993 20.052)" style="fill:#8e9193"/>
        </g>
        <g data-name="Group 27304">
            <path data-name="Path 64207" d="M0-.094z" transform="translate(3.01 20.068)" style="fill:#8e9193"/>
        </g>
        <g data-name="Group 27305">
            <path data-name="Path 64208" d="M0-.078z" transform="translate(3.011 20.052)" style="fill:#8e9193"/>
        </g>
        <g data-name="Group 27306">
            <path data-name="Path 64209" d="M0-.109z" transform="translate(2.977 20.085)" style="fill:#8e9193"/>
        </g>
        <g data-name="Group 27307">
            <path data-name="Path 64210" d="M.017-.078z" transform="translate(2.962 20.055)" style="fill:#8e9193"/>
        </g>
        <g data-name="Group 27308">
            <path data-name="Path 64211" d="M0-.078zm0 0z" transform="translate(2.979 20.055)" style="fill:#8e9193"/>
        </g>
        <g data-name="Group 27309">
            <path data-name="Path 64212" d="M.017-.078z" transform="translate(2.966 20.055)" style="fill:#8e9193"/>
        </g>
        <g data-name="Group 27310">
            <path data-name="Path 64213" d="M0-.094z" transform="translate(2.985 20.071)" style="fill:#8e9193"/>
        </g>
        <g data-name="Group 27311">
            <path data-name="Path 64214" d="M.017-.108z" transform="translate(2.971 20.085)" style="fill:#8e9193"/>
        </g>
        <g data-name="Group 27312">
            <path data-name="Path 64215" d="M0-.077zm0 0z" transform="translate(2.988 20.055)" style="fill:#8e9193"/>
        </g>
        <g data-name="Group 27313">
            <path data-name="Path 64216" d="M.016-.094z" transform="translate(2.975 20.071)" style="fill:#8e9193"/>
        </g>
        <g data-name="Group 27314">
            <path data-name="Path 64217" d="M0-.078zm0 0z" transform="translate(2.993 20.055)" style="fill:#8e9193"/>
        </g>
        <g data-name="Group 27315">
            <path data-name="Path 64218" d="M.016-.077z" transform="translate(2.979 20.055)" style="fill:#8e9193"/>
        </g>
        <g data-name="Group 27316">
            <path data-name="Path 64219" d="M.017-.078z" transform="translate(2.981 20.055)" style="fill:#8e9193"/>
        </g>
        <g data-name="Group 27317">
            <path data-name="Path 64220" d="M.016-.094zm0 0z" transform="translate(2.984 20.071)" style="fill:#8e9193"/>
        </g>
        <g data-name="Group 27318">
            <path data-name="Path 64221" d="M.017-.078z" transform="translate(2.986 20.055)" style="fill:#8e9193"/>
        </g>
        <g data-name="Group 27319">
            <path data-name="Path 64222" d="M0-.078zm0 0z" transform="translate(3.003 20.055)" style="fill:#8e9193"/>
        </g>
        <g data-name="Group 27320">
            <path data-name="Path 64223" d="M0-.109zm0 0z" transform="translate(3.005 20.085)" style="fill:#8e9193"/>
        </g>
        <g data-name="Group 27321">
            <path data-name="Path 64224" d="M0-.077zm0 0z" transform="translate(3.006 20.055)" style="fill:#8e9193"/>
        </g>
        <g data-name="Group 27322">
            <path data-name="Path 64225" d="M0-.078z" transform="translate(3.008 20.055)" style="fill:#8e9193"/>
        </g>
        <g data-name="Group 27323">
            <path data-name="Path 64226" d="M0-.094z" transform="translate(3.009 20.071)" style="fill:#8e9193"/>
        </g>
    </g>
</svg>
