<svg xmlns="http://www.w3.org/2000/svg" width="19.038" height="19.481" viewBox="0 0 19.038 19.481">
    <path data-name="Path 65489" d="M221.068 85.834a9.527 9.527 0 0 0-11.985-1.117l-.01-1.419a.432.432 0 0 0-.436-.429l-.865.007a.432.432 0 0 0-.429.435l.024 3.236a.864.864 0 0 0 .865.858h.007l3.237-.024a.432.432 0 0 0 .429-.436l-.007-.865a.432.432 0 0 0-.435-.429h-.55A7.778 7.778 0 0 1 221.5 95.784a.428.428 0 0 0 .189.562l.772.394a.439.439 0 0 0 .6-.2 9.48 9.48 0 0 0-1.987-10.7z" transform="translate(-204.873 -82.869)" style="fill:#8e9193"/>
    <path data-name="Path 65490" d="M173.029 204.809h-.007l-3.237.024a.432.432 0 0 0-.429.436l.007.865a.433.433 0 0 0 .435.429h.549a7.777 7.777 0 0 1-10.586-10.128.428.428 0 0 0-.189-.562l-.772-.394a.439.439 0 0 0-.6.2 9.514 9.514 0 0 0 13.972 11.82l.01 1.42a.433.433 0 0 0 .436.429l.865-.007a.433.433 0 0 0 .429-.436l-.024-3.236a.864.864 0 0 0-.864-.858z" transform="translate(-157.35 -189.865)" style="fill:#8e9193"/>
    <path data-name="Path 65491" d="M271.147 196.824a4.324 4.324 0 1 1-4.324-4.324 4.324 4.324 0 0 1 4.324 4.324" transform="translate(-257.304 -187.083)" style="fill:#8e9193"/>
</svg>
