<svg xmlns="http://www.w3.org/2000/svg" width="43.75" height="17" viewBox="0 0 43.75 17">
    <g data-name="Group 32713">
        <path d="M-.7 0h.328l-.3 1.271a.545.545 0 0 0 .023.429.385.385 0 0 0 .349.139.6.6 0 0 0 .412-.139.794.794 0 0 0 .23-.425L.646 0h.331L.665 1.3a1.125 1.125 0 0 1-.365.638 1.044 1.044 0 0 1-.68.211.682.682 0 0 1-.578-.21.755.755 0 0 1-.052-.639z" transform="translate(1.05 14.822)" style="fill:#696a6a"/>
        <path d="m0-4.317.521-2.176.99 1.28a1.843 1.843 0 0 1 .161.255l.347-1.452h.307L1.8-4.235.794-5.538a1.166 1.166 0 0 1-.076-.111 1.2 1.2 0 0 1-.065-.123L.305-4.317z" transform="translate(1.983 21.232)" style="fill:#696a6a"/>
        <path d="m0-4.152.5-2.094h.333l-.5 2.093z" transform="translate(4.282 21.068)" style="fill:#696a6a"/>
        <path d="m0-4.152.5-2.094h1.14l-.069.289H.764l-.125.522h.807l-.071.3H.567l-.235.984z" transform="translate(5.09 21.068)" style="fill:#696a6a"/>
        <path d="m0-4.152.5-2.094h.333l-.5 2.093z" transform="translate(6.594 21.068)" style="fill:#696a6a"/>
        <path d="m0-4.152.5-2.094h1.14l-.069.289H.764l-.126.525h.807l-.071.3H.567L.4-4.457h.807l-.073.3z" transform="translate(7.403 21.068)" style="fill:#696a6a"/>
        <path d="M-.8-3.542h.279a1.507 1.507 0 0 0 .352-.031.663.663 0 0 0 .222-.107.886.886 0 0 0 .234-.252 1.179 1.179 0 0 0 .142-.351.947.947 0 0 0 .026-.351.468.468 0 0 0-.113-.253.38.38 0 0 0-.182-.105 1.541 1.541 0 0 0-.37-.031h-.24zm-.405.308.5-2.094h.447a2.692 2.692 0 0 1 .6.045.617.617 0 0 1 .275.151.638.638 0 0 1 .183.355 1.215 1.215 0 0 1-.028.5 1.525 1.525 0 0 1-.21.494 1.254 1.254 0 0 1-.353.355 1.085 1.085 0 0 1-.339.148 2.433 2.433 0 0 1-.543.045h-.536z" transform="translate(10.131 20.15)" style="fill:#696a6a"/>
        <path d="M-1.236-1.736h.085A.835.835 0 0 0-.768-1.8a.32.32 0 0 0 .144-.217q.04-.167-.042-.236a.584.584 0 0 0-.345-.069H-1.1zm-.088.279-.225.94h-.311l.5-2.093h.5a1.467 1.467 0 0 1 .322.025.382.382 0 0 1 .167.085.355.355 0 0 1 .1.2.634.634 0 0 1-.011.272.844.844 0 0 1-.118.268.669.669 0 0 1-.2.2.634.634 0 0 1-.2.081 1.684 1.684 0 0 1-.334.024h-.191z" transform="translate(13.756 17.433)" style="fill:#696a6a"/>
        <path d="M-1.795-2.686h.569l-.095-.478c0-.03-.009-.065-.012-.105s-.006-.084-.007-.132q-.033.069-.066.128t-.064.109zm.72.822-.1-.539h-.808l-.366.539H-2.7l1.509-2.176.466 2.176z" transform="translate(15.681 18.779)" style="fill:#696a6a"/>
        <path d="m-.369-4.152.229-.958-.415-1.136h.348l.258.711a1.283 1.283 0 0 1 .045.172c.021-.037.042-.07.064-.099s.04-.057.065-.082l.607-.7h.332L.189-5.11l-.229.958z" transform="translate(15.802 21.068)" style="fill:#696a6a"/>
        <path d="M-4.182-2.278q0-.024.014-.134l.017-.152a1.326 1.326 0 0 1-.07.143 1.686 1.686 0 0 1-.093.146l-.8 1.115-.261-1.14a1.331 1.331 0 0 1-.025-.133 1.16 1.16 0 0 1-.011-.13 1.534 1.534 0 0 1-.106.289l-.466 1.031h-.307l1-2.182L-5-2.1c0 .021.01.056.018.1s.016.109.026.18q.051-.09.147-.229l.039-.057.9-1.32-.03 2.182h-.3z" transform="translate(22.779 18.159)" style="fill:#696a6a"/>
        <path d="m0-4.152.5-2.094h1.14l-.069.289H.764l-.126.525h.807l-.071.3H.567L.4-4.457h.807l-.073.3z" transform="translate(19.149 21.068)" style="fill:#696a6a"/>
        <path d="m0-4.317.521-2.176.99 1.28a1.843 1.843 0 0 1 .161.255l.347-1.452h.307L1.8-4.235.794-5.538a1.166 1.166 0 0 1-.076-.111 1.2 1.2 0 0 1-.065-.123L.305-4.317z" transform="translate(20.668 21.232)" style="fill:#696a6a"/>
        <path d="m-1.733-.573-.432 1.8H-2.5l.432-1.8h-.542l.069-.289h1.413l-.069.289z" transform="translate(25.785 15.683)" style="fill:#696a6a"/>
        <path d="m0-3.415.295-.126a.284.284 0 0 0 .087.214.347.347 0 0 0 .239.074.4.4 0 0 0 .255-.084.4.4 0 0 0 .141-.226q.044-.185-.22-.329l-.056-.032a1.023 1.023 0 0 1-.377-.305.441.441 0 0 1-.032-.334.717.717 0 0 1 .268-.415.771.771 0 0 1 .482-.159.622.622 0 0 1 .356.089.341.341 0 0 1 .149.257l-.287.138a.314.314 0 0 0-.1-.147.258.258 0 0 0-.157-.046.375.375 0 0 0-.23.071.328.328 0 0 0-.125.192q-.045.189.262.352l.037.02a.873.873 0 0 1 .349.28.449.449 0 0 1 .031.341.821.821 0 0 1-.3.473.845.845 0 0 1-.535.175.576.576 0 0 1-.4-.123.439.439 0 0 1-.132-.35" transform="translate(24.396 19.911)" style="fill:#696a6a"/>
        <path d="m0-4.152.5-2.094h.333l-.5 2.093z" transform="translate(26.847 21.068)" style="fill:#696a6a"/>
        <path d="m0-4.317.521-2.176.99 1.28a1.843 1.843 0 0 1 .161.255l.347-1.452h.307L1.8-4.235.794-5.538a1.167 1.167 0 0 1-.076-.111 1.224 1.224 0 0 1-.065-.123L.305-4.317z" transform="translate(27.655 21.232)" style="fill:#696a6a"/>
        <path d="m-1.733-.573-.432 1.8H-2.5l.432-1.8h-.542l.069-.289h1.413l-.069.289z" transform="translate(32.773 15.683)" style="fill:#696a6a"/>
        <path d="m0-4.152.5-2.094h1.14l-.069.289H.764l-.126.525h.807l-.072.3H.567L.4-4.457h.807l-.073.3z" transform="translate(31.4 21.068)" style="fill:#696a6a"/>
        <path d="M-1.228-1.77h.06A.747.747 0 0 0-.8-1.832a.339.339 0 0 0 .14-.223q.038-.173-.04-.245a.509.509 0 0 0-.326-.071h-.06zm-.084.265-.224.937h-.311l.5-2.093h.463a1.318 1.318 0 0 1 .309.027.368.368 0 0 1 .17.09.364.364 0 0 1 .1.2.629.629 0 0 1-.012.263.767.767 0 0 1-.213.394.673.673 0 0 1-.391.171l.475.952H-.82l-.455-.937z" transform="translate(34.767 17.484)" style="fill:#696a6a"/>
        <path d="m0-4.152.5-2.094h1.14l-.069.289H.764l-.125.522h.807l-.072.3H.567l-.236.984z" transform="translate(34.519 21.068)" style="fill:#696a6a"/>
        <path d="M-1.795-2.686h.569l-.095-.478q-.007-.046-.012-.105c0-.04-.006-.084-.007-.132q-.033.069-.066.128t-.065.109zm.72.822-.1-.539h-.808l-.366.539H-2.7l1.509-2.176.466 2.176z" transform="translate(38.337 18.779)" style="fill:#696a6a"/>
        <path d="M-3.752-1.109a.732.732 0 0 0-.253-.184.787.787 0 0 0-.315-.061.9.9 0 0 0-.6.22 1.038 1.038 0 0 0-.346.571.673.673 0 0 0 .07.559.523.523 0 0 0 .462.22A1.041 1.041 0 0 0-4.37.149a1.48 1.48 0 0 0 .362-.2L-4.1.335a1.274 1.274 0 0 1-.326.147 1.273 1.273 0 0 1-.354.049 1.023 1.023 0 0 1-.414-.079.715.715 0 0 1-.294-.231.769.769 0 0 1-.144-.354 1.121 1.121 0 0 1 .024-.434A1.418 1.418 0 0 1-5.425-1a1.469 1.469 0 0 1 .317-.355 1.41 1.41 0 0 1 .4-.234 1.28 1.28 0 0 1 .444-.079.973.973 0 0 1 .33.054.876.876 0 0 1 .278.162z" transform="translate(43.524 16.44)" style="fill:#696a6a"/>
        <path d="m0-4.152.5-2.094h1.14l-.069.289H.764l-.126.525h.807l-.072.3H.567L.4-4.457h.807l-.073.3z" transform="translate(39.804 21.068)" style="fill:#696a6a"/>
        <path d="M-4.523-22.716H-6.8l3.171-11.452h2.28z" transform="translate(38.277 34.169)" style="fill:#66686c"/>
        <path d="M-32.623-.65a.845.845 0 0 0-.733-.328h-12.538l-.621 2.243h11.406l-.664 2.4H-47.18l-1.893 6.833h2.282l1.27-4.586h10.257a1.457 1.457 0 0 0 .905-.328 1.521 1.521 0 0 0 .558-.811l1.27-4.587a.931.931 0 0 0-.1-.827" transform="translate(65.194 1.012)" style="fill:#66686c"/>
        <path d="M-27.052-21.232a1.048 1.048 0 0 1-1.01.767h-11.764a.822.822 0 0 1-.715-.328.911.911 0 0 1-.1-.811l2.87-10.333h2.282l-2.564 9.229h9.129l2.564-9.229h2.282z" transform="translate(41.847 31.97)" style="fill:#66686c"/>
        <path d="m-6.311 0 2.887 5.741-6.068 5.74z" transform="translate(47.175 .021)" style="fill:#27803b"/>
        <path d="m-6.32 0 2.885 5.741-6.071 5.74z" transform="translate(45.159 .021)" style="fill:#e9661c"/>
    </g>
</svg>
