<svg xmlns="http://www.w3.org/2000/svg" width="20" height="20" viewBox="0 0 20 20">
    <g data-name="Group 30914" transform="translate(-201 -151)">
        <circle data-name="Ellipse 161" cx="10" cy="10" r="10" transform="translate(201 151)" style="fill:#f51112"/>
        <path data-name="Path 65502" d="M-3.7 0-6-8.14h1.392l2.1 7.59h-.269l2.114-7.59h1.3L-1.669 0zm7.943.1a4.466 4.466 0 0 1-1.46-.223 2.655 2.655 0 0 1-1.1-.712 3.2 3.2 0 0 1-.69-1.284 6.874 6.874 0 0 1-.237-1.935 5.761 5.761 0 0 1 .429-2.409 2.823 2.823 0 0 1 1.23-1.353 4.042 4.042 0 0 1 1.933-.429A6.225 6.225 0 0 1 5.1-8.2a5.234 5.234 0 0 1 .729.14v1.16a5.031 5.031 0 0 0-.7-.143 5.454 5.454 0 0 0-.7-.044 2.566 2.566 0 0 0-1.248.278 1.738 1.738 0 0 0-.765.938 5.064 5.064 0 0 0-.258 1.8 5.182 5.182 0 0 0 .258 1.832 1.693 1.693 0 0 0 .759.927 2.594 2.594 0 0 0 1.232.267 3.514 3.514 0 0 0 .679-.069 5.846 5.846 0 0 0 .74-.2v1.149A3.963 3.963 0 0 1 5.1.03a4.912 4.912 0 0 1-.857.07z" transform="translate(211.009 165.245)" style="fill:#fff"/>
    </g>
</svg>
