<svg xmlns="http://www.w3.org/2000/svg" width="363" height="188" viewBox="0 0 363 188">
    <defs>
        <linearGradient id="0dlhe1f8tc" x1=".029" x2="1.014" y2=".944" gradientUnits="objectBoundingBox">
            <stop offset="0" stop-color="#02123b"/>
            <stop offset=".218" stop-color="#010f30"/>
            <stop offset="1" stop-color="#010a23"/>
        </linearGradient>
        <clipPath id="cpgcert1pb">
            <rect data-name="Rectangle 10526" width="345" height="170" rx="13" transform="translate(0 1)" style="fill:#442828"/>
        </clipPath>
        <filter id="smhqbeft8a" x="0" y="0" width="363" height="188" filterUnits="userSpaceOnUse">
            <feOffset dy="3"/>
            <feGaussianBlur stdDeviation="3" result="blur"/>
            <feFlood flood-color="#c9c9c9" flood-opacity=".69"/>
            <feComposite operator="in" in2="blur"/>
            <feComposite in="SourceGraphic"/>
        </filter>
    </defs>
    <g data-name="Group 31023">
        <g style="filter:url(#smhqbeft8a)">
            <rect data-name="Rectangle 10527" width="345" height="170" rx="13" transform="translate(9 6)" style="fill:#fff"/>
        </g>
        <g data-name="Mask Group 102" transform="translate(9 5)" style="clip-path:url(#cpgcert1pb)">
            <g data-name="Group 31022">
                <g data-name="Group 30981">
                    <g data-name="Group 30957">
                        <g data-name="Group 30956">
                            <g data-name="Group 30955">
                                <path data-name="Path 65504" d="m-409.282 134.887.723 172.108a1.1 1.1 0 0 1-.01.18v.07a1.377 1.377 0 0 1-.021.2 1.131 1.131 0 0 1-.01.181c-.011.129-.022.25-.043.37-.011.06-.022.11-.032.17a5.088 5.088 0 0 1-.129.57 5.02 5.02 0 0 1-.162.521.536.536 0 0 0-.044.12c-.064.15-.13.29-.194.431a5.186 5.186 0 0 1-.574.992c-.109.15-.228.3-.348.451-.1.11-.2.22-.293.331a2.529 2.529 0 0 1-.283.281.5.5 0 0 1-.109.1 2.8 2.8 0 0 1-.337.291c-.076.071-.163.131-.239.191a7.9 7.9 0 0 1-.926.594c-.13.07-.261.13-.392.191a2.443 2.443 0 0 1-.37.161 2.954 2.954 0 0 1-.382.142 2.488 2.488 0 0 1-.284.1h-.021a1.863 1.863 0 0 1-.306.091c-.011.01-.011.01-.022.01a8.144 8.144 0 0 1-2.051.267l-330.807 1.166c-4.115.015-7.478-2.973-7.625-6.713a1.939 1.939 0 0 1-.012-.24l-.723-172.108a4.741 4.741 0 0 1 .051-.791 6.315 6.315 0 0 1 .225-1.111c0-.019.011-.03.021-.05a2.254 2.254 0 0 1 .13-.37 2.327 2.327 0 0 1 .183-.441c.076-.17.163-.35.26-.52.022-.031.033-.051.055-.081a3.775 3.775 0 0 1 .336-.5 4.391 4.391 0 0 1 .522-.652l.217-.221.174-.17a.4.4 0 0 1 .1-.09c.13-.121.272-.242.413-.352a.229.229 0 0 1 .087-.06c.011-.01.011-.01.022-.01a4.146 4.146 0 0 1 .512-.362l.033-.03c.2-.121.4-.232.62-.342s.437-.2.665-.293a5.814 5.814 0 0 1 .621-.212 1.8 1.8 0 0 1 .251-.071c.12-.03.24-.061.36-.081a1.492 1.492 0 0 1 .306-.061 6.3 6.3 0 0 1 .643-.092 6.39 6.39 0 0 1 .764-.043l330.818-1.167a7.9 7.9 0 0 1 5.379 2.031 5.576 5.576 0 0 1 .548.559 5.477 5.477 0 0 1 .384.468c.131.18.263.369.384.559 0 .01.011.01.011.02.11.2.208.389.308.589v.02a4.361 4.361 0 0 1 .2.479 1.347 1.347 0 0 1 .1.27.866.866 0 0 1 .045.15c.044.149.088.309.122.469a5.6 5.6 0 0 1 .1.6c0 .04.011.08.011.12.012.14.034.29.035.44a1.1 1.1 0 0 1 .01.18z" transform="translate(754.213 -128.927)" style="fill:url(#0dlhe1f8tc)"/>
                            </g>
                        </g>
                    </g>
                    <g data-name="Group 30980" style="opacity:.4">
                        <g data-name="Group 30979">
                            <g data-name="Group 30967">
                                <g data-name="Group 30960">
                                    <g data-name="Group 30958">
                                        <path data-name="Path 65505" d="m-435.786 154.48-.085-20.191a1.232 1.232 0 0 0-.022-.2 1.11 1.11 0 0 0-.012-.181 4.236 4.236 0 0 0-.079-.54 4.832 4.832 0 0 0-.134-.571 4.547 4.547 0 0 0-.166-.52.531.531 0 0 1-.044-.12c-.067-.15-.133-.29-.2-.43a5.126 5.126 0 0 0-.584-.99c-.11-.149-.23-.3-.351-.449l-.3-.329a2.372 2.372 0 0 0-.285-.28.528.528 0 0 0-.11-.1 3.091 3.091 0 0 0-.341-.289c-.076-.07-.164-.13-.241-.189a7.758 7.758 0 0 0-.931-.588c-.132-.07-.263-.129-.394-.189a2.427 2.427 0 0 0-.373-.159 3.043 3.043 0 0 0-.383-.139 2.44 2.44 0 0 0-.285-.1l-23.8.084.112 26.571z" transform="translate(780.783 -128.927)" style="fill:#031e61"/>
                                        <path data-name="Rectangle 10509" transform="rotate(-.22 6839.2 -82284.386)" style="fill:#021649" d="M0 0h29.013v26.582H0z"/>
                                    </g>
                                    <g data-name="Group 30959">
                                        <path data-name="Rectangle 10510" transform="translate(316.222 78.798)" style="fill:#001b5d" d="M0 0h29.013v26.582H0z"/>
                                        <path data-name="Rectangle 10511" transform="translate(316.334 105.37)" style="fill:#011032" d="M0 0h29.013v26.582H0z"/>
                                    </g>
                                </g>
                                <g data-name="Group 30963">
                                    <g data-name="Group 30961">
                                        <path data-name="Rectangle 10512" transform="rotate(-.22 6851.263 -74730.937)" style="fill:#001b5d" d="M0 0h29.013v26.582H0z"/>
                                        <path data-name="Rectangle 10513" transform="translate(287.108 52.328)" style="fill:#021649" d="M0 0h29.013v26.582H0z"/>
                                    </g>
                                    <g data-name="Group 30962">
                                        <path data-name="Rectangle 10514" transform="rotate(-.22 27612.27 -74778.325)" style="fill:#02164a" d="M0 0h29.013v26.582H0z"/>
                                        <path data-name="Rectangle 10515" transform="rotate(-.22 34532.606 -74794.208)" style="fill:#001b5d" d="M0 0h29.013v26.582H0z"/>
                                    </g>
                                </g>
                                <g data-name="Group 30966">
                                    <g data-name="Group 30964">
                                        <path data-name="Rectangle 10516" transform="rotate(-.221 13721.616 -66888.95)" style="fill:#001b5d" d="M0 0h29.013v26.582H0z"/>
                                        <path data-name="Rectangle 10517" transform="rotate(-.22 20703.737 -67208.994)" style="fill:#001b5d" d="M0 0h29.013v26.582H0z"/>
                                    </g>
                                    <g data-name="Group 30965">
                                        <path data-name="Rectangle 10518" transform="rotate(-.22 -57.01 -67161.606)" style="fill:#002680" d="M0 0h29.013v26.582H0z"/>
                                    </g>
                                </g>
                            </g>
                            <g data-name="Group 30975">
                                <g data-name="Group 30970">
                                    <g data-name="Group 30968">
                                        <path data-name="Rectangle 10519" transform="rotate(-.221 -44.227 -59338.179)" style="fill:#031e61" d="M0 0h29.013v26.582H0z"/>
                                        <path data-name="Rectangle 10520" transform="translate(228.989 25.96)" style="fill:#001c5d" d="M0 0h29.013v26.582H0z"/>
                                    </g>
                                    <g data-name="Group 30969">
                                        <path data-name="Rectangle 10521" transform="translate(229.211 79.108)" style="fill:#021649" d="M0 0h29.01v26.579H0z"/>
                                    </g>
                                </g>
                                <g data-name="Group 30972">
                                    <g data-name="Group 30971">
                                        <path data-name="Rectangle 10522" transform="translate(199.987 26.06)" style="fill:#022e95" d="M0 0h29.01v26.58H0z"/>
                                        <path data-name="Rectangle 10523" transform="rotate(-.22 13806.746 -52086.476)" style="fill:#001c5d" d="M0 0h29.01v26.589H0z"/>
                                    </g>
                                </g>
                                <g data-name="Group 30974">
                                    <g data-name="Group 30973">
                                        <path data-name="Rectangle 10524" transform="rotate(-.22 -20.562 -44501)" style="fill:#002680" d="M0 0h29.013v26.582H0z"/>
                                    </g>
                                </g>
                            </g>
                            <g data-name="Group 30978">
                                <g data-name="Group 30977">
                                    <g data-name="Group 30976">
                                        <path data-name="Rectangle 10525" transform="translate(141.863 -.305)" style="fill:#031e61" d="M0 0h29.021v26.579H0z"/>
                                    </g>
                                </g>
                            </g>
                        </g>
                        <path data-name="Path 65506" d="m-435.2 307.1-.083-19.76-29 .1.111 26.571 21.394-.075a7.9 7.9 0 0 0 5.37-2.072 6.63 6.63 0 0 0 2.169-4.208c0-.037 0-.075.009-.113.009-.148.03-.294.03-.443z" transform="translate(780.839 -128.927)" style="fill:#001c5e"/>
                    </g>
                </g>
                <g data-name="Group 31007" style="opacity:.44;mix-blend-mode:overlay;isolation:isolate">
                    <g data-name="Group 30985">
                        <path data-name="Path 65508" d="M-409.192 196.3v1a276.005 276.005 0 0 0-73.791 14.07c-12.165 4.093-24.749 9.578-36.928 14.891-26.322 11.493-53.528 23.359-80.761 23.455-.753 0-1.5-.005-2.248-.023-26.624-.546-54.284-14-84.579-41.132a369.86 369.86 0 0 1-41.124-43.425 152.845 152.845 0 0 1-9.39-13.677c-4.637-7.294-9.395-14.8-15.463-20.086l.174-.17a.4.4 0 0 1 .1-.09c.13-.121.272-.242.413-.352a.229.229 0 0 1 .087-.06c.011-.01.011-.01.022-.01 6.168 5.388 10.948 12.921 15.617 20.265a150.4 150.4 0 0 0 9.325 13.587 369.433 369.433 0 0 0 41.015 43.306c30.075 26.944 57.494 40.307 83.834 40.844 27.727.6 55.574-11.575 82.518-23.331 12.192-5.323 24.809-10.827 37.016-14.93a277.274 277.274 0 0 1 74.163-14.132z" transform="translate(753.29 -128.927)" style="fill:#fff"/>
                    </g>
                    <g data-name="Group 30986">
                        <path data-name="Path 65509" d="M-408.986 205.686v.99a288.059 288.059 0 0 0-72.381 12.165c-12.144 3.673-24.708 8.678-36.846 13.53-17.609 7.023-35.806 14.287-53.954 18.071a119.987 119.987 0 0 1-24.166 2.705c-1.31 0-2.6-.011-3.886-.056-20.36-.729-41.109-8.576-63.429-24a257.006 257.006 0 0 1-20.884-16.186 381.67 381.67 0 0 1-41.52-41.484 150.148 150.148 0 0 1-9.583-13.007c-1-1.466-2-2.933-3.009-4.379-5.414-7.751-10.394-13.764-16.665-17.561v-.37a4.741 4.741 0 0 1 .051-.791c6.7 3.867 11.885 10.1 17.529 18.179 1.022 1.456 2.02 2.923 3.02 4.389a148.345 148.345 0 0 0 9.518 12.917 380.539 380.539 0 0 0 41.41 41.374 253.718 253.718 0 0 0 20.789 16.128c22.134 15.292 42.687 23.069 62.818 23.788a115.143 115.143 0 0 0 27.769-2.627c18.048-3.764 36.2-11.008 53.757-18.01 12.171-4.853 24.746-9.877 36.945-13.561a289.232 289.232 0 0 1 72.717-12.204z" transform="translate(753.122 -128.927)" style="fill:#fff"/>
                    </g>
                    <g data-name="Group 30987">
                        <path data-name="Path 65510" d="M-408.948 215.066v1a301.851 301.851 0 0 0-70.97 10.24c-12.135 3.253-24.657 7.777-36.776 12.15-17.373 6.271-35.323 12.755-53.209 16.008a126.245 126.245 0 0 1-22.116 2.148c-1.91.006-3.8-.037-5.677-.13-20.066-1.02-40.706-8.767-63.089-23.678-6.754-4.5-13.608-9.582-20.946-15.546a396.6 396.6 0 0 1-41.917-39.543 144.872 144.872 0 0 1-9.777-12.355q-1.532-2.08-3.085-4.15c-5.982-7.969-11.41-13.99-18.433-17.485a3.4 3.4 0 0 0-.338-.158l-.005-1.131c.3.14.58.278.864.417 7.219 3.575 12.734 9.7 18.816 17.784 1.031 1.377 2.052 2.773 3.085 4.169a147.481 147.481 0 0 0 9.711 12.266A394.346 394.346 0 0 0-681 216.505c7.305 5.944 14.126 11.02 20.858 15.5 22.209 14.791 42.651 22.469 62.51 23.48a119.441 119.441 0 0 0 27.52-2c17.789-3.232 35.7-9.695 53.024-15.957 12.141-4.382 24.685-8.907 36.863-12.18a302.894 302.894 0 0 1 71.277-10.282z" transform="translate(753.124 -128.927)" style="fill:#fff"/>
                    </g>
                    <g data-name="Group 30988">
                        <path data-name="Path 65511" d="M-408.912 224.246v1.01a321.339 321.339 0 0 0-69.568 8.525c-12.114 2.833-24.617 6.857-36.706 10.76-17.124 5.52-34.837 11.233-52.465 13.945a134.181 134.181 0 0 1-19.8 1.63q-3.911.014-7.707-.233c-19.772-1.32-40.3-8.958-62.761-23.369-6.742-4.316-13.616-9.192-21.008-14.916a416 416 0 0 1-42.312-37.581 145.636 145.636 0 0 1-9.96-11.685c-1.054-1.326-2.1-2.643-3.161-3.949-6.111-7.549-11.615-13.239-18.635-16.5-.744-.347-1.5-.684-2.253-1.012v-1.09c.929.377 1.848.784 2.755 1.2 7.207 3.364 12.821 9.155 19.008 16.8q1.6 1.974 3.171 3.959a147.042 147.042 0 0 0 9.883 11.6 416.265 416.265 0 0 0 42.2 37.491c7.381 5.7 14.222 10.56 20.932 14.867 22.294 14.291 42.65 21.88 62.226 23.18a123.62 123.62 0 0 0 27.248-1.386c17.529-2.7 35.2-8.394 52.29-13.9 12.11-3.9 24.635-7.937 36.793-10.78a322.529 322.529 0 0 1 69.83-8.566z" transform="translate(753.127 -128.927)" style="fill:#fff"/>
                    </g>
                    <g data-name="Group 30989">
                        <path data-name="Path 65512" d="M-408.876 233.586v1a343.007 343.007 0 0 0-68.158 6.66c-12.1 2.4-24.577 5.937-36.646 9.349-16.886 4.78-34.353 9.732-51.708 11.913a142.364 142.364 0 0 1-17.187 1.15c-3.427.012-6.767-.116-10.055-.384-19.468-1.6-39.889-9.139-62.443-23.05-6.708-4.127-13.593-8.8-21.071-14.276a440.655 440.655 0 0 1-42.7-35.64 145.818 145.818 0 0 1-10.143-11.014 286.621 286.621 0 0 0-3.246-3.739c-6.218-7.118-11.808-12.488-18.828-15.533a78.478 78.478 0 0 0-4.165-1.676l-.005-1.07q2.363.848 4.648 1.844c7.206 3.125 12.883 8.585 19.21 15.8q1.629 1.871 3.247 3.759a148.288 148.288 0 0 0 10.066 10.935 441.484 441.484 0 0 0 42.6 35.55c7.445 5.453 14.319 10.109 21.006 14.226 22.391 13.811 42.647 21.3 61.919 22.882a130.275 130.275 0 0 0 27-.756c17.27-2.181 34.691-7.112 51.535-11.881 12.089-3.413 24.584-6.957 36.733-9.37a344.471 344.471 0 0 1 68.391-6.679z" transform="translate(753.129 -128.927)" style="fill:#fff"/>
                    </g>
                    <g data-name="Group 30990">
                        <path data-name="Path 65513" d="M-408.84 242.926v1a368.594 368.594 0 0 0-66.758 4.785c-12.1 1.973-24.549 5-36.587 7.929-16.65 4.049-33.856 8.23-50.953 9.89-4.909.467-9.6.714-14.142.73a124.962 124.962 0 0 1-12.827-.6c-19.132-1.883-39.454-9.321-62.1-22.731-6.676-3.947-13.592-8.412-21.135-13.646a475.088 475.088 0 0 1-43.091-33.683c-3.615-3.167-7.025-6.815-10.326-10.344-1.107-1.186-2.2-2.362-3.321-3.528-6.348-6.7-12.013-11.738-19.021-14.563q-2.985-1.2-6.088-2.169v-1.06q3.329 1.023 6.526 2.317c7.2 2.9 12.968 8.025 19.414 14.812 1.119 1.166 2.215 2.352 3.323 3.538 3.278 3.509 6.677 7.137 10.248 10.274a474.485 474.485 0 0 0 43 33.619c7.52 5.213 14.415 9.659 21.069 13.6 22.508 13.33 42.665 20.709 61.622 22.583a137.349 137.349 0 0 0 26.74-.145c17.01-1.65 34.183-5.82 50.79-9.859 12.06-2.932 24.533-5.956 36.674-7.939a369.62 369.62 0 0 1 66.943-4.81z" transform="translate(753.132 -128.927)" style="fill:#fff"/>
                    </g>
                    <g data-name="Group 30991">
                        <path data-name="Path 65514" d="M-408.8 252.186v1a410.453 410.453 0 0 0-65.357 3c-11.956 1.542-24.248 4.026-36.146 6.428-16.522 3.338-33.61 6.788-50.568 7.938-3.634.233-7.148.365-10.565.377a135.739 135.739 0 0 1-16.135-.873c-19.056-2.183-38.678-9.3-61.764-22.412-6.653-3.767-13.59-8.023-21.208-13.006A522.832 522.832 0 0 1-714.03 202.9c-3.658-2.967-7.132-6.374-10.5-9.683-1.129-1.106-2.268-2.222-3.409-3.318-6.466-6.267-12.216-10.977-19.223-13.592a79.993 79.993 0 0 0-8-2.512v-1.04a81.935 81.935 0 0 1 8.415 2.631c7.194 2.674 13.042 7.464 19.608 13.821q1.709 1.644 3.419 3.338c3.343 3.278 6.8 6.666 10.42 9.6a516.89 516.89 0 0 0 43.4 31.677c7.585 4.973 14.5 9.209 21.142 12.966 22.943 13.029 42.434 20.1 61.327 22.274a144.945 144.945 0 0 0 26.482.486c16.881-1.139 33.927-4.589 50.416-7.918 11.909-2.4 24.232-4.885 36.232-6.437a412.168 412.168 0 0 1 65.501-3.007z" transform="translate(753.135 -128.927)" style="fill:#fff"/>
                    </g>
                    <g data-name="Group 30992">
                        <path data-name="Path 65515" d="M-408.767 261.416v1a457.2 457.2 0 0 0-63.945 1.235c-11.937 1.112-24.2 3.075-36.053 4.977-16.3 2.608-33.149 5.307-49.857 5.936a156.444 156.444 0 0 1-26.419-1.107c-18.675-2.464-38.2-9.485-61.436-22.1-6.608-3.577-13.566-7.623-21.27-12.375-15.4-9.506-30.164-19.524-43.885-29.786-3.722-2.787-7.271-5.974-10.712-9.052-1.15-1.026-2.29-2.052-3.451-3.068-6.6-5.847-12.421-10.226-19.427-12.622a84.659 84.659 0 0 0-9.911-2.705v-1.02a86.128 86.128 0 0 1 10.3 2.794c7.181 2.445 13.1 6.9 19.8 12.83q1.726 1.524 3.451 3.078c3.419 3.068 6.957 6.236 10.647 8.993 13.686 10.241 28.42 20.24 43.795 29.735 7.694 4.733 14.63 8.769 21.216 12.336 23.116 12.548 42.508 19.53 61.031 21.975a155.383 155.383 0 0 0 26.222 1.1c16.643-.619 33.452-3.318 49.715-5.925 11.879-1.9 24.16-3.875 36.129-4.988a458.855 458.855 0 0 1 64.06-1.241z" transform="translate(753.138 -128.927)" style="fill:#fff"/>
                    </g>
                    <g data-name="Group 30993">
                        <path data-name="Path 65516" d="M-408.731 270.626v1.01a513.97 513.97 0 0 0-62.545-.52c-11.928.662-24.158 2.105-35.983 3.507-16.059 1.887-32.664 3.845-49.112 3.963a169.881 169.881 0 0 1-26.149-1.738c-18.262-2.715-37.676-9.637-61.1-21.785-6.519-3.366-13.5-7.212-21.334-11.734-15.625-9.045-30.519-18.413-44.268-27.834-3.766-2.587-7.38-5.534-10.885-8.382a300.378 300.378 0 0 0-3.548-2.868c-6.713-5.426-12.624-9.475-19.618-11.641a83.967 83.967 0 0 0-11.833-2.748v-1.01a84.044 84.044 0 0 1 12.182 2.807c7.18 2.225 13.179 6.344 20 11.84 1.182.946 2.365 1.911 3.548 2.867 3.483 2.838 7.075 5.775 10.808 8.332 13.727 9.412 28.6 18.76 44.2 27.795 7.823 4.512 14.781 8.347 21.279 11.705 23.311 12.088 42.615 18.97 60.746 21.666a168.905 168.905 0 0 0 25.963 1.728c16.382-.118 32.954-2.066 48.97-3.963 11.848-1.391 24.1-2.835 36.06-3.507a516.965 516.965 0 0 1 62.619.51z" transform="translate(753.141 -128.927)" style="fill:#fff"/>
                    </g>
                    <g data-name="Group 30994">
                        <path data-name="Path 65517" d="M-408.7 279.846v1.02a607.913 607.913 0 0 0-61.144-2.285c-11.918.212-24.139 1.125-35.945 2.017-15.811 1.176-32.146 2.393-48.324 2.01a184.217 184.217 0 0 1-25.878-2.369c-18.034-3-36.78-9.62-60.767-21.466-6.5-3.207-13.3-6.733-21.4-11.094-15.917-8.624-30.94-17.331-44.664-25.893-3.906-2.446-7.7-5.233-11.353-7.93-1.106-.816-2.211-1.632-3.328-2.448-5.561-4.031-12.141-8.517-19.833-10.66a84.557 84.557 0 0 0-13.742-2.642v-1.01A86.382 86.382 0 0 1-741 199.787c7.88 2.2 14.545 6.748 20.184 10.838q1.675 1.226 3.34 2.449c3.646 2.687 7.4 5.464 11.286 7.88 13.7 8.552 28.7 17.259 44.6 25.863 8.085 4.361 14.877 7.878 21.363 11.075 23.878 11.8 42.527 18.39 60.439 21.367a185.073 185.073 0 0 0 25.714 2.349c16.113.393 32.425-.834 48.2-2.01 11.828-.882 24.06-1.8 36.021-2.017a607.905 607.905 0 0 1 61.153 2.265z" transform="translate(753.144 -128.927)" style="fill:#fff"/>
                    </g>
                    <g data-name="Group 30995">
                        <path data-name="Path 65518" d="M-408.66 288.995v1c-20.181-2.058-40.226-3.548-59.744-3.949-11.931-.248-24.133.135-35.941.5-15.542.485-31.617.981-47.513.077a202.208 202.208 0 0 1-25.609-2.989c-22.4-4.121-44.066-13.465-60.427-21.148-6.31-2.957-13.135-6.283-21.459-10.464-16.627-8.381-31.362-16.21-45.049-23.941-3.96-2.236-7.8-4.783-11.524-7.24-1.138-.756-2.276-1.512-3.425-2.258-5.659-3.69-12.345-7.786-20.027-9.689a87.2 87.2 0 0 0-15.662-2.4v-1a89.353 89.353 0 0 1 15.946 2.424c7.867 1.952 14.641 6.108 20.387 9.848 1.138.746 2.277 1.5 3.426 2.258 3.7 2.447 7.53 4.983 11.458 7.2 13.666 7.721 28.39 15.55 45 23.921 8.313 4.171 15.116 7.5 21.427 10.445 16.295 7.652 37.869 16.956 60.142 21.058a203.866 203.866 0 0 0 25.467 2.98c15.841.884 31.885.388 47.4-.087 11.82-.362 24.042-.745 36.006-.5 19.528.406 39.564 1.886 59.721 3.954z" transform="translate(753.146 -128.927)" style="fill:#fff"/>
                    </g>
                    <g data-name="Group 30996">
                        <path data-name="Path 65519" d="M-408.624 298.1v1c-19.658-2.39-39.292-4.451-58.331-5.584-11.966-.718-24.181-.885-36-1.053-15.27-.206-31.054-.431-46.647-1.816a231.785 231.785 0 0 1-25.327-3.61c-21.434-4.345-42.4-12.971-60.1-20.839-7.656-3.4-15.179-6.876-21.523-9.824-17.772-8.3-32.208-15.286-45.433-22-4.013-2.036-7.931-4.342-11.717-6.569a566.414 566.414 0 0 0-3.491-2.047c-5.766-3.35-12.56-7.066-20.24-8.719a89.251 89.251 0 0 0-16.807-1.991c-.251-.009-.5-.008-.764-.007v-1c.262 0 .535 0 .8.007a89.947 89.947 0 0 1 17.036 2.02c7.833 1.693 14.725 5.458 20.568 8.848 1.171.675 2.33 1.362 3.491 2.047 3.774 2.227 7.67 4.523 11.663 6.539 13.214 6.7 27.64 13.683 45.4 21.98 6.343 2.948 13.846 6.422 21.5 9.815 17.638 7.848 38.545 16.444 59.857 20.759a231.763 231.763 0 0 0 25.2 3.6c15.549 1.375 31.312 1.6 46.561 1.816 11.832.158 24.058.335 36.045 1.043 19.011 1.129 38.634 3.185 58.259 5.585z" transform="translate(753.15 -128.927)" style="fill:#fff"/>
                    </g>
                    <g data-name="Group 30997">
                        <path data-name="Path 65520" d="M-408.59 306.995a1.1 1.1 0 0 1-.01.18v.07a1.377 1.377 0 0 1-.021.2 1.128 1.128 0 0 1-.01.181c-.011.129-.022.25-.043.37-19.026-2.723-38.258-5.3-56.842-7.02-11.324-1.05-22.853-1.749-34.011-2.43-15.656-.945-31.837-1.928-47.824-3.882-8.978-1.118-17.169-2.5-25.057-4.241-21.282-4.705-42-13.062-59.758-20.52-6.856-2.876-13.7-5.811-20.328-8.658l-1.247-.536c-15.713-6.754-31.043-13.38-45.828-20.038-4.057-1.836-8.028-3.892-11.879-5.889-1.192-.615-2.385-1.241-3.588-1.857-5.874-3.009-12.787-6.335-20.444-7.748a90.849 90.849 0 0 0-16.728-1.521h-.033c-.906 0-1.812.027-2.729.06v-1a86.39 86.39 0 0 1 2.729-.06h.033a92.173 92.173 0 0 1 16.947 1.54c7.822 1.443 14.81 4.818 20.761 7.857 1.2.616 2.395 1.242 3.6 1.858 3.828 1.986 7.788 4.042 11.812 5.858 14.785 6.658 30.106 13.284 45.808 20.039l1.257.535c6.616 2.837 13.46 5.773 20.316 8.649 17.714 7.447 38.378 15.775 59.562 20.46 7.856 1.732 16.014 3.113 24.948 4.212 15.943 1.954 32.113 2.937 47.747 3.891 11.169.671 22.71 1.381 34.044 2.421 18.58 1.714 37.812 4.296 56.816 7.019z" transform="translate(753.153 -128.927)" style="fill:#fff"/>
                    </g>
                    <g data-name="Group 30998">
                        <path data-name="Path 65521" d="m-421.673 314.021-6.058.022c-12.146-1.987-24.411-3.934-36.349-5.6-12.122-1.7-24.473-3.014-36.409-4.282-14.611-1.548-29.713-3.155-44.6-5.483-8.868-1.4-16.975-2.99-24.787-4.862-19.688-4.721-38.558-11.944-59.419-20.2l-8.014-3.172q-6.872-2.72-13.634-5.382-10.856-4.281-21.549-8.434c-8.134-3.171-16.552-6.451-24.664-9.663-4.067-1.615-8.08-3.421-11.952-5.168-1.257-.565-2.515-1.141-3.773-1.7-5.981-2.669-13.012-5.6-20.647-6.778a92.11 92.11 0 0 0-16.715-1.051c-1.55.046-3.11.141-4.692.277v-1a82.746 82.746 0 0 1 4.659-.277 93.6 93.6 0 0 1 16.933 1.061c7.788 1.2 14.9 4.177 20.943 6.866l3.773 1.7c3.86 1.746 7.862 3.552 11.907 5.148a5205.412 5205.412 0 0 0 24.655 9.663q10.693 4.163 21.559 8.434 6.757 2.661 13.634 5.382l8.015 3.172c20.816 8.246 39.653 15.45 59.265 20.151 7.78 1.872 15.853 3.454 24.689 4.853 14.854 2.318 29.946 3.924 44.546 5.473 11.946 1.268 24.3 2.584 36.441 4.281 13.878 1.939 28.186 4.259 42.243 6.569z" transform="translate(753.156 -128.927)" style="fill:#fff"/>
                    </g>
                    <g data-name="Group 30999">
                        <path data-name="Path 65522" d="m-466.569 314.18-5.818.02c-9.131-1.538-18.284-2.945-27.207-4.324-14.167-2.17-28.824-4.418-43.244-7.188-8.771-1.689-16.79-3.48-24.505-5.483-18.6-4.815-37.138-11.719-55.056-18.386l-4.034-1.506a2013.856 2013.856 0 0 0-21.71-7.913c-13.4-4.8-26.771-9.376-39.713-13.79l-6.886-2.356c-3.869-1.327-7.707-2.8-11.413-4.24q-2.279-.878-4.57-1.744c-6.035-2.319-13.119-4.864-20.85-5.806a93.936 93.936 0 0 0-16.67-.582q-3.289.192-6.655.634v-1.01c2.226-.288 4.418-.5 6.6-.624a95.205 95.205 0 0 1 16.867.591c7.874.952 15.033 3.537 21.135 5.866 1.519.584 3.05 1.169 4.569 1.753 3.7 1.427 7.523 2.9 11.37 4.22l6.9 2.356c12.931 4.425 26.31 9 39.723 13.8a1909.33 1909.33 0 0 1 21.722 7.924l4.034 1.495c17.9 6.667 36.393 13.552 54.936 18.357 7.7 1.993 15.689 3.785 24.44 5.474 14.4 2.759 29.033 5 43.188 7.178 10.762 1.652 21.848 3.352 32.847 5.284z" transform="translate(753.159 -128.927)" style="fill:#fff"/>
                    </g>
                    <g data-name="Group 31000">
                        <path data-name="Path 65523" d="m-499.645 314.3-4.977.018c-11.863-2.4-24-4.886-35.964-7.6-8.675-1.98-16.6-3.982-24.235-6.115-15.44-4.306-30.974-9.791-46-15.1q-6.379-2.257-12.745-4.475c-7.773-2.683-14.888-5.068-21.763-7.273-16.209-5.233-32.1-9.887-46.994-14.2-3.814-1.106-7.618-2.333-11.278-3.52q-2.475-.8-4.962-1.592c-6.132-1.969-13.323-4.134-21.065-4.826a96.206 96.206 0 0 0-16.6-.112c-2.892.24-5.772.631-8.629 1.141v-1.02c2.825-.5 5.672-.88 8.531-1.12a98.715 98.715 0 0 1 16.809.11c7.862.713 15.129 2.9 21.327 4.885 1.65.524 3.3 1.059 4.951 1.593 3.662 1.177 7.455 2.4 11.258 3.5 14.9 4.328 30.806 8.982 47.016 14.214 6.885 2.216 14.013 4.6 21.795 7.294q6.362 2.212 12.756 4.475c15 5.3 30.52 10.782 45.929 15.078 7.616 2.123 15.528 4.115 24.18 6.1 13.536 3.057 27.323 5.858 40.66 8.545z" transform="translate(753.162 -128.927)" style="fill:#fff"/>
                    </g>
                    <g data-name="Group 31001">
                        <path data-name="Path 65524" d="m-520.21 314.369-4.006.014c-4.71-1.2-9.43-2.427-14.117-3.66-8.578-2.27-16.414-4.473-23.955-6.736-11.846-3.538-23.848-7.626-35.456-11.575-7.531-2.563-15.315-5.216-22.954-7.679a700.945 700.945 0 0 0-21.836-6.643c-16.4-4.712-33.055-8.8-47.378-12.253-3.7-.887-7.408-1.854-10.982-2.8-1.836-.483-3.672-.967-5.508-1.44a111.528 111.528 0 0 0-21.279-3.855 99.7 99.7 0 0 0-16.556.368 96.205 96.205 0 0 0-10.592 1.8v-1.03a95.976 95.976 0 0 1 10.461-1.767 101.043 101.043 0 0 1 16.763-.359 111.3 111.3 0 0 1 21.5 3.884c1.846.473 3.682.957 5.517 1.44 3.574.938 7.267 1.915 10.96 2.792 14.335 3.459 31 7.551 47.423 12.263a732.88 732.88 0 0 1 21.868 6.663c7.651 2.473 15.445 5.115 22.976 7.679 11.6 3.949 23.588 8.027 35.413 11.565a777.182 777.182 0 0 0 23.921 6.726 2079.055 2079.055 0 0 0 17.817 4.603z" transform="translate(753.165 -128.927)" style="fill:#fff"/>
                    </g>
                    <g data-name="Group 31002">
                        <path data-name="Path 65525" d="m-533.628 314.416-3.449.012a1408.815 1408.815 0 0 1-22.69-7.05c-7.628-2.433-15.389-5.046-22.909-7.569-11.51-3.859-23.423-7.868-35.161-11.366a533.724 533.724 0 0 0-21.888-6.013c-16.817-4.251-33.584-7.592-47.764-10.312-3.529-.657-7.069-1.385-10.5-2.083q-3.13-.648-6.26-1.268a126.071 126.071 0 0 0-21.482-2.884 101.867 101.867 0 0 0-16.511.838 97.869 97.869 0 0 0-12.552 2.6v-1.04a99.291 99.291 0 0 1 12.4-2.544 104.167 104.167 0 0 1 16.7-.849 127.819 127.819 0 0 1 21.689 2.9c2.087.413 4.173.846 6.271 1.268 3.409.7 6.948 1.426 10.465 2.084 14.2 2.72 30.992 6.07 47.84 10.331a536.275 536.275 0 0 1 21.932 6.023c11.759 3.508 23.684 7.506 35.2 11.386 7.508 2.513 15.269 5.126 22.9 7.559a1543.417 1543.417 0 0 0 23.661 7.347c.698.205 1.408.423 2.108.63z" transform="translate(753.169 -128.927)" style="fill:#fff"/>
                    </g>
                    <g data-name="Group 31003">
                        <path data-name="Path 65526" d="m-543.313 314.45-3.1.011q-5.395-1.826-10.821-3.682l-7.707-2.642c-16.341-5.593-33.229-11.383-50.036-15.984a425.24 425.24 0 0 0-21.95-5.383c-17.644-3.848-35-6.486-48.149-8.36-3.135-.439-6.236-.9-9.338-1.357q-3.835-.572-7.679-1.133a148.685 148.685 0 0 0-21.63-1.894h-.065a102.636 102.636 0 0 0-16.454 1.308 103.005 103.005 0 0 0-14.514 3.532v-1.06a103.305 103.305 0 0 1 14.328-3.461 104.753 104.753 0 0 1 16.64-1.319h.065a147.913 147.913 0 0 1 21.806 1.913c2.566.361 5.122.742 7.688 1.123 3.091.459 6.193.918 9.327 1.357 13.161 1.874 30.549 4.523 48.236 8.38a424.88 424.88 0 0 1 22.006 5.393c16.84 4.61 33.749 10.411 50.1 16.013 2.579.881 5.138 1.762 7.706 2.633l13.541 4.612z" transform="translate(753.172 -128.927)" style="fill:#fff"/>
                    </g>
                    <g data-name="Group 31004">
                        <path data-name="Path 65527" d="m-550.9 314.477-2.936.01c-.295-.108-.58-.208-.874-.317-21.153-7.675-39-13.722-57.392-18.317a369.32 369.32 0 0 0-22.014-4.743c-13.971-2.561-29.392-4.606-48.544-6.419q-3.127-.288-6.235-.588-5.519-.52-11.028-1.021a176.964 176.964 0 0 0-21.911-.923 108.761 108.761 0 0 0-16.408 1.778 106.221 106.221 0 0 0-16.473 4.638v-1.07a106.994 106.994 0 0 1 16.254-4.547 109.928 109.928 0 0 1 16.594-1.8 178.361 178.361 0 0 1 22.053.932c3.679.317 7.349.674 11.039 1.021 2.075.193 4.15.395 6.236.588 19.185 1.812 34.638 3.858 48.642 6.429a360.044 360.044 0 0 1 22.079 4.762c18.444 4.605 36.326 10.662 57.523 18.347l3.395 1.24z" transform="translate(753.175 -128.927)" style="fill:#fff"/>
                    </g>
                    <g data-name="Group 31005">
                        <path data-name="Path 65528" d="m-557.389 314.5-2.882.01a383.607 383.607 0 0 0-48.973-14.947 306.411 306.411 0 0 0-22.076-4.1 482.877 482.877 0 0 0-48.917-4.487c-7.031-.325-12.435-.556-17.533-.728a211.355 211.355 0 0 0-22.114.058 110.81 110.81 0 0 0-16.353 2.247 110.08 110.08 0 0 0-18.443 5.885l-.005-1.1a110.322 110.322 0 0 1 18.193-5.754 111.81 111.81 0 0 1 16.527-2.278 213.956 213.956 0 0 1 22.234-.059c5.109.183 10.512.4 17.544.729a484.929 484.929 0 0 1 49.048 4.5c7.624 1.143 15.073 2.527 22.153 4.122 15.536 3.489 32.05 8.581 51.597 15.902z" transform="translate(753.179 -128.927)" style="fill:#fff"/>
                    </g>
                    <g data-name="Group 31006">
                        <path data-name="Path 65529" d="m-563.549 314.522-2.936.01a288.13 288.13 0 0 0-39.887-11.259c-29.594-5.956-60.364-6.348-89.233-5.876-13.228.217-26.138.672-38.634 3.766a115.19 115.19 0 0 0-20.391 7.292 1.95 1.95 0 0 1-.012-.24v-.86a115.161 115.161 0 0 1 20.119-7.161c12.615-3.124 25.6-3.58 38.9-3.8 28.934-.472 59.792-.081 89.485 5.895a292.2 292.2 0 0 1 42.589 12.233z" transform="translate(753.182 -128.927)" style="fill:#fff"/>
                    </g>
                </g>
            </g>
        </g>
    </g>
</svg>
