<svg xmlns="http://www.w3.org/2000/svg" width="26" height="26" viewBox="0 0 26 26">
    <g data-name="Group 30738">
        <g data-name="Group 33599">
            <path data-name="Path 60779" d="M124.1 40.848h-11.3a.39.39 0 1 1 0-.78h9.828a.467.467 0 0 0 0-.934h-10.147a1.091 1.091 0 0 0-1.09 1.09v9.83a.564.564 0 0 0 .564.564h1.2a4.108 4.108 0 0 0 6.944 0h4a.564.564 0 0 0 .564-.564v-8.642a.564.564 0 0 0-.564-.564zm-7.473 10.9a3.335 3.335 0 1 1 3.335-3.335 3.338 3.338 0 0 1-3.335 3.335zm7.175-7.09h-3.054a1.045 1.045 0 0 1 0-2.09h3.052zm-3.4-1.045a.448.448 0 1 0 .448-.448.448.448 0 0 0-.45.447z" transform="translate(-104.414 -32.145)" style="fill:#fff"/>
            <g data-name="Group 33576">
                <path data-name="Path 73225" d="M-222.163 181.753a2.507 2.507 0 0 0-1.215 3.33 2.507 2.507 0 0 0 3.33 1.215 2.507 2.507 0 0 0 1.215-3.33 2.507 2.507 0 0 0-3.33-1.215z" transform="translate(233.462 -167.669)" style="fill:#ec8a14"/>
                <path data-name="Path 73226" d="M-220.419 179.587a2.508 2.508 0 0 0-2.729-1.054 2.521 2.521 0 0 0-.426.154 2.5 2.5 0 0 0-1.342 1.55 2.5 2.5 0 0 0 .128 1.78 2.507 2.507 0 0 0 3.33 1.215 2.5 2.5 0 0 0 1.35-1.575 2.5 2.5 0 0 0-.135-1.754 2.492 2.492 0 0 0-.176-.316z" transform="translate(234.797 -164.769)" style="fill:#ffd62c"/>
                <path data-name="Path 73227" d="M-188.286 179.587c-.481-.105-.433.526-.433.526-.924.187-2.33-.9-2.33-.9.6-.52.053-.676.034-.681a2.508 2.508 0 0 1 2.729 1.055z" transform="translate(202.664 -164.769)" style="fill:#ffef33"/>
                <path data-name="Path 73228" d="M-209.674 191.323a1.867 1.867 0 0 1-.8 2.421c-.036.02-.074.039-.112.056a1.867 1.867 0 0 1-2.477-.916 1.868 1.868 0 0 1 .915-2.478c.038-.018.077-.034.116-.049a1.868 1.868 0 0 1 2.358.966z" transform="translate(223.651 -175.913)" style="fill:#d86c0b"/>
                <path data-name="Path 73229" d="M-205.7 191.323a1.867 1.867 0 0 1-.8 2.421 1.867 1.867 0 0 1-2.362-.964 1.868 1.868 0 0 1 .8-2.421 1.868 1.868 0 0 1 2.362.964z" transform="translate(219.676 -175.913)" style="fill:#ffa81d"/>
                <path data-name="Path 73230" d="M-220.109 212.8a2.5 2.5 0 0 1-1.35 1.575 2.507 2.507 0 0 1-3.33-1.215 2.5 2.5 0 0 1-.128-1.78 2.569 2.569 0 0 0 2.016 2.815 2.606 2.606 0 0 0 2.792-1.395z" transform="translate(234.797 -195.911)" style="fill:#ffbf25"/>
            </g>
            <g data-name="Rectangle 8792" style="stroke:#fff;fill:none">
                <rect width="26" height="26" rx="13" style="stroke:none"/>
                <rect x=".5" y=".5" width="25" height="25" rx="12.5" style="fill:none"/>
            </g>
        </g>
    </g>
</svg>
