<svg xmlns="http://www.w3.org/2000/svg" width="18" height="18" viewBox="0 0 18 18">
    <g data-name="Group 32417">
        <path data-name="Path 65408" d="M17.156 0H.844A.845.845 0 0 0 0 .844v5.063a.845.845 0 0 0 .844.844h2.531v10.405a.845.845 0 0 0 .844.844h9.563a.845.845 0 0 0 .844-.844V6.75h2.531a.845.845 0 0 0 .844-.844V.844A.845.845 0 0 0 17.156 0zM4.219 17.438c-.445 0-.226-.658-.281-1.17.236.073 9.925.062 10.125 0v.889c0 .543-.431.16-9.844.281zm9.844-1.856c0 .08-.12.169-.281.169-9.312-.084-9.844.162-9.844-.169v-1.009c.279.1-.236.031 9.844.052a.835.835 0 0 0 .281-.052zm0-2.644c-.053.471.162 1.125-.281 1.125-9.4-.121-9.844.261-9.844-.281V2.25h10.125zM3.375 4.5h-.844V2.25h.844zm13.781 1.688h-2.531V5.063h1.406V1.688H1.969v3.375h1.406v1.125c-2.136-.1-2.812.216-2.812-.281V.844A.282.282 0 0 1 .844.563h16.313a.282.282 0 0 1 .281.281c-.111 4.679.253 5.344-.282 5.344zM14.625 4.5V2.25h.844V4.5z"/>
        <path data-name="Path 65409" d="M9.281 10.046v-4.14h-.562v4.14l-1.231-.984-.351.439L9 10.992l1.863-1.491-.351-.439z"/>
    </g>
</svg>
