<svg xmlns="http://www.w3.org/2000/svg" width="34" height="34" viewBox="0 0 34 34">
    <g data-name="Group 32608">
        <g data-name="Group 32609">
            <g data-name="Group 32606">
                <g data-name="Rectangle 10528" style="stroke:#76ba1b;stroke-width:.7px;fill:none">
                    <rect width="34" height="34" rx="5" style="stroke:none"/>
                    <rect x=".35" y=".35" width="33.3" height="33.3" rx="4.65" style="fill:none"/>
                </g>
            </g>
            <g data-name="Group 32612">
                <path data-name="Path 65825" d="M191.734 35.884a2.38 2.38 0 0 1-.65-.681 2.461 2.461 0 0 1-.031-.985 1.982 1.982 0 0 0-.3-1.637 1.418 1.418 0 0 0-1.031-.338c-.2 0-.406.018-.606.035s-.379.032-.549.032a1.175 1.175 0 0 1-.436-.063 2.383 2.383 0 0 1-.681-.65c-.378-.454-.806-.968-1.409-.968s-1.031.514-1.409.968a2.38 2.38 0 0 1-.681.65 1.171 1.171 0 0 1-.436.063c-.171 0-.354-.016-.549-.032s-.407-.035-.606-.035a1.419 1.419 0 0 0-1.031.338 1.981 1.981 0 0 0-.3 1.637 2.462 2.462 0 0 1-.031.986 2.383 2.383 0 0 1-.65.681c-.454.378-.968.806-.968 1.408s.514 1.031.968 1.409a2.38 2.38 0 0 1 .65.681 2.467 2.467 0 0 1 .031.985 1.982 1.982 0 0 0 .3 1.637 1.419 1.419 0 0 0 1.031.338c.2 0 .406-.018.605-.035s.379-.032.549-.032a1.172 1.172 0 0 1 .436.063 2.383 2.383 0 0 1 .681.65c.378.454.806.968 1.409.968s1.031-.514 1.409-.968a2.38 2.38 0 0 1 .681-.65 1.172 1.172 0 0 1 .436-.063c.171 0 .355.016.549.032s.407.035.605.035a1.419 1.419 0 0 0 1.03-.343 1.981 1.981 0 0 0 .3-1.637 2.467 2.467 0 0 1 .031-.985 2.383 2.383 0 0 1 .65-.681c.454-.378.968-.806.968-1.408s-.514-1.031-.968-1.409zm-2.195-.3a.342.342 0 1 1-.342.342.342.342 0 0 1 .342-.347zm-1.836-2a.342.342 0 1 1-.342.342.342.342 0 0 1 .339-.346zm-1.33-.373a.342.342 0 1 1-.342.342.342.342 0 0 1 .343-.346zm-1.374.13a.342.342 0 1 1-.242.1.342.342 0 0 1 .242-.1zm-2.162 1.642a.342.342 0 1 1-.342.342.342.342 0 0 1 .343-.345zm-.493 1.288a.342.342 0 1 1-.342.342.342.342 0 0 1 .343-.345zm0 2.064a.342.342 0 1 1 .342-.342.342.342 0 0 1-.341.339zm.5 1.286a.342.342 0 1 1 .342-.342.342.342 0 0 1-.34.339zm.921-5.66a.342.342 0 1 1-.342.342.342.342 0 0 1 .344-.345zm.011 6.68a.342.342 0 1 1 .342-.342.342.342 0 0 1-.34.339zm1.237.614a.342.342 0 1 1 .342-.342.342.342 0 0 1-.342.342zm1.374.124a.342.342 0 1 1 .342-.342.342.342 0 0 1-.342.342zm1.33-.379a.342.342 0 1 1 .342-.342.342.342 0 0 1-.342.342zm.355-3.864-.769.75.182 1.059a.342.342 0 0 1-.5.36l-.95-.5-.95.5a.342.342 0 0 1-.5-.36l.182-1.059-.769-.75a.342.342 0 0 1 .189-.583l1.062-.155.475-.963a.342.342 0 0 1 .613 0l.475.963 1.062.155a.342.342 0 0 1 .189.583zm.736-2.725a.342.342 0 1 1-.342.342.342.342 0 0 1 .342-.342zm.01 5.756a.342.342 0 1 1 .342-.342.342.342 0 0 1-.342.34zm.721-1.173a.342.342 0 1 1 .342-.342.342.342 0 0 1-.342.342zm.259-1.358a.342.342 0 1 1 .342-.342.342.342 0 0 1-.34.34z" transform="translate(-169.038 -23.967)" style="fill:#76ba1b"/>
                <path data-name="Path 65826" d="m324.158 177.79-.248-.5-.248.5a.342.342 0 0 1-.257.187l-.555.081.4.392a.342.342 0 0 1 .1.3l-.095.554.5-.261a.341.341 0 0 1 .318 0l.5.261-.095-.554a.342.342 0 0 1 .1-.3l.4-.392-.555-.081a.342.342 0 0 1-.265-.187z" transform="translate(-306.909 -164.897)" style="fill:#76ba1b"/>
                <path data-name="Path 65827" d="M179.686 372.668h12.643a.342.342 0 0 0 .342-.342v-1.953a1.078 1.078 0 0 0-1.025-1.123h-1.2v-1.025a1.026 1.026 0 0 0-1.025-1.025h-.272a2.379 2.379 0 0 1-1.154-.942 2.559 2.559 0 0 1-.282-1.1v-.1a2.012 2.012 0 0 1-3.418 0v.1a2.559 2.559 0 0 1-.282 1.1 2.379 2.379 0 0 1-1.154.942h-.272a1.026 1.026 0 0 0-1.025 1.025v1.025h-1.2a1.078 1.078 0 0 0-1.025 1.123v1.953a.342.342 0 0 0 .342.342zm6.322-1.367a.342.342 0 1 1 .242-.1.342.342 0 0 1-.243.099zm-3.759-3.075a.342.342 0 0 1 .342-.342h6.834a.342.342 0 0 1 .342.342v1.025h-7.517z" transform="translate(-169.007 -345.332)" style="fill:#76ba1b"/>
            </g>
        </g>
    </g>
</svg>
