<svg xmlns="http://www.w3.org/2000/svg" width="14.427" height="14" viewBox="0 0 14.427 14">
    <g data-name="Group 30845">
        <path data-name="Path 65486" d="M314.513 22.855a1.016 1.016 0 1 1-1.016-1.016 1.016 1.016 0 0 1 1.016 1.016" transform="translate(-306.289 -21.839)" style="fill:#e10413"/>
        <path data-name="Path 65487" d="m334.746 110.1.425-.895h-.849z" transform="translate(-327.539 -106.835)" style="fill:#e10413"/>
        <path data-name="Path 65488" d="M242.362 44.714V50.8h.91v-3h.425v3.018h.91v-6.1l1.744-1.76a.386.386 0 0 0-.546-.546L244.213 44l-.516 1.092a.388.388 0 0 1 .182.349.4.4 0 1 1-.8 0 .423.423 0 0 1 .182-.349L242.742 44l-1.562-1.608a.386.386 0 1 0-.546.546z" transform="translate(-236.278 -41.726)" style="fill:#e10413"/>
        <path data-name="Path 65489" d="M143.713 93.413A1.016 1.016 0 1 1 142.7 92.4a1.016 1.016 0 0 1 1.016 1.016" transform="translate(-140.116 -90.486)" style="fill:#e10413"/>
        <path data-name="Path 65490" d="M84.1 182.576a.333.333 0 0 0 .2.061.381.381 0 0 0 .334-.182l.728-1.213v5.279h.91v-3.064h.425v3.043h.91v-5.278l.743 1.213a.388.388 0 1 0 .667-.394l-1.259-2.093a.4.4 0 0 0-.334-.2h-1.85a.4.4 0 0 0-.334.2l-1.259 2.093a.375.375 0 0 0 .121.531z" transform="translate(-83.913 -175.477)" style="fill:#e10413"/>
        <path data-name="Path 65491" d="M485.313 93.413A1.016 1.016 0 1 1 484.3 92.4a1.016 1.016 0 0 1 1.016 1.016" transform="translate(-472.463 -90.486)" style="fill:#e10413"/>
        <path data-name="Path 65492" d="M425.541 182.576a.334.334 0 0 0 .2.061.381.381 0 0 0 .334-.182l.743-1.213v5.279h.91v-3.064h.425v3.043h.91v-5.278l.728 1.213a.388.388 0 1 0 .667-.394l-1.259-2.093a.4.4 0 0 0-.334-.2H427a.4.4 0 0 0-.334.2l-1.259 2.093a.392.392 0 0 0 .137.531z" transform="translate(-416.105 -175.477)" style="fill:#e10413"/>
        <path data-name="Path 65493" d="M98.139 377.719h-4.718v-1.684a.272.272 0 0 0-.273-.273h-3.883a.272.272 0 0 0-.273.273v1.684h-4.717a.272.272 0 0 0-.273.273v1.908a.272.272 0 0 0 .273.273h13.879a.272.272 0 0 0 .273-.273v-1.911a.3.3 0 0 0-.288-.273z" transform="translate(-84 -366.176)" style="fill:#e10413"/>
    </g>
</svg>
