<svg xmlns="http://www.w3.org/2000/svg" width="17.864" height="15.686" viewBox="0 0 17.864 15.686">
    <g data-name="Group 32415">
        <path data-name="Path 65403" d="M1.743-.002A1.749 1.749 0 0 0 0 1.741v12.42a1.531 1.531 0 0 0 1.525 1.525h14.814a1.531 1.531 0 0 0 1.525-1.525V4.139a1.531 1.531 0 0 0-1.525-1.525H15.25V.436A.453.453 0 0 0 14.814 0zm0 .871h12.636v1.743H1.743a.872.872 0 0 1 0-1.743zM.872 3.245a1.729 1.729 0 0 0 .871.238h14.6a.643.643 0 0 1 .654.654v2.614h-6.318A1.1 1.1 0 0 0 9.59 7.84v2.614a1.1 1.1 0 0 0 1.089 1.089h6.318v2.614a.643.643 0 0 1-.654.654H1.525a.643.643 0 0 1-.654-.654zm9.8 4.377h6.318v3.05h-6.318a.209.209 0 0 1-.218-.218V7.842a.208.208 0 0 1 .218-.218zm2.179.654a.871.871 0 1 0 .871.871.871.871 0 0 0-.868-.869z"/>
    </g>
</svg>
