<svg xmlns="http://www.w3.org/2000/svg" width="37" height="37" viewBox="0 0 37 37">
    <g data-name="Group 32751" transform="translate(-30 -574)">
        <rect data-name="Rectangle 10645" width="37" height="37" rx="7" transform="translate(30 574)" style="fill:#ffdfdf"/>
        <g data-name="Group 32750">
            <path data-name="Path 66063" d="M248.463 227.671a7 7 0 0 1-4.332-1.275v.845c0 1.374 2.812 1.967 4.332 1.967 1.566 0 4.328-.593 4.328-1.967v-.841a7 7 0 0 1-4.328 1.271zm0 2.248a6.907 6.907 0 0 1-4.332-1.289v.675c0 1.374 2.8 1.971 4.332 1.971 1.594 0 4.328-.6 4.328-1.971v-.675a6.881 6.881 0 0 1-4.328 1.288zm3.615-5.965a4.072 4.072 0 0 1-.614.849 4.127 4.127 0 0 1-6.622-.849 1.426 1.426 0 0 0-.732 1.037h.021c0 1.392 2.858 1.967 4.332 1.967s4.328-.572 4.328-1.967h.021a1.416 1.416 0 0 0-.735-1.037z" transform="translate(-199.901 365.777)" style="fill:#f51112"/>
            <path data-name="Path 66065" d="m357.79 184.33.018.6a.315.315 0 0 0 .245-.333c-.004-.146-.125-.217-.263-.267z" transform="translate(-308.975 403.794)" style="fill:#f51112"/>
            <path data-name="Path 66067" d="M387.63 20.645h.71v2.189h-.71z" transform="translate(-337.605 560.847)" style="fill:#f51112"/>
            <path data-name="Path 66068" d="M342.76 4.18h.71v.826h-.71z" transform="translate(-294.553 576.645)" style="fill:#f51112"/>
            <path data-name="Path 66069" d="M297.88 20.637h.71v2.189h-.71z" transform="translate(-251.492 560.855)" style="fill:#f51112"/>
            <path data-name="Path 66070" d="M342.76 44.4h.71v1.226h-.71z" transform="translate(-294.553 538.059)" style="fill:#f51112"/>
            <path data-name="Path 66071" d="M445.164 149.4a1.35 1.35 0 0 0-1.033-1.331 1.327 1.327 0 0 0-1.253.382 1.365 1.365 0 0 0-.355.95v4.257l-.039.011.075.11a2.773 2.773 0 0 1-.06 3.238l-.987 1.32a.355.355 0 0 1-.569-.425l.988-1.321a2.064 2.064 0 0 0 .046-2.407l-.075-.11s0 .007-.007.011l-2 2.542-.288.227a3.913 3.913 0 0 0-2.059 3.462v4.243h4.777v-2.223l2.754-6.029c.16-.433.057-.27.089-6.906z" transform="translate(-385.496 438.616)" style="fill:#f51112"/>
            <path data-name="Path 66072" d="M74.308 149.4a1.35 1.35 0 0 1 1.033-1.331 1.327 1.327 0 0 1 1.253.382 1.365 1.365 0 0 1 .355.95v4.257l.039.011-.075.11a2.773 2.773 0 0 0 .06 3.239l.987 1.32a.355.355 0 0 0 .569-.425l-.988-1.321a2.064 2.064 0 0 1-.046-2.407l.075-.11s0 .007.007.011l2 2.542.288.227a3.914 3.914 0 0 1 2.059 3.462v4.243h-4.773v-2.223l-2.751-6.029c-.16-.433-.057-.27-.089-6.906z" transform="translate(-36.975 438.616)" style="fill:#f51112"/>
            <g data-name="Group 32750">
                <path data-name="Path 66062" d="M178.4 105a3.4 3.4 0 1 1-3.4 3.4 3.395 3.395 0 0 1 3.4-3.4zm-1.159 1.64-.066.562h.859a.69.69 0 0 1 .627.394h-1.534l-.066.563h1.627a.693.693 0 0 1-.655.449h-.533a.281.281 0 0 0-.213.465l1.288 1.5h.74l-1.225-1.429a1.268 1.268 0 0 0 1.183-.988h.465l-.066-.563h-.415a1.254 1.254 0 0 0-.171-.394h.539l-.066-.562h-2.317z" transform="translate(-129.83 478.951)" style="fill-rule:evenodd;fill:#f51112"/>
            </g>
        </g>
    </g>
</svg>
